<?xml version="1.0" encoding="UTF-8"?>
<svg id="Layer_1" data-name="Layer 1" xmlns="http://www.w3.org/2000/svg" version="1.1" viewBox="0 0 841.89 595.28">
  <defs>
    <style>
      .cls-1 {
        stroke-linecap: round;
        stroke-linejoin: round;
      }

      .cls-1, .cls-2, .cls-3 {
        fill: none;
        stroke-width: 4px;
      }

      .cls-1, .cls-3 {
        stroke: #2c338d;
      }

      .cls-4 {
        fill: #f7f0e7;
      }

      .cls-4, .cls-5, .cls-6, .cls-7 {
        stroke-width: 0px;
      }

      .cls-5 {
        fill: #95257a;
      }

      .cls-2 {
        stroke: #95257a;
      }

      .cls-2, .cls-3 {
        stroke-miterlimit: 10;
      }

      .cls-6 {
        fill: #2c338d;
      }

      .cls-7 {
        fill: #fff;
      }
    </style>
  </defs>
  <polygon class="cls-7" points="841.89 595.28 679.1 595.28 0 595.28 0 0 841.89 0 841.89 541.2 841.89 595.28"/>
  <g>
    <path class="cls-6" d="M381.32,97.39c-.84,1.04-1.98,1.82-3.41,2.36-1.43.54-3.07.75-4.92.64l-1.77,5.6c-.68,2.15-1.91,3.12-3.67,2.89-.97-.13-1.82-.53-2.57-1.21-.74-.68-1.28-1.64-1.62-2.87-.34-1.24-.4-2.71-.17-4.43.42-3.22,1.29-5.89,2.63-8,1.33-2.11,2.95-3.61,4.85-4.5,1.9-.89,3.9-1.2,6.01-.92,1.49.19,2.72.62,3.69,1.28s1.66,1.47,2.08,2.44c.42.96.55,2.01.4,3.14-.18,1.35-.69,2.54-1.53,3.58ZM379.27,93.57c.14-1.05-.1-1.95-.7-2.69-.6-.75-1.63-1.22-3.07-1.4-1.63-.21-3.13.12-4.47.99-1.35.87-2.47,2.18-3.37,3.93s-1.5,3.79-1.8,6.14c-.13.98-.14,1.87-.04,2.66.1.79.28,1.41.53,1.87s.52.71.81.75c.4.05.77-.46,1.12-1.53l1.37-4.4c-.61-.18-.87-.25-.79-.22-.47-.14-.76-.33-.87-.56-.11-.23-.15-.52-.11-.85.05-.35.18-.61.41-.79.23-.18.51-.25.86-.2.16.02.28.04.35.07.37.11.66.19.86.23.37-1.21.88-2.83,1.53-4.86.17-.53.43-.88.8-1.07.37-.19.79-.25,1.25-.19.52.07.89.22,1.09.44.2.23.28.56.22.98-.03.25-.08.46-.13.61l-1.39,4.51c3.31,0,5.15-1.47,5.54-4.43Z"/>
    <path class="cls-6" d="M394.05,102.58c.08.22.11.49.06.81-.1.76-.39,1.18-.87,1.27-1,.21-2.07.26-3.22.16-.47,1.29-1.21,2.28-2.2,2.97-.99.69-2.05.96-3.18.81-.95-.12-1.74-.46-2.35-1.01-.61-.55-1.05-1.22-1.3-2.03-.25-.81-.32-1.65-.2-2.54.16-1.21.53-2.25,1.11-3.13.58-.88,1.31-1.54,2.19-1.97.88-.43,1.81-.58,2.79-.45,1.21.16,2.12.7,2.75,1.63.63.93.93,2.01.9,3.25.75.05,1.66,0,2.73-.13.13-.02.24-.02.34,0,.21.03.35.15.44.37ZM386.57,105.65c.43-.36.75-.93.98-1.69-.45-.4-.77-.88-.96-1.46-.19-.57-.25-1.16-.17-1.76.03-.25.09-.5.17-.75l-.12-.02c-.63-.08-1.2.15-1.7.71-.5.56-.82,1.39-.97,2.5-.11.87-.03,1.56.25,2.07.28.5.65.79,1.11.85.51.07.98-.08,1.4-.45ZM386.76,95.62c-.15-.19-.2-.4-.17-.64.01-.11.07-.26.18-.44l2.86-4.66c.18-.3.4-.51.65-.63.25-.12.52-.16.8-.13.4.05.73.24,1,.57.27.33.38.7.33,1.13-.06.44-.29.87-.7,1.26l-3.58,3.55c-.24.24-.51.34-.81.31-.22-.03-.41-.14-.55-.33Z"/>
    <path class="cls-6" d="M405.92,106.13c.09.21.12.48.08.81-.08.63-.3,1.11-.64,1.42-.75.71-1.56,1.29-2.41,1.76-.85.46-1.66.64-2.42.54-1.21-.16-2.04-.98-2.49-2.48-.78.75-1.43,1.24-1.97,1.46-.54.22-1.14.29-1.8.2-.97-.13-1.72-.59-2.25-1.39-.53-.8-.72-1.78-.57-2.94.17-1.27.59-2.41,1.27-3.43.68-1.02,1.54-1.81,2.57-2.38,1.03-.57,2.15-.84,3.34-.81.7-3.04,1.62-5.59,2.75-7.67,1.13-2.07,2.39-3.02,3.77-2.84.68.09,1.21.47,1.58,1.15s.48,1.64.31,2.9c-.23,1.78-.94,3.8-2.12,6.06-1.18,2.27-2.67,4.56-4.45,6.88-.06.93,0,1.6.16,2.03s.41.66.74.7c.43.05.89-.08,1.38-.4.49-.32,1.17-.88,2.03-1.67.22-.2.45-.28.69-.25.21.03.36.14.45.35ZM396.36,107.3c.33-.21.77-.61,1.32-1.22-.05-.88,0-1.85.14-2.91.05-.38.15-1,.29-1.85-.91.16-1.71.64-2.41,1.47-.7.82-1.11,1.78-1.26,2.87-.15,1.16.17,1.79.96,1.89.3.04.62-.04.95-.25ZM403.46,92.18c-.44,1.03-.88,2.4-1.32,4.1-.44,1.7-.83,3.49-1.17,5.37,2.28-3.64,3.57-6.63,3.88-8.98.08-.6.09-1.08.03-1.42-.06-.35-.16-.53-.3-.55-.3-.04-.67.46-1.11,1.49Z"/>
    <path class="cls-6" d="M404.32,110.04c-.37-.79-.48-1.79-.32-3,.09-.71.3-1.62.63-2.71s.7-2.11,1.11-3.04c.21-.49.44-.81.71-.97.26-.16.66-.21,1.18-.14.81.11,1.18.43,1.11.97-.05.4-.32,1.3-.81,2.7-.61,1.7-.95,2.85-1.03,3.47-.06.48-.05.85.05,1.12.09.27.29.42.59.46.29.04.67-.12,1.15-.46s1.13-.89,1.96-1.66c.22-.2.45-.28.69-.25.21.03.36.14.45.35.09.21.12.47.08.81-.08.63-.3,1.11-.64,1.42-1.82,1.72-3.41,2.48-4.78,2.31-1.03-.13-1.73-.6-2.11-1.39ZM406.84,98.01c-.29-.35-.4-.81-.33-1.36.07-.55.35-.99.84-1.31.48-.32,1.05-.43,1.7-.35.59.08,1.04.28,1.37.61s.46.76.39,1.29c-.08.63-.35,1.11-.82,1.43-.46.32-1.03.43-1.72.35-.67-.09-1.15-.31-1.44-.66Z"/>
    <path class="cls-6" d="M410.16,110.91c-.37-.72-.49-1.57-.36-2.55.15-1.19.38-2.27.66-3.24.29-.97.69-1.99,1.2-3.05.22-.46.49-.77.8-.94s.78-.21,1.4-.13c.35.04.58.13.7.26s.17.3.14.53c-.02.13-.16.54-.43,1.25-.24.57-.43,1.08-.59,1.54-.53,1.62-.84,2.71-.91,3.27-.04.33-.03.57.03.72.06.15.18.23.35.25.24.03.57-.17.99-.6.42-.43.89-1.1,1.42-2.02.53-.92,1.08-2.05,1.64-3.42.19-.46.43-.78.72-.95.29-.17.69-.22,1.22-.16.37.05.61.12.74.23.13.11.18.28.15.51-.05.4-.39,1.46-1.02,3.18-.71,1.97-1.09,3.2-1.16,3.67-.04.3,0,.54.1.73.11.18.26.29.47.32.32.04.72-.1,1.21-.44.49-.33,1.15-.89,2-1.67.22-.2.45-.28.69-.25.21.03.36.14.45.35.09.21.12.48.08.81-.08.63-.3,1.11-.64,1.42-.79.75-1.62,1.35-2.47,1.78-.86.44-1.78.59-2.78.46-.76-.1-1.28-.47-1.56-1.1-.28-.63-.35-1.48-.21-2.54-.41,1.04-.92,1.82-1.54,2.33-.61.51-1.23.72-1.85.64-.71-.09-1.25-.5-1.62-1.22Z"/>
    <path class="cls-6" d="M420.89,112.34c-.16-.67-.15-1.7.03-3.09.27-2.06.82-3.98,1.65-5.76.2-.44.48-.75.83-.92.35-.17.82-.22,1.41-.14.32.04.53.11.65.21.12.1.16.25.13.48-.03.25-.23.81-.58,1.67-.24.61-.44,1.15-.6,1.6-.16.46-.31,1.03-.46,1.72.59-1.18,1.24-2.16,1.94-2.94.71-.78,1.4-1.34,2.08-1.68s1.3-.47,1.86-.4c.55.07.93.25,1.13.53.2.28.26.69.19,1.21-.07.51-.34,1.41-.81,2.7-.2.55-.34.97-.43,1.25.7-1.26,1.42-2.28,2.17-3.03.75-.76,1.46-1.28,2.13-1.55.67-.28,1.26-.38,1.78-.31.51.07.88.25,1.1.54.23.3.31.7.24,1.21-.05.41-.24,1.18-.57,2.3-.28.95-.53,1.85-.74,2.7-.21.85-.38,1.81-.52,2.87-.08.6-.26,1.02-.54,1.25-.28.23-.7.31-1.25.24-.52-.07-.89-.25-1.09-.55-.2-.3-.27-.72-.2-1.26.08-.63.33-1.67.74-3.1.35-1.25.56-2.04.6-2.39.03-.25-.04-.39-.21-.42-.21-.03-.53.2-.98.68-.45.48-.92,1.13-1.42,1.96s-.92,1.7-1.29,2.64c-.27.74-.54,1.22-.81,1.44-.26.22-.65.3-1.16.24-.52-.07-.88-.37-1.08-.9-.2-.53-.25-1.16-.16-1.87.08-.6.27-1.46.58-2.59.26-1,.41-1.66.45-1.97.03-.25-.04-.39-.21-.42-.24-.03-.58.22-1.02.74-.44.52-.89,1.21-1.34,2.05-.46.84-.84,1.68-1.16,2.51-.27.72-.54,1.2-.8,1.43-.26.23-.64.32-1.13.25-.6-.08-.99-.45-1.15-1.12Z"/>
  </g>
  <g>
    <path class="cls-6" d="M341.98,286.51c-.86.83-1.51,2.15-1.93,3.96.61-.54,1.27-.9,1.97-1.07.71-.17,1.47-.2,2.28-.09,1.02.13,1.9.46,2.65,1s1.3,1.21,1.65,2.03.46,1.7.34,2.64c-.15,1.16-.56,2.17-1.22,3.03-.66.86-1.54,1.49-2.64,1.89-1.1.41-2.35.52-3.76.34-2.1-.27-3.62-1.14-4.56-2.6-.94-1.46-1.26-3.35-.96-5.67.27-2.08.86-3.87,1.77-5.38s2.07-2.62,3.48-3.34c1.41-.72,2.98-.96,4.71-.74,1.57.2,2.81.73,3.72,1.59.92.85,1.37,1.88,1.36,3.08v.34c-.08.53-.3.92-.68,1.17-.37.25-.87.34-1.48.26-.45-.06-.79-.22-1.04-.49-.24-.27-.43-.7-.56-1.3-.11-.45-.33-.82-.68-1.12-.35-.29-.8-.48-1.37-.55-1.18-.15-2.2.18-3.07,1.01ZM340.84,292.72c-.55.42-.88,1.05-.99,1.86-.1.73.03,1.34.38,1.82.35.48.89.77,1.63.86.81.11,1.51-.07,2.07-.52.57-.45.9-1.1,1.01-1.94.09-.69-.04-1.27-.4-1.73-.35-.46-.88-.74-1.57-.83-.88-.11-1.59.04-2.14.47Z"/>
    <path class="cls-6" d="M367.46,297.89c-.1.73-.37,1.22-.81,1.45s-1.11.29-1.98.18l-.64-.08-.33,1.6c-.18.93-.46,1.53-.84,1.82-.38.28-.95.37-1.7.28-1.08-.14-1.53-.87-1.36-2.2.03-.22.06-.39.1-.51l.35-1.48c-2.95-.38-5.19-.69-6.72-.91-.45-.06-.82-.31-1.11-.76s-.4-1-.31-1.66c.05-.39.17-.79.37-1.2,1.24-2.49,2.97-5.28,5.19-8.37.48-.66.94-1.12,1.37-1.36.44-.24,1.07-.31,1.91-.2.45.06.78.21.98.44.21.23.29.51.25.84-.05.35-.19.68-.44,1-2.47,3.39-4.26,6.15-5.37,8.28l4.71.61c.49-1.86,1.06-3.62,1.71-5.28.24-.61.57-1.06.98-1.35.41-.29.94-.39,1.59-.31,1.04.14,1.5.65,1.38,1.55-.03.27-.08.47-.14.6-.59,1.69-1.15,3.45-1.68,5.28l1.1.14c1.08.14,1.56.67,1.44,1.59Z"/>
    <path class="cls-6" d="M377.57,299.98c.07-.55.18-1.11.31-1.67.5-2.11,1.25-4.67,2.24-7.68.99-3.01,1.99-5.88,2.98-8.61.29-.79.65-1.32,1.1-1.6.44-.27.98-.37,1.64-.28.61.08,1.05.24,1.32.48.27.24.37.59.32,1.04-.02.12-.09.38-.23.78l-.33.89c-1.47,3.95-2.54,6.86-3.22,8.73-.68,1.87-1.24,3.58-1.69,5.14-.37,1.26-.63,2.42-.76,3.47-.11.88.1,1.35.65,1.42.39.05.89-.14,1.5-.57s1.46-1.14,2.55-2.14c.28-.25.57-.36.88-.32.26.04.46.19.58.45s.15.61.1,1.04c-.11.82-.38,1.42-.83,1.82-1.04.98-2.05,1.76-3.04,2.32-.99.57-2.01.78-3.07.64-2.43-.32-3.43-2.1-3-5.36ZM388.17,284.13c-.2-.24-.26-.57-.18-.97l.71-4.01c.11-.67.38-1.13.82-1.39s.92-.35,1.45-.28c.49.06.87.26,1.15.6s.38.78.31,1.33c-.05.37-.14.69-.28.96l-1.65,3.36c-.31.64-.81.92-1.51.83-.35-.05-.62-.19-.81-.43Z"/>
    <path class="cls-6" d="M385.33,304.67c-.47-.92-.62-2.01-.46-3.28.2-1.53.48-2.92.85-4.16.37-1.25.88-2.55,1.54-3.92.28-.59.62-.99,1.03-1.2.4-.22,1-.28,1.79-.17.45.06.75.17.9.34s.21.39.18.68c-.02.16-.2.7-.55,1.61-.3.73-.55,1.39-.75,1.98-.69,2.09-1.08,3.49-1.17,4.2-.06.43-.05.74.03.92s.23.29.46.32c.31.04.73-.22,1.27-.77.54-.55,1.15-1.41,1.83-2.59.68-1.18,1.38-2.64,2.11-4.39.24-.59.55-1,.92-1.22.37-.22.89-.29,1.57-.2.47.06.79.16.96.3.17.14.23.36.19.66-.07.51-.5,1.87-1.31,4.09-.91,2.53-1.4,4.1-1.48,4.72-.05.39,0,.7.13.93.14.24.34.37.6.4.41.05.92-.13,1.55-.56.62-.43,1.48-1.14,2.56-2.14.28-.25.58-.36.88-.32.27.03.46.18.58.45s.15.61.1,1.04c-.11.81-.38,1.42-.83,1.82-1.02.97-2.07,1.73-3.17,2.29-1.1.56-2.29.76-3.57.59-.98-.13-1.65-.6-2.01-1.41-.36-.81-.45-1.9-.27-3.27-.53,1.34-1.18,2.34-1.97,2.99-.79.65-1.58.93-2.38.83-.92-.12-1.61-.64-2.08-1.56Z"/>
    <path class="cls-6" d="M417.26,303.4c.12.26.15.61.1,1.04-.11.81-.38,1.42-.83,1.82-.97.91-2,1.66-3.09,2.26s-2.13.83-3.11.7c-1.55-.2-2.61-1.26-3.19-3.18-1,.97-1.84,1.6-2.53,1.88-.69.28-1.46.37-2.32.26-1.24-.16-2.21-.76-2.89-1.79s-.93-2.29-.74-3.78c.21-1.63.75-3.1,1.63-4.4.87-1.3,1.98-2.32,3.3-3.05,1.33-.73,2.76-1.08,4.29-1.04.9-3.9,2.08-7.18,3.53-9.84,1.45-2.66,3.07-3.87,4.84-3.64.88.11,1.55.61,2.03,1.48.48.87.61,2.11.4,3.72-.3,2.28-1.2,4.88-2.72,7.79-1.52,2.91-3.42,5.85-5.72,8.83-.07,1.19,0,2.06.2,2.61.21.55.53.85.95.9.55.07,1.14-.1,1.78-.51.63-.41,1.5-1.13,2.61-2.15.28-.25.58-.36.88-.32.26.04.46.19.58.45ZM404.99,304.9c.43-.27.99-.79,1.7-1.57-.06-1.13,0-2.37.18-3.74.06-.49.19-1.28.37-2.37-1.17.2-2.2.83-3.09,1.88-.89,1.06-1.43,2.29-1.62,3.69-.19,1.49.22,2.3,1.24,2.43.39.05.79-.06,1.22-.32ZM414.1,285.48c-.57,1.32-1.13,3.08-1.69,5.26-.56,2.19-1.06,4.48-1.5,6.89,2.93-4.67,4.59-8.52,4.98-11.53.1-.77.11-1.38.04-1.83-.08-.44-.21-.68-.39-.7-.39-.05-.86.59-1.43,1.91Z"/>
    <path class="cls-6" d="M414.14,309.31c-.21-.3-.28-.73-.2-1.3.02-.16.08-.45.17-.85.81-3.69,1.79-7.01,2.94-9.97.24-.61.57-1.02.98-1.22.41-.21,1.03-.25,1.87-.15.88.11,1.27.53,1.18,1.24-.01.1-.06.29-.14.57-1.48,4.24-2.51,7.83-3.08,10.76-.13.65-.38,1.08-.76,1.3-.38.22-.94.28-1.67.19-.65-.09-1.08-.28-1.29-.57ZM419.46,293.39c-.19-.24-.26-.52-.22-.82.02-.14.09-.33.23-.56l3.67-5.99c.24-.38.51-.65.84-.81.32-.16.66-.21,1.03-.16.51.07.94.31,1.29.73.35.42.49.9.42,1.45-.07.57-.37,1.11-.89,1.62l-4.6,4.56c-.31.31-.66.44-1.05.39-.28-.04-.52-.18-.71-.42Z"/>
    <path class="cls-6" d="M348.8,328.06c.21.32.28.68.23,1.09-.07.51-.3.95-.69,1.32-.39.37-.87.53-1.44.45l-5.01-.65-1.4,5.5c-.15.52-.43.9-.85,1.13-.41.23-.86.32-1.35.26-.47-.06-.83-.25-1.09-.58-.26-.32-.32-.75-.19-1.27l1.4-5.5-4.95-.65c-.47-.06-.81-.25-1.01-.58-.21-.33-.28-.69-.23-1.1.07-.51.29-.94.68-1.31.39-.36.87-.51,1.44-.43l4.98.65,1.4-5.51c.13-.5.39-.87.8-1.11.4-.24.84-.33,1.31-.26s.85.25,1.14.58c.29.33.37.74.24,1.24l-1.4,5.51,4.98.65c.47.06.81.25,1.01.57Z"/>
    <path class="cls-6" d="M361.98,338.49c-.96-1.28-1.32-2.84-1.08-4.69.21-1.65.73-3.05,1.54-4.21.81-1.16,1.78-2.01,2.91-2.54,1.13-.54,2.26-.73,3.4-.58,1.12.15,1.95.59,2.48,1.33.54.74.74,1.63.6,2.67-.11.86-.39,1.55-.85,2.1-.45.54-.99.77-1.6.7-.39-.05-.69-.18-.9-.4-.21-.21-.29-.48-.25-.81.02-.14.06-.3.12-.48.06-.18.11-.31.14-.38.14-.29.23-.57.26-.84.03-.26,0-.48-.12-.64-.11-.16-.29-.26-.54-.29-.47-.06-.93.09-1.4.46s-.86.89-1.2,1.57c-.34.68-.56,1.45-.67,2.31-.31,2.36.57,3.68,2.63,3.95.83.11,1.77-.06,2.81-.49,1.04-.43,2.1-1.15,3.19-2.15.28-.25.58-.36.88-.32.27.03.46.18.58.45.12.26.15.61.1,1.04-.1.77-.38,1.38-.83,1.82-1.11,1.06-2.38,1.82-3.79,2.29-1.42.47-2.75.62-3.99.46-2-.26-3.48-1.03-4.44-2.3Z"/>
    <path class="cls-6" d="M372.43,340.18c-.63-1.01-.86-2.27-.66-3.75.21-1.63.79-3.13,1.73-4.48.94-1.36,2.1-2.4,3.47-3.12,1.37-.73,2.76-.99,4.16-.81.45.06.74.18.87.37.13.19.22.52.26.98.44-.03.89,0,1.36.05,1,.13,1.45.55,1.36,1.26-.06.43-.34,1.43-.86,3-.77,2.28-1.22,3.88-1.34,4.8-.04.31,0,.56.13.76.13.2.31.32.56.35.39.05.89-.14,1.5-.57.62-.43,1.46-1.14,2.55-2.14.28-.25.58-.36.88-.32.26.03.46.18.58.45.12.26.15.61.1,1.04-.11.81-.38,1.42-.83,1.82-.97.93-1.97,1.69-3,2.28-1.03.59-1.98.83-2.86.71-.67-.09-1.26-.39-1.76-.93-.5-.53-.84-1.21-1.02-2.04-1.28,1.57-2.73,2.26-4.34,2.04-1.26-.16-2.21-.75-2.85-1.77ZM378.17,338.38c.48-.47.86-1.14,1.16-1.99l1.86-5.48c-.86-.09-1.69.13-2.49.66-.8.53-1.49,1.27-2.05,2.24-.56.96-.92,2.01-1.06,3.16-.08.63-.02,1.12.2,1.46.22.34.55.54,1,.6.45.06.91-.15,1.39-.63Z"/>
    <path class="cls-6" d="M401,338.58c.12.26.15.61.1,1.04-.11.81-.38,1.42-.83,1.82-1.02.97-2.09,1.73-3.22,2.28-1.13.56-2.37.75-3.71.58-4.16-.54-5.85-3.73-5.09-9.58.12-.89.26-1.8.44-2.71l-1.19-.16c-.61-.08-1.01-.25-1.19-.5-.18-.25-.25-.62-.18-1.11.15-1.14.68-1.65,1.6-1.53l1.74.23c.64-2.2,1.43-4.18,2.39-5.94.95-1.76,2.01-3.13,3.16-4.09,1.15-.97,2.31-1.38,3.47-1.23.86.11,1.48.58,1.87,1.39.39.82.51,1.8.36,2.94-.41,3.16-2.09,5.74-5.05,7.73l3.42.45c.33.04.55.14.68.3.12.16.16.44.11.82-.18,1.41-1.43,1.96-3.73,1.66l-3.73-.48c-.17,1.01-.3,1.81-.37,2.37-.28,2.12-.22,3.64.17,4.56.39.92,1.12,1.45,2.2,1.59.88.11,1.69-.05,2.43-.49.74-.44,1.64-1.13,2.69-2.07.28-.25.58-.36.88-.32.27.04.46.18.58.45ZM396.1,321.52c-.48.71-.97,1.73-1.48,3.04-.51,1.31-.99,2.78-1.43,4.4,1.34-.88,2.39-1.93,3.16-3.15.77-1.22,1.22-2.35,1.36-3.41.16-1.2.01-1.83-.44-1.89-.31-.04-.7.3-1.17,1.01Z"/>
    <path class="cls-6" d="M413.01,340.15c.12.26.15.61.1,1.04-.11.81-.38,1.42-.83,1.82-.87.82-2.05,1.52-3.52,2.12-1.48.6-3,.79-4.57.59-2.14-.28-3.72-1.08-4.75-2.39-1.03-1.32-1.42-2.98-1.15-5,.18-1.41.65-2.68,1.4-3.81.75-1.14,1.69-1.99,2.84-2.57,1.14-.58,2.37-.78,3.7-.61,1.18.15,2.08.63,2.7,1.42.62.8.85,1.79.7,3-.18,1.41-.84,2.55-1.98,3.42-1.14.88-2.95,1.45-5.43,1.73.39,1,1.29,1.6,2.72,1.78.92.12,2-.07,3.26-.56,1.25-.49,2.38-1.2,3.37-2.13.28-.25.58-.36.88-.32.27.04.46.18.58.45ZM403.22,335.33c-.63.81-1.03,1.83-1.19,3.08v.06c1.23-.13,2.23-.43,3-.91.77-.48,1.2-1.1,1.3-1.85.05-.39-.02-.71-.2-.97-.18-.26-.46-.42-.83-.46-.75-.1-1.45.26-2.08,1.07Z"/>
    <path class="cls-6" d="M410.6,345.3c-.21-.85-.2-2.18.03-3.97.35-2.65,1.05-5.12,2.11-7.4.26-.57.62-.96,1.07-1.18.45-.22,1.06-.28,1.81-.19.41.05.69.14.84.27.15.12.21.33.17.61-.04.33-.29,1.04-.74,2.14-.31.79-.57,1.48-.77,2.07s-.4,1.34-.6,2.22c.9-1.66,1.84-2.99,2.82-3.98.98-.99,1.9-1.67,2.77-2.03s1.63-.5,2.31-.41c1.32.17,1.9.92,1.73,2.25-.03.27-.21.89-.53,1.89-.27.79-.42,1.29-.44,1.5-.09.71.12,1.1.62,1.17.57.08,1.36-.28,2.38-1.06.3-.23.59-.33.88-.29.26.04.46.18.58.43.12.25.16.57.11.96-.1.76-.38,1.32-.84,1.69-.65.52-1.38.93-2.2,1.25-.82.32-1.66.42-2.51.31-1.08-.14-1.86-.52-2.35-1.15s-.67-1.4-.55-2.34c.04-.3.11-.61.21-.9.1-.4.15-.67.17-.82.04-.33-.05-.5-.27-.53-.31-.04-.75.25-1.34.87-.59.62-1.2,1.46-1.83,2.51-.64,1.06-1.19,2.19-1.65,3.39-.35.93-.69,1.54-1.03,1.84s-.83.4-1.46.32c-.77-.1-1.27-.58-1.48-1.43Z"/>
    <path class="cls-6" d="M424.86,346.97c-.48-1.01-.62-2.3-.42-3.84.12-.92.39-2.08.81-3.48.42-1.41.89-2.71,1.42-3.9.27-.63.57-1.05.91-1.25.34-.21.84-.26,1.51-.18,1.04.14,1.51.55,1.42,1.24-.07.51-.41,1.67-1.04,3.47-.78,2.18-1.22,3.67-1.33,4.46-.08.61-.06,1.09.06,1.44.12.35.37.55.76.6.37.05.86-.15,1.47-.59.62-.44,1.45-1.15,2.51-2.13.28-.25.58-.36.88-.32.26.04.46.18.58.45.12.26.15.61.1,1.04-.11.82-.38,1.42-.83,1.82-2.34,2.2-4.38,3.19-6.13,2.96-1.33-.17-2.23-.77-2.71-1.78ZM428.1,331.53c-.38-.45-.52-1.04-.43-1.75.09-.71.45-1.27,1.07-1.68.62-.41,1.35-.55,2.19-.44.75.1,1.34.36,1.76.79.42.43.59.98.5,1.65-.11.81-.45,1.43-1.05,1.84-.59.41-1.33.56-2.2.44-.86-.11-1.47-.39-1.85-.85Z"/>
    <path class="cls-6" d="M432.02,348.09c-.21-.85-.2-2.18.03-3.97.35-2.65,1.05-5.12,2.11-7.4.26-.57.62-.96,1.07-1.18.45-.22,1.06-.28,1.81-.19.41.05.69.14.84.26.15.12.21.33.17.61-.04.33-.29,1.04-.74,2.14-.31.79-.57,1.48-.77,2.07-.2.6-.4,1.34-.6,2.22.9-1.66,1.84-2.99,2.82-3.98.98-.99,1.9-1.67,2.77-2.03.86-.36,1.63-.5,2.31-.41,1.32.17,1.9.92,1.73,2.25-.1.79-.51,2.2-1.23,4.22-.62,1.72-.96,2.87-1.04,3.44-.11.82.14,1.26.73,1.34.41.05.92-.13,1.55-.56s1.48-1.14,2.56-2.14c.28-.25.58-.36.88-.32.26.04.46.18.58.45.12.26.15.61.1,1.04-.11.81-.38,1.42-.83,1.82-1.02.96-2.07,1.73-3.17,2.29s-2.29.76-3.57.59c-1.04-.14-1.78-.54-2.23-1.21-.45-.67-.6-1.57-.46-2.72.08-.57.35-1.57.83-3,.43-1.25.68-2.12.74-2.61.04-.33-.05-.5-.27-.53-.26-.04-.68.26-1.25.88-.57.62-1.17,1.46-1.82,2.51s-1.2,2.19-1.67,3.39c-.35.93-.69,1.54-1.03,1.84-.34.3-.82.4-1.46.32-.77-.1-1.27-.58-1.47-1.43Z"/>
    <path class="cls-6" d="M459.64,339.55c.19.18.26.49.2.94-.03.24-.07.44-.11.58-.16.62-.63,2.22-1.4,4.79-.54,1.73-.88,2.88-1.04,3.44-1.46,5.16-3.04,9.17-4.75,12.05-1.71,2.87-3.67,4.17-5.87,3.88-1.04-.14-1.84-.57-2.41-1.29-.57-.73-.79-1.61-.65-2.65.19-1.45.96-2.93,2.32-4.44,1.36-1.51,3.76-3.28,7.21-5.29l.34-1.17c-.42.5-.93.87-1.52,1.09s-1.17.3-1.72.23c-1.26-.16-2.21-.75-2.85-1.77-.64-1.01-.86-2.27-.66-3.75.21-1.63.79-3.13,1.73-4.48.94-1.36,2.1-2.4,3.47-3.12,1.37-.72,2.76-.99,4.16-.81.45.06.74.18.87.38.13.19.22.52.26.98.4-.03.85-.02,1.36.05.51.07.86.19,1.06.37ZM449.37,360.69c.8-1.14,1.67-3,2.61-5.6-1.74,1.14-3.03,2.21-3.87,3.2-.83.99-1.3,1.89-1.41,2.71-.05.35-.02.64.09.88.1.24.31.38.61.42.51.07,1.17-.47,1.96-1.61ZM453.2,348.08c.5-.51.91-1.29,1.23-2.32l1.66-5.1c-.84-.09-1.65.13-2.45.66-.8.53-1.47,1.27-2.03,2.24-.56.96-.91,2.02-1.06,3.16-.08.63-.02,1.12.2,1.46.21.34.55.54.99.6.47.06.95-.17,1.46-.68Z"/>
    <path class="cls-6" d="M344.03,364.74c.21.32.28.68.23,1.09-.07.51-.3.95-.68,1.32-.39.37-.87.52-1.44.45l-5.01-.65-1.4,5.5c-.15.52-.43.9-.85,1.14-.41.23-.86.32-1.35.26-.47-.06-.83-.25-1.09-.58-.26-.32-.32-.75-.19-1.27l1.4-5.5-4.95-.65c-.47-.06-.81-.25-1.01-.58-.21-.33-.28-.7-.23-1.1.07-.51.29-.94.68-1.31.39-.36.87-.51,1.44-.43l4.98.65,1.4-5.51c.13-.5.39-.87.8-1.11s.84-.33,1.31-.27c.47.06.85.26,1.14.58.29.33.37.74.24,1.24l-1.4,5.5,4.98.65c.47.06.81.25,1.01.57Z"/>
    <path class="cls-6" d="M357.2,375.17c-.96-1.28-1.32-2.84-1.08-4.69.21-1.65.73-3.05,1.54-4.21.81-1.16,1.78-2.01,2.91-2.54,1.13-.54,2.26-.73,3.4-.58,1.12.15,1.95.59,2.48,1.33.54.74.74,1.63.6,2.67-.11.86-.39,1.55-.85,2.1-.45.54-.99.77-1.6.7-.39-.05-.69-.18-.9-.4-.21-.21-.29-.48-.25-.81.02-.14.06-.3.12-.48.06-.18.11-.3.14-.38.14-.29.23-.57.26-.84.03-.26,0-.48-.12-.64-.11-.16-.29-.26-.54-.29-.47-.06-.93.09-1.4.45s-.86.89-1.2,1.57c-.34.68-.56,1.45-.67,2.31-.31,2.36.57,3.68,2.63,3.95.83.11,1.77-.06,2.81-.49,1.04-.43,2.1-1.15,3.19-2.15.28-.25.58-.36.88-.32.27.04.46.18.58.45.12.26.15.61.1,1.04-.1.77-.38,1.38-.83,1.82-1.11,1.06-2.38,1.82-3.79,2.29-1.42.47-2.75.62-3.99.46-2-.26-3.48-1.03-4.44-2.3Z"/>
    <path class="cls-6" d="M367.66,376.86c-.63-1.01-.86-2.27-.66-3.75.21-1.63.79-3.13,1.73-4.48.94-1.36,2.1-2.4,3.47-3.12,1.37-.72,2.76-.99,4.16-.81.45.06.74.18.87.38.13.19.22.52.26.98.44-.03.89,0,1.36.05,1,.13,1.45.55,1.36,1.26-.06.43-.34,1.43-.86,3-.77,2.28-1.22,3.88-1.34,4.8-.04.31,0,.56.13.76.13.2.32.32.56.35.39.05.89-.14,1.5-.57.62-.43,1.46-1.14,2.55-2.14.28-.25.58-.36.88-.32.26.04.46.18.58.45.12.26.15.61.1,1.04-.11.82-.38,1.42-.83,1.82-.97.93-1.97,1.69-3,2.28-1.03.59-1.98.83-2.86.72-.67-.09-1.26-.4-1.76-.93-.5-.53-.84-1.21-1.02-2.04-1.28,1.57-2.73,2.26-4.34,2.05-1.26-.16-2.21-.75-2.85-1.77ZM373.4,375.05c.48-.48.86-1.14,1.16-1.99l1.86-5.47c-.86-.09-1.69.13-2.49.65-.8.53-1.49,1.27-2.05,2.24s-.91,2.01-1.06,3.16c-.08.63-.02,1.12.2,1.45.22.34.55.54,1,.6.45.06.91-.15,1.39-.63Z"/>
    <path class="cls-6" d="M381.8,378.85c-.21-.86-.2-2.18.03-3.97.35-2.65,1.05-5.11,2.11-7.4.26-.57.62-.96,1.07-1.18.45-.22,1.06-.28,1.81-.18.41.05.69.14.84.26.15.12.21.33.17.61-.04.33-.29,1.04-.74,2.14-.31.79-.57,1.48-.77,2.08-.2.6-.4,1.34-.6,2.22.9-1.66,1.84-2.99,2.82-3.98.98-.99,1.9-1.67,2.77-2.03.87-.36,1.63-.5,2.31-.41,1.32.17,1.9.92,1.73,2.24-.1.8-.51,2.2-1.23,4.22-.62,1.72-.96,2.87-1.04,3.44-.11.82.14,1.26.73,1.34.41.05.92-.13,1.55-.56s1.48-1.14,2.56-2.14c.28-.25.58-.36.88-.32.26.04.46.18.58.45s.15.61.1,1.04c-.11.82-.38,1.42-.83,1.82-1.02.97-2.07,1.73-3.17,2.29-1.1.56-2.29.76-3.57.59-1.04-.13-1.78-.54-2.24-1.21-.45-.67-.6-1.58-.45-2.72.07-.57.35-1.57.83-3,.43-1.25.68-2.12.74-2.61.04-.33-.05-.5-.27-.53-.26-.04-.68.26-1.25.88-.57.62-1.17,1.46-1.82,2.51-.65,1.06-1.2,2.19-1.67,3.39-.35.93-.69,1.54-1.03,1.84-.34.3-.82.41-1.46.32-.77-.1-1.27-.58-1.48-1.43Z"/>
    <path class="cls-6" d="M415.11,377.72c.12.26.15.61.1,1.04-.11.82-.38,1.42-.83,1.82-.97.91-2,1.66-3.09,2.26-1.09.59-2.13.83-3.11.7-1.55-.2-2.61-1.26-3.19-3.18-1,.97-1.84,1.59-2.53,1.88-.69.28-1.46.37-2.32.26-1.24-.16-2.21-.76-2.89-1.79-.68-1.03-.93-2.29-.74-3.78.21-1.63.75-3.1,1.63-4.4.87-1.3,1.97-2.32,3.3-3.05,1.33-.73,2.76-1.08,4.29-1.04.9-3.9,2.08-7.18,3.53-9.84,1.45-2.66,3.07-3.87,4.84-3.64.88.11,1.55.61,2.03,1.48s.61,2.11.4,3.72c-.3,2.28-1.2,4.88-2.72,7.79-1.52,2.91-3.42,5.85-5.72,8.83-.07,1.19,0,2.06.2,2.61s.53.85.95.9c.55.07,1.14-.1,1.78-.51.63-.41,1.5-1.13,2.61-2.15.28-.25.58-.36.88-.32.26.03.46.18.58.45ZM402.84,379.21c.43-.27.99-.79,1.7-1.57-.06-1.13,0-2.37.18-3.74.06-.49.19-1.28.37-2.37-1.17.2-2.2.83-3.09,1.88-.89,1.05-1.43,2.28-1.61,3.69-.19,1.49.22,2.3,1.24,2.43.39.05.8-.06,1.22-.32ZM411.96,359.79c-.57,1.33-1.13,3.08-1.7,5.27-.56,2.19-1.06,4.48-1.5,6.89,2.93-4.67,4.59-8.52,4.98-11.53.1-.77.11-1.38.04-1.83-.08-.44-.21-.68-.39-.7-.39-.05-.86.59-1.43,1.91Z"/>
    <path class="cls-6" d="M425.53,371.33c.17.15.23.36.19.65-.06.49-.55,2.2-1.47,5.12-.84,2.81-1.34,4.48-1.49,5-1.43,5.14-3.01,9.15-4.74,12.03-1.72,2.88-3.68,4.18-5.88,3.9-1.04-.14-1.84-.57-2.41-1.29-.57-.73-.79-1.61-.65-2.65.12-.96.47-1.91,1.04-2.85.57-.94,1.53-1.98,2.89-3.12,1.36-1.14,3.24-2.4,5.64-3.79l.18-.69c.24-.73.54-1.79.91-3.17-.6,1.41-1.31,2.45-2.15,3.12-.83.67-1.66.95-2.47.84-.92-.12-1.61-.64-2.08-1.56-.47-.92-.63-2.01-.46-3.28.2-1.53.48-2.92.85-4.16.37-1.25.88-2.55,1.54-3.92.28-.59.63-.99,1.03-1.2.4-.22,1-.27,1.79-.17.45.06.75.17.9.33.15.17.21.39.18.68-.02.16-.21.7-.55,1.61-.3.73-.55,1.39-.76,1.98-.27.81-.52,1.6-.74,2.34s-.37,1.37-.43,1.86c-.1.77.06,1.19.49,1.24.31.04.73-.22,1.26-.77.54-.55,1.15-1.42,1.83-2.59.68-1.18,1.38-2.64,2.11-4.39.24-.59.55-1,.92-1.22s.89-.29,1.57-.2c.47.06.79.16.95.31ZM414.81,393.56c.79-1.1,1.67-2.98,2.66-5.65-1.74,1.12-3.03,2.18-3.88,3.18-.85,1-1.32,1.91-1.43,2.72-.05.35-.02.64.09.88s.31.38.61.42c.51.07,1.16-.45,1.94-1.55Z"/>
    <path class="cls-6" d="M451.89,379.92c.11.28.14.63.08,1.04-.07.51-.19.89-.37,1.15-.18.26-.43.42-.75.48-1.28.27-2.65.34-4.13.21-.63,1.64-1.57,2.9-2.84,3.8-1.27.89-2.58,1.25-3.95,1.07-2.06-.27-3.45-1.25-4.19-2.94-.73-1.69-.91-4.02-.52-7,.34-2.63,1.04-5.44,2.09-8.45,1.05-3,2.35-5.5,3.88-7.51,1.53-2.01,3.17-2.9,4.9-2.67.94.12,1.64.62,2.1,1.5.46.88.62,1.96.45,3.24-.22,1.67-.75,3.29-1.6,4.86-.85,1.57-2.12,3.17-3.82,4.79,1.35.28,2.39.99,3.11,2.13.72,1.14,1.07,2.47,1.03,4,.96.06,2.13,0,3.5-.17.13-.02.27-.03.43,0,.26.04.45.19.56.48ZM442.27,383.86c.56-.46.98-1.19,1.28-2.16-.58-.51-.99-1.13-1.23-1.87-.25-.74-.32-1.49-.22-2.27.04-.29.13-.67.27-1.15h-.09c-.83-.12-1.59.2-2.25.95-.67.75-1.09,1.82-1.27,3.21-.15,1.16-.05,2.08.31,2.75.36.67.83,1.04,1.43,1.12.63.08,1.23-.11,1.78-.58ZM443.45,363.67c-.64,1.15-1.29,2.74-1.97,4.76-.68,2.03-1.28,4.26-1.8,6.7,1.67-2.29,3.02-4.33,4.07-6.1s1.67-3.4,1.86-4.87c.09-.65.07-1.16-.04-1.53-.11-.37-.29-.57-.56-.6-.41-.05-.93.49-1.57,1.65Z"/>
    <path class="cls-6" d="M449.2,387.46c-.64-1.01-.86-2.27-.66-3.75.21-1.63.79-3.12,1.73-4.48.94-1.36,2.1-2.4,3.47-3.12,1.37-.72,2.76-.99,4.16-.81.45.06.74.18.87.38.13.19.22.52.26.98.44-.03.89,0,1.36.05,1,.13,1.45.55,1.36,1.26-.06.43-.34,1.43-.85,3-.77,2.28-1.22,3.88-1.34,4.8-.04.31,0,.56.13.76.13.2.32.32.56.35.39.05.89-.14,1.5-.57.61-.43,1.46-1.14,2.55-2.14.28-.25.58-.36.88-.32.26.03.46.18.58.45.12.26.15.61.1,1.04-.11.82-.38,1.42-.83,1.82-.97.93-1.97,1.69-3,2.28-1.03.59-1.98.83-2.86.72-.67-.09-1.26-.4-1.76-.93-.5-.53-.84-1.21-1.02-2.04-1.28,1.57-2.73,2.26-4.34,2.05-1.26-.16-2.21-.75-2.85-1.77ZM454.93,385.66c.48-.48.86-1.14,1.16-1.99l1.86-5.47c-.86-.09-1.69.13-2.49.65-.8.53-1.48,1.27-2.05,2.23-.56.96-.91,2.02-1.06,3.16-.08.63-.02,1.12.2,1.45.22.34.55.54,1,.6.45.06.91-.15,1.39-.63Z"/>
    <path class="cls-6" d="M477.4,382.63c.28.36.38.77.32,1.24-.04.27-.13.54-.29.83-.42.71-.96,1.28-1.62,1.72-.66.43-1.34.6-2.05.51-.57-.07-1.03-.34-1.37-.8s-.47-1.03-.38-1.73c.05-.39.12-.8.22-1.24.08-.32.13-.54.15-.66.02-.17,0-.29-.06-.38-.06-.09-.14-.14-.24-.16-.29-.04-.72.25-1.29.87-.58.62-1.19,1.46-1.82,2.51-.64,1.06-1.19,2.19-1.65,3.39-.35.95-.69,1.57-1.02,1.86-.33.29-.82.39-1.47.31-.77-.1-1.27-.58-1.47-1.44-.21-.85-.2-2.18.03-3.97.34-2.65,1.05-5.12,2.11-7.4.26-.57.62-.96,1.07-1.18.45-.22,1.06-.28,1.81-.18.41.05.69.14.84.26.15.12.2.33.17.61-.04.33-.29,1.04-.74,2.14-.31.79-.57,1.48-.77,2.07-.2.6-.4,1.34-.6,2.22.9-1.66,1.84-2.99,2.82-3.98.98-.99,1.89-1.67,2.75-2.03.86-.37,1.61-.51,2.26-.42.59.08,1.02.3,1.3.68s.36.89.28,1.54c-.05.39-.26,1.11-.62,2.16l.28.04c.45.06.81.27,1.08.62Z"/>
  </g>
  <g>
    <path class="cls-6" d="M398.41,566.23c.12.08.19.19.22.35.05.25.02.48-.09.7-.11.22-.32.37-.64.44-.76.17-1.45.24-2.07.22-.4,1.56-1,2.9-1.78,4.03-.78,1.13-1.65,1.79-2.62,1.97-1,.19-1.85-.24-2.56-1.31s-1.26-2.58-1.64-4.55c-.33-1.68-.5-3.22-.52-4.61,0-.51.05-.88.17-1.08.12-.21.38-.35.76-.42.63-.12,1,.09,1.11.64.01.06.02.17.03.32.05,1.78.2,3.37.47,4.76.28,1.46.62,2.55,1.01,3.27s.83,1.02,1.32.93c.5-.1.97-.55,1.42-1.35.45-.8.82-1.77,1.11-2.91-.65-.25-1.19-.64-1.59-1.16-.41-.52-.69-1.16-.83-1.92s-.15-1.42-.02-1.98c.13-.57.38-1.02.74-1.36s.78-.55,1.28-.65c.61-.12,1.14,0,1.59.38.44.37.74.94.89,1.71.21,1.1.21,2.35-.02,3.74.52-.01,1.11-.08,1.76-.21.22-.04.39-.03.51.05ZM394.43,566.07c.17-1.14.18-2.07.05-2.76-.08-.4-.19-.69-.33-.85s-.3-.23-.48-.2c-.26.05-.44.24-.54.57s-.1.78,0,1.33c.18.94.62,1.57,1.31,1.91Z"/>
    <path class="cls-6" d="M398.75,571.69c-.62-.43-1.02-1.08-1.19-1.95-.15-.78-.13-1.48.07-2.13.19-.64.5-1.17.93-1.58s.91-.67,1.44-.77c.53-.1.97-.03,1.32.23s.58.63.67,1.11c.08.4.05.76-.07,1.07-.12.31-.33.5-.62.55-.18.04-.34.02-.46-.04-.13-.07-.2-.17-.23-.33-.01-.07-.02-.15-.02-.23s0-.15,0-.2c.02-.15.02-.29,0-.42-.02-.12-.07-.21-.15-.27s-.17-.07-.28-.05c-.22.04-.41.18-.56.41-.15.23-.25.53-.3.89-.05.36-.04.74.04,1.14.21,1.11.81,1.57,1.77,1.39.39-.08.79-.29,1.19-.64.4-.35.78-.83,1.11-1.44.09-.16.21-.25.35-.28.12-.02.23.02.33.12.09.1.16.25.2.45.07.36.04.68-.1.94-.34.64-.8,1.17-1.37,1.6-.57.42-1.15.69-1.73.8-.94.18-1.72.06-2.34-.37Z"/>
    <path class="cls-6" d="M411.3,566.88c.09.1.16.25.2.45.07.38.04.7-.1.94-.34.59-.71,1.1-1.11,1.51-.4.42-.9.68-1.49.79-.49.09-.88.03-1.19-.21-.3-.23-.51-.62-.61-1.16-.05-.27-.08-.76-.08-1.47,0-.63-.01-1.06-.05-1.29-.03-.15-.1-.22-.2-.2-.12.02-.27.22-.44.58-.17.36-.32.83-.44,1.4-.13.57-.21,1.16-.24,1.77-.03.8-.41,1.27-1.13,1.41-.29.06-.5-.01-.63-.2-.13-.19-.25-.55-.35-1.09-.06-.31-.1-.55-.13-.73l-.21-1.15c-.28-1.47-.43-3.04-.44-4.7s.18-3.09.56-4.29c.38-1.2.98-1.88,1.8-2.04.44-.09.83.03,1.18.36s.58.79.69,1.39c.19.97.1,2.02-.27,3.17-.36,1.15-1.05,2.54-2.05,4.17.07.5.15,1.02.25,1.54.16-.88.38-1.61.67-2.19.29-.59.6-1.03.94-1.32.34-.29.66-.47.98-.53.62-.12.99.13,1.11.75.07.37.1,1.07.07,2.08-.02.87,0,1.44.05,1.7.07.38.25.55.53.49.19-.04.4-.2.61-.48.22-.29.5-.73.83-1.35.09-.16.2-.25.35-.28.12-.02.23.02.33.12ZM404.56,559.56c-.12.53-.19,1.24-.22,2.11-.03.88-.02,1.82.05,2.83.46-.81.8-1.67,1.03-2.57.23-.9.28-1.68.15-2.35-.06-.31-.14-.53-.24-.68-.1-.15-.21-.21-.33-.19-.17.03-.32.32-.43.85Z"/>
    <path class="cls-6" d="M417.62,564.42c.09.11.15.26.19.45.09.46,0,.76-.26.9-.54.31-1.14.55-1.83.71-.03.84-.26,1.55-.7,2.14s-1,.95-1.68,1.08c-.57.11-1.09.07-1.55-.13-.46-.2-.84-.51-1.14-.93s-.5-.9-.6-1.43c-.14-.73-.13-1.4.04-2.03.17-.62.46-1.14.89-1.56.43-.41.94-.68,1.53-.79.73-.14,1.36,0,1.9.41.54.42.92.99,1.14,1.71.44-.12.96-.31,1.55-.6.07-.03.14-.06.2-.07.12-.02.23.02.32.13ZM413.89,567.63c.18-.29.26-.68.24-1.16-.34-.14-.61-.36-.83-.66-.22-.29-.37-.62-.44-.99-.03-.15-.05-.31-.05-.47h-.07c-.38.09-.67.33-.85.75s-.21.96-.08,1.63c.1.53.28.91.54,1.15.26.24.53.33.81.28.31-.06.55-.23.73-.53Z"/>
    <path class="cls-6" d="M422.82,566.89c.06.12.11.24.13.38.08.43-.14.7-.66.8-.3.06-.54.02-.73-.11-.19-.13-.4-.41-.62-.83l-.03-.06c-.28.52-.55.89-.81,1.09-.26.21-.58.35-.97.43-.58.11-1.11-.01-1.57-.37-.46-.36-.76-.89-.9-1.59-.15-.77-.12-1.51.08-2.22.2-.71.54-1.33,1.03-1.86.48-.53,1.07-.9,1.75-1.12-.17-1.84-.12-3.49.13-4.92s.81-2.24,1.66-2.41c.41-.08.79.04,1.14.36s.59.86.74,1.62c.2,1.05.18,2.33-.06,3.84-.25,1.51-.65,3.09-1.21,4.75.26.76.56,1.51.91,2.24ZM419.88,566.71c.15-.18.32-.5.52-.96-.23-.68-.42-1.39-.56-2.14-.06-.3-.1-.53-.12-.69-.5.25-.86.69-1.1,1.3-.24.61-.3,1.25-.17,1.91.13.7.44,1,.92.91.19-.04.36-.14.51-.32ZM421.06,557.8c.03,1.46.16,3.04.4,4.72.62-2.5.79-4.47.51-5.91-.07-.36-.16-.64-.26-.83-.1-.19-.19-.28-.28-.26-.28.05-.4.81-.37,2.28Z"/>
  </g>
  <path class="cls-4" d="M546.09,0h295.8v295.8h-56.69c-131.96,0-239.1-107.14-239.1-239.1V0h0Z"/>
  <g>
    <path class="cls-6" d="M153.75,492.5c-.5-.29-.81-.81-.93-1.57l-.02-.4c-.11-2.48-.18-5.08-.21-7.78-.03-2.7-.03-4.79.02-6.25l-2.66,1.2-.42.14c-.45.07-.83-.06-1.15-.37-.32-.32-.51-.7-.58-1.15v-.33c-.03-.46.05-.85.25-1.17.19-.32.61-.67,1.24-1.06.63-.39,1.6-.85,2.9-1.38l1.44-.58c.53-.2.97-.33,1.33-.38.69-.1,1.23,0,1.63.3.4.3.65.78.74,1.42.04.28.05.6.03.94-.1,1.91-.03,7.29.21,16.13.03,1.5-.7,2.36-2.19,2.59-.59.09-1.14,0-1.65-.3Z"/>
    <path class="cls-6" d="M179.33,485.44c.31.29.5.69.58,1.19.09.62-.02,1.2-.34,1.74-.32.55-.81.87-1.47.97-1.14.17-2.85.34-5.13.52-.45.04-1.29.12-2.51.23-1.22.11-2.17.22-2.86.32-.31.05-.74.22-1.3.52-.12.04-.34.14-.67.28s-.61.24-.85.28c-.38.06-.72-.07-1.02-.37-.3-.31-.5-.8-.61-1.49-.11-.76-.03-1.38.27-1.84.29-.47.79-.93,1.5-1.37,1.51-.96,2.89-2.09,4.16-3.41,1.27-1.32,2.24-2.69,2.91-4.1s.92-2.7.75-3.86c-.14-.93-.45-1.58-.93-1.95-.48-.38-1.17-.5-2.08-.36-1.04.16-1.84.57-2.38,1.23-.54.67-.74,1.51-.58,2.53.21,1.4-.38,2.21-1.78,2.42-.66.1-1.21-.01-1.63-.34-.42-.32-.69-.84-.8-1.55-.18-1.19-.04-2.32.43-3.41.47-1.09,1.27-2.03,2.41-2.82,1.14-.79,2.6-1.32,4.38-1.59,2.14-.32,3.89-.04,5.26.84,1.37.88,2.2,2.28,2.49,4.17.27,1.8-.23,3.81-1.51,6.02-1.28,2.21-3.29,4.3-6.03,6.26l8.13-1.37c.5-.08.9.03,1.21.33Z"/>
  </g>
  <path class="cls-6" d="M612.2,377.74c-.54,1.17-.77,2.81-.68,4.9.39-.78.87-1.37,1.44-1.77.57-.4,1.21-.67,1.94-.81.91-.17,1.76-.09,2.53.26.78.34,1.42.91,1.92,1.69.5.78.82,1.71.95,2.76.16,1.31.06,2.53-.3,3.67-.36,1.14-.96,2.1-1.81,2.88-.85.78-1.9,1.3-3.16,1.53-1.88.36-3.4-.11-4.57-1.4-1.17-1.29-1.91-3.25-2.23-5.86-.28-2.34-.21-4.47.2-6.39.41-1.92,1.14-3.49,2.18-4.71,1.04-1.22,2.33-1.98,3.88-2.27,1.4-.27,2.6-.08,3.6.57,1,.64,1.64,1.62,1.93,2.93l.07.37c.07.6-.02,1.09-.28,1.48-.26.39-.66.64-1.21.74-.4.08-.74,0-1.02-.21-.28-.22-.55-.63-.81-1.24-.2-.46-.49-.79-.86-1-.37-.21-.81-.27-1.32-.17-1.06.2-1.85.89-2.39,2.06ZM612.75,384.84c-.37.63-.5,1.41-.39,2.33.1.83.36,1.45.78,1.86s.96.56,1.62.43c.73-.14,1.28-.54,1.66-1.21.38-.67.51-1.48.39-2.42-.09-.78-.35-1.36-.77-1.75-.42-.39-.94-.53-1.56-.41-.78.15-1.36.54-1.73,1.17Z"/>
  <path class="cls-6" d="M764.23,390.24c-1.04,1.12-2.08,1.6-3.11,1.46-1.03-.15-2.21-.85-3.54-2.09l-.98-.91-2.49,2.29c-1.43,1.34-2.63,2.02-3.61,2.04-.98.01-2.04-.51-3.18-1.59-1.64-1.54-1.52-3.31.37-5.33.32-.34.58-.59.79-.75l2.36-2.06c-4.49-4.21-7.89-7.42-10.19-9.63-.68-.64-1-1.51-.94-2.63.06-1.11.55-2.16,1.48-3.16.55-.59,1.24-1.11,2.07-1.56,5.08-2.69,11.35-5.28,18.81-7.78,1.61-.53,2.92-.74,3.95-.63s2.17.77,3.45,1.96c.68.64,1.05,1.28,1.12,1.93s-.13,1.21-.6,1.71c-.49.53-1.14.91-1.94,1.14-8.23,2.7-14.57,5.18-19,7.43l7.16,6.71c3.07-2.54,6.15-4.8,9.24-6.79,1.15-.73,2.24-1.09,3.28-1.07s2.05.48,3.04,1.41c1.58,1.48,1.73,2.9.45,4.26-.38.4-.7.68-.96.84-3.02,2.11-6.09,4.39-9.2,6.84l1.67,1.57c1.64,1.54,1.81,3,.5,4.4Z"/>
  <path class="cls-2" d="M83.81,324.38s38.91-72.55.64-48.67c-26.64,21.92-14.58,50.52-2.64,37.05"/>
  <path class="cls-2" d="M655.68,123.07s85.96,112.56,75.78,35.62c-15.39-57.32-68.76-58.77-56.16-30.48"/>
  <g>
    <path class="cls-5" d="M127.14,291.89c.16.2.23.42.2.66-.05.39-.2.66-.44.81-.24.15-.6.18-1.07.08-1.06-.22-1.89-.39-2.49-.5-.6-.11-1.38-.23-2.36-.37-.73,2.13-1.42,4.28-2.07,6.45-.24.79-.5,1.71-.78,2.76-.28,1.05-.49,1.89-.62,2.54-.07.34-.25.59-.53.74-.29.15-.61.2-.98.15-.39-.05-.68-.19-.87-.4-.19-.22-.26-.48-.22-.79.04-.29.14-.75.32-1.4s.37-1.33.58-2.04c.22-.71.41-1.33.55-1.85.25-.89.51-1.77.8-2.64.28-.87.56-1.69.83-2.47.06-.17.13-.37.21-.6.08-.23.16-.48.26-.75-1.17-.12-2.1-.14-2.79-.07-.69.07-1.19.22-1.5.47s-.5.58-.56,1.03c-.05.41.02.81.21,1.21.04.09.05.18.04.28-.03.23-.19.42-.48.58-.29.16-.58.22-.87.19-.2-.03-.36-.11-.48-.24-.21-.23-.37-.55-.48-.94-.11-.4-.13-.83-.07-1.31.13-1.01.57-1.78,1.31-2.31s1.8-.85,3.19-.96c1.39-.11,3.14-.03,5.26.25,1.31.17,2.35.33,3.12.48.77.15,1.44.31,2.01.5.36.12.62.28.78.48Z"/>
    <path class="cls-5" d="M122.77,305.4c-.28-.5-.37-1.16-.26-1.97.12-.89.28-1.7.5-2.43.21-.73.51-1.49.9-2.29.17-.34.36-.58.6-.7.23-.13.58-.16,1.05-.1.26.03.44.1.53.2.09.1.12.23.1.39-.01.1-.12.41-.32.94-.18.42-.32.81-.44,1.16-.4,1.22-.63,2.04-.68,2.45-.03.25-.03.43.02.54.05.11.14.17.27.19.18.02.43-.13.75-.46.32-.33.68-.84,1.08-1.53s.8-1.54,1.21-2.54c.14-.34.32-.58.54-.71.22-.13.52-.17.91-.12.26.03.44.13.54.28s.12.36.09.64c-.04.3-.1.62-.2.98-.09.36-.2.72-.31,1.09-.22.75-.4,1.43-.56,2.04-.15.62-.28,1.32-.38,2.12-.06.45-.19.76-.4.94-.21.17-.52.23-.94.18-.44-.06-.73-.21-.87-.47-.14-.25-.17-.71-.08-1.38.02-.13.07-.42.15-.87-.31.81-.69,1.4-1.15,1.79-.46.39-.91.55-1.36.49-.56-.07-.98-.36-1.26-.86Z"/>
    <path class="cls-5" d="M135.51,307.03c-.12-.5-.12-1.27.02-2.32.2-1.55.61-2.99,1.23-4.32.15-.33.36-.56.63-.69.26-.13.62-.16,1.06-.11.24.03.4.08.49.16.09.07.12.19.1.36-.02.19-.17.61-.43,1.25-.18.46-.33.86-.45,1.21s-.23.78-.35,1.3c.53-.97,1.07-1.75,1.65-2.33.57-.58,1.11-.98,1.62-1.19.51-.21.95-.29,1.35-.24.77.1,1.11.54,1.01,1.31-.06.46-.3,1.29-.72,2.47-.36,1.01-.56,1.68-.61,2.01-.06.48.08.74.42.78.24.03.54-.08.9-.33s.86-.67,1.5-1.25c.16-.15.34-.21.51-.19.16.02.27.11.34.26.07.15.09.36.06.61-.06.48-.22.83-.48,1.06-.59.56-1.21,1.01-1.85,1.34-.64.33-1.34.44-2.09.35-.61-.08-1.04-.31-1.31-.71-.26-.39-.35-.92-.27-1.59.04-.33.2-.92.48-1.75.25-.73.4-1.24.43-1.52.02-.19-.03-.29-.16-.31-.15-.02-.4.15-.73.51-.33.36-.69.85-1.06,1.47s-.7,1.28-.97,1.98c-.2.54-.4.9-.6,1.07-.2.17-.48.24-.85.19-.45-.06-.74-.34-.86-.84Z"/>
    <path class="cls-5" d="M144.58,308.1c-.28-.59-.36-1.34-.24-2.25.07-.54.23-1.21.47-2.04.25-.82.52-1.58.83-2.28.16-.37.33-.61.53-.73.2-.12.49-.15.88-.1.61.08.88.32.83.73-.04.3-.24.97-.61,2.03-.46,1.27-.71,2.14-.77,2.6-.05.36-.03.64.04.84.07.2.22.32.44.35.21.03.5-.09.86-.34.36-.25.85-.67,1.47-1.24.16-.15.34-.21.51-.19.16.02.27.11.34.26s.09.36.06.61c-.06.48-.22.83-.48,1.06-1.37,1.29-2.56,1.86-3.58,1.73-.77-.1-1.3-.45-1.58-1.04ZM146.47,299.08c-.22-.27-.3-.61-.25-1.02.05-.42.26-.74.63-.98.36-.24.79-.32,1.28-.26.44.06.78.21,1.03.46.25.25.34.57.29.96-.06.48-.27.83-.61,1.07-.35.24-.77.33-1.29.26-.5-.06-.86-.23-1.08-.49Z"/>
    <path class="cls-5" d="M149.15,308.52c-.55-.74-.76-1.66-.61-2.74.13-.96.42-1.78.9-2.46.48-.68,1.04-1.17,1.7-1.48.66-.31,1.32-.43,1.99-.34.65.09,1.14.35,1.45.78.31.43.43.95.35,1.56-.06.5-.23.91-.5,1.22-.27.32-.58.45-.93.41-.23-.03-.4-.11-.52-.23-.12-.12-.17-.28-.15-.47.01-.08.03-.18.07-.28.04-.1.07-.18.08-.22.08-.17.13-.33.15-.49.02-.15,0-.28-.07-.37-.07-.09-.17-.15-.31-.17-.27-.04-.55.05-.82.27-.27.21-.5.52-.7.92-.2.4-.33.85-.39,1.35-.09.68-.02,1.21.22,1.6.23.39.61.61,1.12.68.4.05.79-.02,1.16-.21.37-.19.75-.5,1.15-.92.17-.16.34-.23.52-.21.15.02.27.11.34.26.07.15.09.36.06.61-.06.43-.21.78-.45,1.07-.39.46-.86.8-1.42,1.02s-1.18.29-1.86.2c-1.13-.15-1.97-.59-2.52-1.34ZM152.53,299.91c-.17-.24-.29-.6-.33-1.08l-.37-3.31c-.02-.15-.02-.28,0-.4.04-.3.17-.51.38-.65.22-.14.46-.19.74-.15.27.04.48.13.63.29.15.16.22.43.22.8v3.21s1.96-2.96,1.96-2.96c.23-.35.45-.57.67-.68.22-.1.45-.14.7-.11.25.03.44.12.58.25.13.13.19.31.16.52-.03.2-.12.41-.28.62l-2.45,3.18c-.26.34-.54.59-.83.74s-.62.2-.99.15c-.36-.05-.62-.19-.8-.43Z"/>
    <path class="cls-5" d="M160.7,310.3c-.12-.5-.12-1.27.02-2.32.2-1.55.61-2.99,1.23-4.32.15-.33.36-.56.63-.69.26-.13.62-.17,1.06-.11.24.03.4.08.49.16.09.07.12.19.1.36-.02.19-.17.61-.44,1.25-.18.46-.33.87-.45,1.21-.12.35-.23.78-.35,1.3.53-.97,1.07-1.75,1.65-2.33.57-.58,1.11-.98,1.62-1.19.51-.21.95-.29,1.35-.24.77.1,1.11.54,1.01,1.31-.06.46-.3,1.29-.72,2.47-.36,1-.56,1.67-.61,2.01-.06.48.08.74.42.78.24.03.54-.08.91-.33.37-.25.86-.67,1.5-1.25.16-.15.34-.21.51-.19.15.02.27.11.34.26s.09.36.06.61c-.06.48-.22.83-.48,1.06-.59.56-1.21,1.01-1.85,1.34-.64.33-1.34.44-2.09.35-.61-.08-1.04-.31-1.31-.71-.26-.39-.35-.92-.27-1.59.04-.33.2-.92.48-1.75.25-.73.4-1.24.43-1.52.02-.19-.03-.29-.16-.31-.15-.02-.4.15-.73.51-.33.36-.69.85-1.06,1.47s-.7,1.28-.97,1.98c-.2.54-.4.9-.6,1.07-.2.17-.48.24-.85.19-.45-.06-.74-.34-.86-.84Z"/>
    <path class="cls-5" d="M177.98,309.36c.07.15.09.36.06.61-.06.48-.22.83-.48,1.06-.51.48-1.2.89-2.06,1.24-.86.35-1.75.46-2.67.34-1.25-.16-2.17-.63-2.78-1.4-.6-.77-.83-1.74-.67-2.92.11-.82.38-1.56.82-2.23.44-.66.99-1.16,1.66-1.5.67-.34,1.39-.46,2.16-.35.69.09,1.22.37,1.58.83s.5,1.05.41,1.75c-.11.82-.49,1.49-1.16,2-.67.51-1.72.85-3.17,1.01.23.59.76.93,1.59,1.04.54.07,1.17-.04,1.9-.32.73-.29,1.39-.7,1.97-1.24.16-.15.34-.21.51-.19.15.02.27.11.34.26ZM172.26,306.54c-.37.47-.6,1.07-.7,1.8v.04c.72-.08,1.31-.25,1.75-.53.45-.28.7-.64.76-1.08.03-.23,0-.42-.12-.57-.11-.15-.27-.24-.48-.27-.44-.06-.85.15-1.22.62Z"/>
    <path class="cls-5" d="M187.08,310.54c.07.15.09.36.06.61-.06.48-.22.83-.48,1.06-.57.53-1.17.97-1.81,1.32s-1.24.48-1.81.41c-.9-.12-1.53-.74-1.86-1.86-.58.57-1.07.93-1.48,1.1-.4.17-.85.21-1.35.15-.73-.09-1.29-.44-1.69-1.04-.4-.6-.54-1.34-.43-2.21.12-.95.44-1.81.95-2.57.51-.76,1.15-1.36,1.93-1.78s1.61-.63,2.5-.61c.53-2.28,1.21-4.2,2.06-5.75.85-1.55,1.79-2.26,2.83-2.13.51.07.91.35,1.19.86.28.51.36,1.23.23,2.17-.17,1.33-.7,2.85-1.59,4.55-.89,1.7-2,3.42-3.34,5.16-.04.7,0,1.2.12,1.52.12.32.31.49.56.53.32.04.67-.06,1.04-.3.37-.24.88-.66,1.52-1.25.16-.15.34-.21.51-.19.16.02.27.11.34.26ZM179.91,311.41c.25-.16.58-.46.99-.92-.04-.66,0-1.39.1-2.18.04-.29.11-.75.22-1.39-.68.12-1.28.48-1.8,1.1-.52.62-.84,1.33-.94,2.16-.11.87.13,1.34.72,1.42.23.03.46-.03.71-.19ZM185.24,300.07c-.33.77-.66,1.8-.99,3.08-.33,1.28-.62,2.62-.88,4.02,1.71-2.73,2.68-4.98,2.91-6.74.06-.45.07-.81.02-1.07s-.12-.4-.23-.41c-.23-.03-.5.34-.84,1.12Z"/>
    <path class="cls-5" d="M185.62,313.45c-.37-.59-.5-1.32-.39-2.19.12-.95.46-1.82,1.01-2.62.55-.79,1.23-1.4,2.03-1.82.8-.42,1.61-.58,2.43-.47.26.03.43.11.51.22.08.11.13.3.15.57.26-.01.52,0,.79.03.58.08.85.32.79.74-.03.25-.2.83-.5,1.75-.45,1.33-.71,2.27-.78,2.8-.02.18,0,.33.08.45.08.12.18.19.33.21.23.03.52-.08.88-.33.36-.25.85-.67,1.49-1.25.16-.15.34-.21.51-.19.15.02.27.11.34.26.07.15.09.36.06.61-.06.48-.22.83-.48,1.06-.57.54-1.15.99-1.75,1.33s-1.16.48-1.67.42c-.39-.05-.74-.23-1.03-.54-.29-.31-.49-.71-.6-1.19-.75.92-1.59,1.32-2.53,1.2-.74-.1-1.29-.44-1.66-1.03ZM188.97,312.4c.28-.28.5-.67.68-1.16l1.09-3.2c-.5-.05-.99.07-1.46.38-.47.31-.87.74-1.2,1.31-.33.56-.53,1.18-.62,1.84-.05.37,0,.65.12.85.13.2.32.31.58.35.26.03.53-.09.81-.37ZM190.6,304.98c-.11-.14-.15-.3-.13-.48.01-.08.05-.19.13-.33l2.14-3.5c.14-.22.3-.38.49-.47.19-.09.39-.12.6-.09.3.04.55.18.75.42s.29.53.24.85c-.04.33-.22.65-.52.95l-2.69,2.66c-.18.18-.38.26-.61.23-.17-.02-.3-.1-.41-.24Z"/>
    <path class="cls-5" d="M203.39,310.96c.18.02.31.1.39.23.08.13.11.3.08.5-.05.37-.16.65-.33.84-.17.19-.4.31-.7.37-.57.11-1.17.12-1.78.04-.52-.07-1.01-.2-1.45-.41-.42.51-.87,1.04-1.37,1.58-.56.62-1.04,1.03-1.41,1.23-.38.2-.79.28-1.23.22-.49-.06-.85-.3-1.08-.72-.23-.42-.33-1.04-.29-1.87.07-1.68.19-3.15.35-4.4l.08-.63c.06-.39.21-.65.43-.78.22-.13.54-.17.94-.11.31.04.53.14.66.29s.18.4.13.72c-.18,1.37-.33,3.16-.44,5.37.85-.97,1.5-1.74,1.94-2.33-.13-.37-.17-.79-.11-1.27.05-.4.19-.79.42-1.14.23-.36.51-.63.85-.83.34-.2.71-.27,1.1-.22.35.04.61.2.79.47.18.27.24.64.18,1.1-.07.54-.29,1.13-.67,1.78.45.04,1.07.02,1.84-.03l.49-.03s.1,0,.18,0Z"/>
    <path class="cls-5" d="M202.2,315.61c-.37-.59-.5-1.32-.39-2.19.12-.95.46-1.82,1.01-2.62.55-.79,1.23-1.4,2.03-1.82s1.61-.58,2.43-.47c.26.03.43.11.51.22.08.11.13.3.15.57.26-.01.52,0,.79.03.58.08.85.32.79.74-.03.25-.2.83-.5,1.75-.45,1.33-.71,2.27-.78,2.8-.02.18,0,.33.08.45.08.12.18.19.33.21.23.03.52-.08.88-.33s.85-.67,1.49-1.25c.16-.15.34-.21.51-.19.15.02.27.11.34.26.07.15.09.36.06.61-.06.48-.22.83-.48,1.06-.57.54-1.15.99-1.75,1.33-.6.35-1.16.48-1.67.42-.39-.05-.74-.23-1.03-.54-.29-.31-.49-.71-.6-1.19-.75.92-1.59,1.32-2.53,1.2-.74-.1-1.29-.44-1.66-1.03ZM205.55,314.56c.28-.28.5-.67.68-1.16l1.09-3.2c-.5-.05-.99.07-1.46.38s-.87.74-1.2,1.31c-.33.56-.53,1.18-.62,1.84-.05.37,0,.65.12.85.13.2.32.31.58.35s.53-.09.81-.37Z"/>
    <path class="cls-5" d="M213.88,311.12c-.1.59-.17,1.05-.22,1.39-.11.86-.15,1.53-.13,2.03.03.49.13.86.31,1.09.18.24.46.38.82.42.19.03.42,0,.7-.09s.54-.21.77-.37c.15-.1.28-.14.42-.13.14.02.25.11.32.29.07.17.09.37.06.6-.03.23-.1.44-.22.64-.12.2-.27.36-.47.48-.69.43-1.42.59-2.21.49-1.13-.15-1.9-.73-2.3-1.74-.4-1.01-.5-2.28-.3-3.81.07-.52.15-1.05.26-1.58l-.7-.09c-.36-.05-.59-.14-.7-.29-.11-.15-.14-.36-.11-.65.09-.67.4-.96.93-.9l1.02.13c.37-1.28.84-2.44,1.4-3.47.56-1.03,1.17-1.83,1.85-2.39.67-.57,1.35-.8,2.03-.72.5.06.86.34,1.09.81.23.48.3,1.05.21,1.72-.24,1.84-1.22,3.35-2.95,4.52l2,.26c.19.02.32.08.39.18.07.09.09.25.06.48-.11.82-.83,1.14-2.18.97l-2.18-.28ZM216.03,304.71c-.28.42-.57,1.01-.87,1.78-.3.77-.58,1.62-.83,2.57.78-.52,1.4-1.13,1.85-1.84.45-.71.71-1.37.79-1.99.09-.7,0-1.07-.26-1.1-.18-.02-.41.17-.68.59ZM219.93,305.76c-.12-.14-.15-.33-.11-.57l.41-2.34c.06-.39.22-.66.48-.81.26-.15.54-.2.85-.16.29.04.51.15.67.35.16.2.22.46.18.78-.03.21-.08.4-.16.56l-.96,1.96c-.18.38-.48.54-.88.48-.2-.03-.36-.11-.48-.25Z"/>
    <path class="cls-5" d="M217.98,318.04c-.23-.32-.32-.71-.25-1.18.07-.54.28-.94.62-1.23.35-.28.79-.39,1.34-.32.52.07.9.25,1.14.54.23.29.32.69.25,1.19-.07.55-.28.96-.63,1.25-.35.29-.8.39-1.33.33-.52-.07-.9-.26-1.13-.58ZM219.77,314.21c-.14-.13-.2-.3-.17-.53l.04-.14c.38-1.31.85-2.79,1.41-4.45.57-1.66,1.08-3.08,1.54-4.28.29-.74.86-1.05,1.7-.94.76.1,1.11.39,1.05.88-.01.11-.05.22-.1.35-.47,1.22-1.08,2.69-1.83,4.42-.75,1.72-1.44,3.22-2.07,4.48-.18.36-.51.51-1,.45-.24-.03-.43-.11-.57-.24Z"/>
  </g>
  <g>
    <path class="cls-5" d="M671.91,210.07c-.61-.49-1.05-1.14-1.33-1.96-.28-.82-.35-1.75-.22-2.8.23-1.81.84-3.43,1.81-4.87s2.28-2.53,3.91-3.27c1.63-.74,3.51-.97,5.63-.69.55.07,1.13.19,1.74.35.61.17,1.17.36,1.66.6.32.14.46.4.41.78-.04.31-.19.59-.46.83-.27.24-.56.35-.87.3-.09-.01-.17-.03-.21-.05-.6-.22-1.12-.4-1.55-.52-.43-.12-.89-.22-1.38-.28-1.51-.2-2.84,0-4,.6-1.15.59-2.07,1.46-2.75,2.59-.68,1.13-1.11,2.4-1.29,3.79-.13,1.01-.03,1.82.29,2.43.33.6.81.95,1.45,1.03.73.09,1.4-.12,2.03-.64.62-.52,1.25-1.42,1.88-2.7.62-1.27,1.31-3.02,2.04-5.25.11-.32.29-.53.52-.62.23-.09.52-.11.88-.07.84.11,1.23.44,1.16.99-.01.1-.05.21-.1.35-.46,1.11-.91,2.35-1.35,3.72-.44,1.37-.71,2.41-.8,3.14-.08.64-.05,1.12.1,1.44.15.32.42.5.82.55.38.05.76-.03,1.14-.24.38-.21.87-.59,1.47-1.14.16-.15.34-.21.51-.19.15.02.27.11.34.26s.09.36.06.61c-.06.46-.22.82-.48,1.06-.67.63-1.32,1.09-1.92,1.38-.61.3-1.32.39-2.12.29-.83-.11-1.47-.44-1.92-.98-.45-.55-.68-1.27-.7-2.17-1.12,1.73-2.54,2.48-4.25,2.26-.82-.11-1.54-.41-2.14-.9Z"/>
    <path class="cls-5" d="M683.99,211.53c-.12-.5-.12-1.27.02-2.32.2-1.55.61-2.99,1.23-4.32.15-.33.36-.56.62-.69.26-.13.62-.17,1.06-.11.24.03.4.08.49.16.09.07.12.19.1.36-.03.19-.17.61-.43,1.25-.18.46-.33.87-.45,1.21-.12.35-.24.78-.35,1.3.53-.97,1.07-1.75,1.65-2.33.57-.58,1.11-.97,1.62-1.19.51-.21.96-.29,1.35-.24.77.1,1.11.54,1.01,1.31-.06.46-.3,1.29-.72,2.47-.36,1.01-.56,1.68-.61,2.01-.06.48.08.74.42.78.24.03.54-.08.91-.33.37-.25.86-.67,1.5-1.25.16-.15.34-.21.51-.19.15.02.27.11.34.26.07.15.09.36.06.61-.06.48-.22.83-.48,1.06-.59.56-1.21,1.01-1.85,1.34-.64.33-1.34.44-2.09.35-.61-.08-1.04-.31-1.31-.71s-.35-.92-.27-1.59c.04-.33.2-.92.48-1.75.25-.73.4-1.24.43-1.52.03-.19-.03-.29-.16-.31-.15-.02-.4.15-.73.51s-.69.85-1.06,1.47c-.38.62-.7,1.28-.97,1.98-.2.54-.41.9-.6,1.07-.2.17-.48.24-.85.19-.45-.06-.74-.34-.86-.84Z"/>
    <path class="cls-5" d="M692.43,213.12c-.12-.17-.16-.43-.12-.76.01-.09.05-.26.1-.5.47-2.15,1.05-4.09,1.72-5.82.14-.36.33-.59.57-.71.24-.12.6-.15,1.09-.08.51.07.74.31.69.73,0,.06-.03.17-.08.33-.87,2.48-1.47,4.57-1.8,6.28-.07.38-.22.63-.44.76-.22.13-.55.17-.98.11-.38-.05-.63-.16-.75-.33ZM695.07,203.6c-.22-.26-.3-.61-.25-1.02.05-.42.26-.74.63-.98.36-.24.79-.32,1.28-.26.44.06.78.21,1.03.46.25.25.34.57.29.96-.06.48-.27.83-.61,1.07s-.77.33-1.29.26c-.5-.06-.86-.23-1.08-.49Z"/>
    <path class="cls-5" d="M709.96,211.71c.07.15.09.36.06.61-.06.48-.22.83-.48,1.06-.59.56-1.22,1.01-1.88,1.33-.66.33-1.38.44-2.17.33-2.43-.32-3.42-2.18-2.97-5.6.07-.52.16-1.05.26-1.58l-.7-.09c-.36-.05-.59-.14-.7-.29-.11-.15-.14-.36-.11-.65.09-.67.4-.96.93-.89l1.02.13c.37-1.28.84-2.44,1.4-3.47s1.17-1.83,1.84-2.39c.67-.57,1.35-.8,2.03-.72.5.07.86.34,1.09.81.23.48.3,1.05.21,1.72-.24,1.84-1.22,3.35-2.95,4.52l2,.26c.19.02.32.08.39.18.07.09.09.25.06.48-.11.82-.83,1.14-2.18.97l-2.18-.28c-.1.59-.17,1.05-.22,1.39-.16,1.24-.13,2.12.1,2.66.23.54.66.85,1.29.93.51.07.98-.03,1.42-.29s.96-.66,1.57-1.21c.16-.15.34-.21.51-.19.15.02.27.11.34.26ZM707.1,201.75c-.28.42-.57,1.01-.87,1.78-.3.77-.58,1.62-.83,2.57.78-.51,1.4-1.13,1.84-1.84.45-.71.71-1.37.79-1.99.09-.7,0-1.07-.25-1.1-.18-.02-.41.17-.69.59Z"/>
    <path class="cls-5" d="M708.74,214.78c-.28-.5-.37-1.16-.26-1.97.12-.89.28-1.7.5-2.43.22-.73.51-1.49.9-2.29.17-.34.36-.58.6-.7.23-.13.58-.16,1.05-.1.26.03.44.1.53.2.09.1.12.23.1.4-.01.09-.12.41-.32.94-.18.42-.32.81-.44,1.16-.4,1.22-.63,2.04-.68,2.45-.03.25-.03.43.02.54.05.11.13.17.27.19.18.02.43-.13.75-.46.32-.33.68-.84,1.08-1.53.4-.69.8-1.54,1.21-2.54.14-.35.32-.58.54-.71.22-.13.52-.17.91-.12.26.03.44.13.54.28.1.15.12.36.09.64-.04.3-.11.62-.2.98-.09.36-.2.72-.31,1.09-.22.75-.4,1.43-.56,2.04-.15.62-.28,1.32-.38,2.12-.06.45-.19.76-.4.94-.21.17-.52.23-.94.18-.44-.06-.73-.21-.87-.47-.14-.25-.17-.71-.08-1.38.02-.13.07-.42.15-.87-.31.81-.69,1.4-1.15,1.79s-.91.55-1.36.49c-.56-.07-.98-.36-1.26-.86Z"/>
    <path class="cls-5" d="M716.9,216.1c-.23-.32-.32-.71-.25-1.18.07-.54.28-.94.62-1.23.34-.28.79-.39,1.34-.32.52.07.9.25,1.14.54.23.29.32.69.25,1.19-.07.55-.28.96-.63,1.25-.35.29-.8.4-1.33.33-.52-.07-.9-.26-1.13-.58ZM718.7,212.27c-.14-.13-.2-.3-.17-.53l.04-.14c.38-1.31.85-2.79,1.41-4.44.57-1.66,1.08-3.08,1.54-4.28.29-.74.86-1.05,1.7-.94.76.1,1.11.39,1.05.88-.01.11-.05.22-.1.35-.47,1.22-1.08,2.69-1.83,4.42-.75,1.72-1.44,3.22-2.07,4.48-.18.36-.51.51-1,.45-.24-.03-.43-.11-.57-.24Z"/>
    <path class="cls-5" d="M722.97,216.89c-.23-.32-.32-.71-.25-1.18.07-.54.28-.94.62-1.23.35-.28.79-.39,1.34-.32.52.07.9.25,1.14.54s.32.69.25,1.19c-.07.55-.28.96-.63,1.25s-.8.39-1.33.33c-.52-.07-.9-.26-1.13-.58ZM724.77,213.06c-.14-.13-.2-.3-.17-.53l.04-.14c.38-1.31.85-2.79,1.41-4.45.57-1.66,1.08-3.08,1.54-4.28.29-.74.86-1.05,1.7-.94.76.1,1.11.39,1.05.88-.01.11-.05.22-.1.35-.47,1.22-1.08,2.69-1.83,4.42-.75,1.72-1.43,3.22-2.07,4.48-.18.36-.51.51-1,.45-.24-.03-.43-.11-.57-.24Z"/>
  </g>
  <path class="cls-1" d="M260.77,523.51s-32.84-92.79-42.93-91.68-122.76,13.26-130.49,18.78,4.42,72.89,12.15,80.63,143.6-7.73,143.6-7.73"/>
  <path class="cls-1" d="M573.38,131.35s-7.76-89.47-18.79-88.37-327.99,4.96-336.86,12.97,8.15,111.36,12.78,111.96,316.33-17.78,324.08-24.96,13.06-26.75,13.06-26.75"/>
  <path class="cls-1" d="M555.67,270.89l89.47,6.31s37.56,177.74,20.99,205.41-70.69,30.25-86.16,19.02-16.57-244.3-16.57-244.3"/>
  <path class="cls-1" d="M700.37,289.35l7.73,159.06s46.39,25.41,66.28,5.52,17.67-155.74,0-149.67-64.07-6.63-64.07-6.63"/>
  <path class="cls-3" d="M328.87,595.28s-1.41-88.37,77.62-78.95,82.56,78.95,82.56,78.95l-148.41-5.92"/>
</svg>