<?xml version="1.0" encoding="utf-8"?>
<!-- Generator: Adobe Illustrator 28.3.0, SVG Export Plug-In . SVG Version: 6.00 Build 0)  -->
<svg version="1.1" id="Layer_1" xmlns="http://www.w3.org/2000/svg" xmlns:xlink="http://www.w3.org/1999/xlink" x="0px" y="0px"
	 viewBox="0 0 841.9 595.3" style="enable-background:new 0 0 841.9 595.3;" xml:space="preserve">
<style type="text/css">
	.st0{fill:#FFFFFF;}
	.st1{fill:#F7F0E7;}
	.st2{fill:#2C338D;}
	.st3{fill:none;stroke:#95257A;stroke-width:4;stroke-miterlimit:10;}
	.st4{fill:#95257A;}
	.st5{fill:none;stroke:#2C338D;stroke-width:4;stroke-linecap:round;stroke-linejoin:round;}
	.st6{fill:none;stroke:#2C338D;stroke-width:4;stroke-miterlimit:10;}
</style>
<polygon class="st0" points="841.9,595.3 679.1,595.3 0,595.3 0,0 841.9,0 841.9,541.2 "/>
<path class="st1" d="M546.1,0h295.8v295.8h-56.7c-132,0-239.1-107.1-239.1-239.1L546.1,0L546.1,0L546.1,0z"/>
<g>
	<path class="st2" d="M381.3,69.2c-0.8,1-2,1.8-3.4,2.4s-3.1,0.8-4.9,0.6l-1.8,5.6c-0.7,2.2-1.9,3.1-3.7,2.9c-1-0.1-1.8-0.5-2.6-1.2
		c-0.7-0.7-1.3-1.6-1.6-2.9c-0.3-1.2-0.4-2.7-0.2-4.4c0.4-3.2,1.3-5.9,2.6-8c1.3-2.1,3-3.6,4.9-4.5s3.9-1.2,6-0.9
		c1.5,0.2,2.7,0.6,3.7,1.3s1.7,1.5,2.1,2.4c0.4,1,0.5,2,0.4,3.1C382.7,66.9,382.2,68.1,381.3,69.2L381.3,69.2z M379.3,65.4
		c0.1-1.1-0.1-1.9-0.7-2.7c-0.6-0.8-1.6-1.2-3.1-1.4c-1.6-0.2-3.1,0.1-4.5,1c-1.4,0.9-2.5,2.2-3.4,3.9s-1.5,3.8-1.8,6.1
		c-0.1,1-0.1,1.9,0,2.7s0.3,1.4,0.5,1.9s0.5,0.7,0.8,0.8c0.4,0.1,0.8-0.5,1.1-1.5l1.4-4.4c-0.6-0.2-0.9-0.2-0.8-0.2
		c-0.5-0.1-0.8-0.3-0.9-0.6c-0.1-0.2-0.1-0.5-0.1-0.8c0-0.3,0.2-0.6,0.4-0.8s0.5-0.2,0.9-0.2c0.2,0,0.3,0,0.4,0.1
		c0.4,0.1,0.7,0.2,0.9,0.2c0.4-1.2,0.9-2.8,1.5-4.9c0.2-0.5,0.4-0.9,0.8-1.1s0.8-0.2,1.2-0.2c0.5,0.1,0.9,0.2,1.1,0.4
		c0.2,0.2,0.3,0.6,0.2,1c0,0.2-0.1,0.5-0.1,0.6l-1.4,4.5C377,69.8,378.9,68.3,379.3,65.4L379.3,65.4z"/>
	<path class="st2" d="M394,74.4c0.1,0.2,0.1,0.5,0.1,0.8c-0.1,0.8-0.4,1.2-0.9,1.3c-1,0.2-2.1,0.3-3.2,0.2c-0.5,1.3-1.2,2.3-2.2,3
		c-1,0.7-2,1-3.2,0.8c-1-0.1-1.7-0.5-2.4-1c-0.6-0.6-1-1.2-1.3-2s-0.3-1.7-0.2-2.5c0.2-1.2,0.5-2.2,1.1-3.1s1.3-1.5,2.2-2
		s1.8-0.6,2.8-0.4c1.2,0.2,2.1,0.7,2.8,1.6s0.9,2,0.9,3.2c0.8,0.1,1.7,0,2.7-0.1c0.1,0,0.2,0,0.3,0C393.8,74,393.9,74.2,394,74.4
		L394,74.4z M386.6,77.4c0.4-0.4,0.8-0.9,1-1.7c-0.5-0.4-0.8-0.9-1-1.5c-0.2-0.6-0.2-1.2-0.2-1.8c0-0.2,0.1-0.5,0.2-0.8l-0.1,0
		c-0.6-0.1-1.2,0.2-1.7,0.7s-0.8,1.4-1,2.5c-0.1,0.9,0,1.6,0.2,2.1c0.3,0.5,0.6,0.8,1.1,0.8C385.7,78,386.1,77.8,386.6,77.4
		L386.6,77.4z M386.8,67.4c-0.1-0.2-0.2-0.4-0.2-0.6c0-0.1,0.1-0.3,0.2-0.4l2.9-4.7c0.2-0.3,0.4-0.5,0.6-0.6
		c0.2-0.1,0.5-0.2,0.8-0.1c0.4,0.1,0.7,0.2,1,0.6s0.4,0.7,0.3,1.1c-0.1,0.4-0.3,0.9-0.7,1.3l-3.6,3.5c-0.2,0.2-0.5,0.3-0.8,0.3
		C387.1,67.7,386.9,67.6,386.8,67.4L386.8,67.4z"/>
	<path class="st2" d="M405.9,77.9c0.1,0.2,0.1,0.5,0.1,0.8c-0.1,0.6-0.3,1.1-0.6,1.4c-0.8,0.7-1.6,1.3-2.4,1.8
		c-0.9,0.5-1.7,0.6-2.4,0.5c-1.2-0.2-2-1-2.5-2.5c-0.8,0.8-1.4,1.2-2,1.5s-1.1,0.3-1.8,0.2c-1-0.1-1.7-0.6-2.2-1.4s-0.7-1.8-0.6-2.9
		c0.2-1.3,0.6-2.4,1.3-3.4s1.5-1.8,2.6-2.4s2.1-0.8,3.3-0.8c0.7-3,1.6-5.6,2.8-7.7c1.1-2.1,2.4-3,3.8-2.8c0.7,0.1,1.2,0.5,1.6,1.2
		s0.5,1.6,0.3,2.9c-0.2,1.8-0.9,3.8-2.1,6.1c-1.2,2.3-2.7,4.6-4.5,6.9c-0.1,0.9,0,1.6,0.2,2s0.4,0.7,0.7,0.7
		c0.4,0.1,0.9-0.1,1.4-0.4s1.2-0.9,2-1.7c0.2-0.2,0.5-0.3,0.7-0.2C405.7,77.6,405.8,77.7,405.9,77.9L405.9,77.9z M396.4,79.1
		c0.3-0.2,0.8-0.6,1.3-1.2c0-0.9,0-1.8,0.1-2.9c0-0.4,0.1-1,0.3-1.8c-0.9,0.2-1.7,0.6-2.4,1.5c-0.7,0.8-1.1,1.8-1.3,2.9
		c-0.1,1.2,0.2,1.8,1,1.9C395.7,79.4,396,79.3,396.4,79.1L396.4,79.1z M403.5,64c-0.4,1-0.9,2.4-1.3,4.1s-0.8,3.5-1.2,5.4
		c2.3-3.6,3.6-6.6,3.9-9c0.1-0.6,0.1-1.1,0-1.4c-0.1-0.3-0.2-0.5-0.3-0.6C404.3,62.4,403.9,62.9,403.5,64L403.5,64z"/>
	<path class="st2" d="M404.3,81.8c-0.4-0.8-0.5-1.8-0.3-3c0.1-0.7,0.3-1.6,0.6-2.7s0.7-2.1,1.1-3c0.2-0.5,0.4-0.8,0.7-1
		c0.3-0.2,0.7-0.2,1.2-0.1c0.8,0.1,1.2,0.4,1.1,1c0,0.4-0.3,1.3-0.8,2.7c-0.6,1.7-1,2.8-1,3.5c-0.1,0.5,0,0.8,0,1.1
		c0.1,0.3,0.3,0.4,0.6,0.5c0.3,0,0.7-0.1,1.1-0.5s1.1-0.9,2-1.7c0.2-0.2,0.5-0.3,0.7-0.2c0.2,0,0.4,0.1,0.5,0.3
		c0.1,0.2,0.1,0.5,0.1,0.8c-0.1,0.6-0.3,1.1-0.6,1.4c-1.8,1.7-3.4,2.5-4.8,2.3C405.4,83.1,404.7,82.6,404.3,81.8L404.3,81.8z
		 M406.8,69.8c-0.3-0.3-0.4-0.8-0.3-1.4s0.4-1,0.8-1.3c0.5-0.3,1-0.4,1.7-0.3c0.6,0.1,1,0.3,1.4,0.6s0.5,0.8,0.4,1.3
		c-0.1,0.6-0.4,1.1-0.8,1.4c-0.5,0.3-1,0.4-1.7,0.3C407.6,70.4,407.1,70.1,406.8,69.8L406.8,69.8z"/>
	<path class="st2" d="M410.2,82.7c-0.4-0.7-0.5-1.6-0.4-2.6c0.1-1.2,0.4-2.3,0.7-3.2c0.3-1,0.7-2,1.2-3.1c0.2-0.5,0.5-0.8,0.8-0.9
		s0.8-0.2,1.4-0.1c0.4,0,0.6,0.1,0.7,0.3s0.2,0.3,0.1,0.5c0,0.1-0.2,0.5-0.4,1.2c-0.2,0.6-0.4,1.1-0.6,1.5c-0.5,1.6-0.8,2.7-0.9,3.3
		c0,0.3,0,0.6,0,0.7s0.2,0.2,0.4,0.2c0.2,0,0.6-0.2,1-0.6c0.4-0.4,0.9-1.1,1.4-2s1.1-2.1,1.6-3.4c0.2-0.5,0.4-0.8,0.7-0.9
		s0.7-0.2,1.2-0.2c0.4,0.1,0.6,0.1,0.7,0.2s0.2,0.3,0.1,0.5c0,0.4-0.4,1.5-1,3.2c-0.7,2-1.1,3.2-1.2,3.7c0,0.3,0,0.5,0.1,0.7
		c0.1,0.2,0.3,0.3,0.5,0.3c0.3,0,0.7-0.1,1.2-0.4c0.5-0.3,1.1-0.9,2-1.7c0.2-0.2,0.5-0.3,0.7-0.2c0.2,0,0.4,0.1,0.5,0.3
		c0.1,0.2,0.1,0.5,0.1,0.8c-0.1,0.6-0.3,1.1-0.6,1.4c-0.8,0.8-1.6,1.3-2.5,1.8c-0.9,0.4-1.8,0.6-2.8,0.5c-0.8-0.1-1.3-0.5-1.6-1.1
		s-0.4-1.5-0.2-2.5c-0.4,1-0.9,1.8-1.5,2.3c-0.6,0.5-1.2,0.7-1.9,0.6C411.1,83.8,410.6,83.4,410.2,82.7L410.2,82.7z"/>
	<path class="st2" d="M420.9,84.1c-0.2-0.7-0.1-1.7,0-3.1c0.3-2.1,0.8-4,1.6-5.8c0.2-0.4,0.5-0.8,0.8-0.9c0.4-0.2,0.8-0.2,1.4-0.1
		c0.3,0,0.5,0.1,0.6,0.2s0.2,0.2,0.1,0.5c0,0.2-0.2,0.8-0.6,1.7c-0.2,0.6-0.4,1.2-0.6,1.6c-0.2,0.5-0.3,1-0.5,1.7
		c0.6-1.2,1.2-2.2,1.9-2.9c0.7-0.8,1.4-1.3,2.1-1.7s1.3-0.5,1.9-0.4c0.5,0.1,0.9,0.2,1.1,0.5s0.3,0.7,0.2,1.2
		c-0.1,0.5-0.3,1.4-0.8,2.7c-0.2,0.6-0.3,1-0.4,1.2c0.7-1.3,1.4-2.3,2.2-3c0.8-0.8,1.5-1.3,2.1-1.6c0.7-0.3,1.3-0.4,1.8-0.3
		c0.5,0.1,0.9,0.2,1.1,0.5c0.2,0.3,0.3,0.7,0.2,1.2c0,0.4-0.2,1.2-0.6,2.3c-0.3,0.9-0.5,1.8-0.7,2.7s-0.4,1.8-0.5,2.9
		c-0.1,0.6-0.3,1-0.5,1.2s-0.7,0.3-1.2,0.2c-0.5-0.1-0.9-0.2-1.1-0.6c-0.2-0.3-0.3-0.7-0.2-1.3c0.1-0.6,0.3-1.7,0.7-3.1
		c0.4-1.2,0.6-2,0.6-2.4c0-0.2,0-0.4-0.2-0.4c-0.2,0-0.5,0.2-1,0.7s-0.9,1.1-1.4,2s-0.9,1.7-1.3,2.6c-0.3,0.7-0.5,1.2-0.8,1.4
		c-0.3,0.2-0.6,0.3-1.2,0.2c-0.5-0.1-0.9-0.4-1.1-0.9c-0.2-0.5-0.2-1.2-0.2-1.9c0.1-0.6,0.3-1.5,0.6-2.6c0.3-1,0.4-1.7,0.5-2
		c0-0.2,0-0.4-0.2-0.4c-0.2,0-0.6,0.2-1,0.7s-0.9,1.2-1.3,2.1c-0.5,0.8-0.8,1.7-1.2,2.5c-0.3,0.7-0.5,1.2-0.8,1.4
		c-0.3,0.2-0.6,0.3-1.1,0.2C421.4,85.2,421,84.8,420.9,84.1L420.9,84.1z"/>
</g>
<g>
	<path class="st2" d="M305,216.6c-0.4,1.1-0.4,2.6,0,4.4c0.3-0.8,0.8-1.4,1.3-1.8c0.6-0.5,1.2-0.8,2-1.1c1-0.3,1.9-0.4,2.8-0.3
		c0.9,0.2,1.7,0.5,2.4,1.1c0.7,0.6,1.2,1.3,1.5,2.2c0.4,1.1,0.4,2.2,0.2,3.3c-0.2,1.1-0.7,2-1.6,2.9c-0.8,0.8-1.9,1.5-3.2,1.9
		c-2,0.7-3.8,0.6-5.2-0.4c-1.5-0.9-2.6-2.5-3.3-4.7c-0.7-2-0.9-3.9-0.8-5.6c0.2-1.8,0.7-3.3,1.7-4.5c1-1.3,2.3-2.2,3.9-2.7
		c1.5-0.5,2.8-0.6,4-0.2c1.2,0.4,2.1,1.1,2.6,2.2l0.1,0.3c0.2,0.5,0.1,1-0.1,1.3c-0.2,0.4-0.6,0.7-1.2,0.9c-0.4,0.1-0.8,0.1-1.1,0
		c-0.3-0.1-0.7-0.4-1.1-0.9c-0.3-0.4-0.7-0.6-1.1-0.7c-0.4-0.1-0.9-0.1-1.5,0.1C306.2,214.7,305.4,215.5,305,216.6L305,216.6z
		 M306.7,222.7c-0.3,0.6-0.3,1.3-0.1,2.1c0.2,0.7,0.6,1.2,1.1,1.5c0.5,0.3,1.1,0.3,1.8,0.1c0.8-0.3,1.3-0.7,1.6-1.4
		c0.3-0.7,0.3-1.4,0.1-2.2c-0.2-0.7-0.6-1.1-1.1-1.4c-0.5-0.3-1.1-0.3-1.8-0.1C307.6,221.6,307,222,306.7,222.7L306.7,222.7z"/>
	<path class="st2" d="M332.9,215.7c0.2,0.7,0.2,1.3-0.1,1.7c-0.3,0.4-0.9,0.7-1.7,1l-0.6,0.2l0.4,1.6c0.2,0.9,0.3,1.6,0,2
		c-0.2,0.4-0.7,0.7-1.4,1c-1,0.3-1.8-0.1-2.2-1.4c-0.1-0.2-0.1-0.4-0.1-0.5l-0.3-1.5c-2.8,0.9-5,1.6-6.4,2.1
		c-0.4,0.1-0.9,0.1-1.3-0.2c-0.5-0.3-0.8-0.7-1-1.4c-0.1-0.4-0.2-0.8-0.2-1.2c0-2.8,0.4-6,1-9.8c0.1-0.8,0.4-1.4,0.6-1.8
		c0.3-0.4,0.8-0.7,1.6-1c0.4-0.1,0.8-0.2,1.1,0c0.3,0.1,0.5,0.3,0.6,0.6c0.1,0.3,0.1,0.7,0,1.1c-0.7,4.1-1.2,7.4-1.2,9.8l4.5-1.5
		c-0.4-1.9-0.6-3.7-0.8-5.5c0-0.7,0.1-1.2,0.3-1.6c0.2-0.4,0.7-0.8,1.3-1c1-0.3,1.6-0.1,1.9,0.8c0.1,0.3,0.1,0.5,0.1,0.6
		c0.2,1.8,0.5,3.6,0.8,5.5l1.1-0.4C332,214.6,332.6,214.8,332.9,215.7L332.9,215.7z"/>
	<path class="st2" d="M342.9,213.2c-0.2-0.5-0.3-1.1-0.4-1.6c-0.5-2.1-0.9-4.7-1.3-7.9c-0.4-3.1-0.8-6.2-1.1-9
		c-0.1-0.8,0-1.5,0.3-1.9c0.3-0.4,0.7-0.8,1.4-1c0.6-0.2,1-0.2,1.4-0.1c0.3,0.1,0.6,0.4,0.7,0.8c0,0.1,0.1,0.4,0.1,0.8l0.1,0.9
		c0.4,4.2,0.7,7.3,0.9,9.3c0.2,2,0.4,3.8,0.7,5.4c0.2,1.3,0.5,2.5,0.8,3.5c0.3,0.8,0.7,1.2,1.2,1c0.4-0.1,0.7-0.5,1.1-1.2
		c0.4-0.7,0.8-1.7,1.4-3c0.1-0.3,0.4-0.6,0.7-0.7c0.3-0.1,0.5,0,0.7,0.2c0.2,0.2,0.4,0.5,0.5,0.9c0.3,0.8,0.3,1.4,0,2
		c-0.5,1.3-1.1,2.5-1.7,3.4c-0.6,0.9-1.5,1.6-2.5,1.9C345.6,217.5,344,216.3,342.9,213.2L342.9,213.2z M345.6,194.3
		c-0.3-0.1-0.5-0.4-0.6-0.8l-1.1-3.9c-0.2-0.7-0.2-1.2,0.1-1.6c0.3-0.4,0.7-0.7,1.2-0.9c0.5-0.2,0.9-0.1,1.3,0
		c0.4,0.2,0.7,0.5,0.9,1.1c0.1,0.4,0.2,0.7,0.2,1l0,3.7c0,0.7-0.3,1.2-1,1.4C346.2,194.4,345.9,194.4,345.6,194.3L345.6,194.3z"/>
	<path class="st2" d="M352,214c-0.8-0.6-1.4-1.5-1.8-2.8c-0.5-1.5-0.8-2.8-1-4.1c-0.2-1.3-0.3-2.7-0.3-4.2c0-0.7,0.1-1.2,0.4-1.5
		c0.3-0.4,0.8-0.7,1.5-0.9c0.4-0.1,0.7-0.2,1-0.1s0.4,0.3,0.5,0.5c0.1,0.2,0.1,0.7,0.2,1.7c0,0.8,0.1,1.5,0.2,2.1
		c0.3,2.2,0.5,3.6,0.8,4.3c0.1,0.4,0.3,0.7,0.4,0.8c0.2,0.1,0.3,0.2,0.6,0.1c0.3-0.1,0.6-0.5,0.8-1.2c0.2-0.7,0.4-1.8,0.5-3.1
		s0.1-3,0-4.9c0-0.6,0.1-1.1,0.3-1.5c0.2-0.4,0.7-0.6,1.3-0.9c0.4-0.2,0.8-0.2,1-0.1c0.2,0.1,0.4,0.2,0.5,0.5
		c0.2,0.5,0.4,1.9,0.6,4.3c0.3,2.7,0.5,4.3,0.7,4.9c0.1,0.4,0.3,0.6,0.5,0.8c0.2,0.2,0.5,0.2,0.7,0.1c0.4-0.1,0.8-0.5,1.2-1.2
		c0.4-0.7,0.8-1.7,1.4-3c0.1-0.3,0.4-0.6,0.7-0.7c0.3-0.1,0.5,0,0.7,0.2c0.2,0.2,0.4,0.5,0.5,0.9c0.3,0.8,0.3,1.4,0,2
		c-0.5,1.3-1.1,2.5-1.9,3.4c-0.7,1-1.7,1.7-3,2.1c-0.9,0.3-1.7,0.2-2.4-0.4c-0.7-0.6-1.2-1.5-1.7-2.8c0.1,1.4,0,2.6-0.5,3.5
		c-0.4,0.9-1,1.5-1.8,1.8C353.7,214.8,352.8,214.6,352,214L352,214z"/>
	<path class="st2" d="M380.2,199c0.2,0.2,0.4,0.5,0.5,0.9c0.3,0.8,0.3,1.4,0,2c-0.5,1.2-1.1,2.4-1.8,3.4s-1.6,1.7-2.5,2
		c-1.5,0.5-2.9,0-4.3-1.5c-0.5,1.3-1,2.2-1.5,2.8c-0.5,0.6-1.2,1-2,1.2c-1.2,0.4-2.3,0.3-3.4-0.4c-1.1-0.6-1.8-1.7-2.3-3.1
		c-0.5-1.6-0.7-3.1-0.5-4.7c0.2-1.5,0.8-3,1.6-4.2c0.9-1.2,2-2.2,3.4-2.8c-0.9-3.9-1.3-7.4-1.1-10.4s1.1-4.8,2.8-5.4
		c0.8-0.3,1.7-0.1,2.5,0.4c0.8,0.6,1.5,1.6,2,3.2c0.7,2.2,1,4.9,0.9,8.2c-0.1,3.3-0.5,6.8-1.3,10.4c0.5,1.1,0.9,1.9,1.3,2.3
		c0.4,0.4,0.8,0.5,1.2,0.4c0.5-0.2,1-0.6,1.4-1.2c0.4-0.6,0.9-1.7,1.4-3.1c0.1-0.3,0.4-0.6,0.7-0.7
		C379.7,198.8,379.9,198.8,380.2,199L380.2,199z M369.8,205.7c0.3-0.4,0.5-1.1,0.8-2.2c-0.5-1-1-2.1-1.5-3.4
		c-0.2-0.5-0.4-1.2-0.7-2.3c-1,0.7-1.6,1.7-2,3c-0.3,1.3-0.3,2.7,0.1,4c0.5,1.4,1.2,2,2.2,1.6C369.2,206.4,369.5,206.1,369.8,205.7z
		 M369.5,184.2c0.1,1.4,0.3,3.3,0.8,5.5c0.5,2.2,1,4.5,1.7,6.9c0.6-5.5,0.4-9.7-0.5-12.5c-0.2-0.7-0.5-1.3-0.8-1.7
		c-0.3-0.4-0.5-0.5-0.7-0.5C369.6,182,369.4,182.8,369.5,184.2L369.5,184.2z"/>
	<path class="st2" d="M379.9,205.7c-0.3-0.2-0.6-0.5-0.7-1.1c-0.1-0.2-0.1-0.4-0.2-0.8c-0.9-3.7-1.4-7.1-1.7-10.3
		c0-0.7,0.1-1.2,0.4-1.5c0.3-0.4,0.8-0.7,1.6-0.9c0.8-0.3,1.4-0.1,1.6,0.6c0,0.1,0.1,0.3,0.1,0.6c0.5,4.5,1.2,8.1,1.9,11
		c0.2,0.6,0.1,1.1-0.1,1.5s-0.7,0.7-1.4,0.9C380.7,205.8,380.2,205.8,379.9,205.7L379.9,205.7z M377.8,189c-0.3-0.1-0.5-0.4-0.6-0.6
		c0-0.1-0.1-0.3,0-0.6l0.7-7c0.1-0.4,0.2-0.8,0.4-1.1c0.2-0.3,0.5-0.5,0.9-0.6c0.5-0.2,1-0.1,1.5,0.1c0.5,0.2,0.8,0.6,1,1.1
		c0.2,0.5,0.2,1.2-0.1,1.8l-2.2,6.1c-0.1,0.4-0.4,0.7-0.8,0.8C378.3,189.1,378.1,189.1,377.8,189L377.8,189z"/>
	<path class="st2" d="M329.3,251c0.3,0.2,0.5,0.5,0.7,0.9c0.2,0.5,0.1,1,0,1.5c-0.2,0.5-0.6,0.9-1.1,1L324,256l1.1,5.6
		c0.1,0.5,0,1-0.3,1.4c-0.3,0.4-0.6,0.7-1.1,0.8c-0.4,0.2-0.9,0.1-1.2,0c-0.4-0.2-0.6-0.5-0.7-1.1l-1.1-5.6l-4.7,1.6
		c-0.4,0.2-0.8,0.1-1.2-0.1c-0.3-0.2-0.6-0.5-0.7-0.9c-0.2-0.5-0.1-1,0-1.5c0.2-0.5,0.6-0.8,1.1-1l4.8-1.6l-1.1-5.6
		c-0.1-0.5,0-1,0.2-1.3c0.3-0.4,0.6-0.7,1.1-0.8s0.9-0.1,1.3,0c0.4,0.2,0.7,0.5,0.8,1l1.1,5.6l4.8-1.6
		C328.6,250.8,329,250.8,329.3,251L329.3,251z"/>
	<path class="st2" d="M345.7,254.6c-1.4-0.7-2.4-2-3-3.8c-0.5-1.6-0.7-3.1-0.4-4.5c0.2-1.4,0.7-2.6,1.5-3.6c0.8-1,1.7-1.6,2.8-2
		c1.1-0.4,2-0.3,2.8,0.1c0.8,0.4,1.4,1.1,1.7,2.1c0.3,0.8,0.3,1.6,0.2,2.3c-0.2,0.7-0.6,1.1-1.1,1.3c-0.4,0.1-0.7,0.1-1,0
		c-0.3-0.1-0.5-0.3-0.6-0.6c0-0.1-0.1-0.3-0.1-0.5c0-0.2,0-0.3,0-0.4c0-0.3,0-0.6-0.1-0.9c-0.1-0.2-0.2-0.4-0.4-0.5
		c-0.2-0.1-0.4-0.1-0.6,0c-0.4,0.2-0.8,0.5-1.1,1c-0.3,0.5-0.4,1.2-0.4,1.9c0,0.8,0.1,1.5,0.4,2.4c0.7,2.3,2.1,3.1,4.1,2.4
		c0.8-0.3,1.6-0.8,2.3-1.7c0.7-0.8,1.4-2,1.9-3.3c0.1-0.3,0.4-0.6,0.7-0.7c0.3-0.1,0.5,0,0.7,0.2c0.2,0.2,0.4,0.5,0.5,0.9
		c0.2,0.7,0.3,1.4,0,2c-0.5,1.4-1.3,2.7-2.4,3.7c-1.1,1-2.2,1.8-3.4,2.2C348.8,255.5,347.1,255.4,345.7,254.6L345.7,254.6z"/>
	<path class="st2" d="M355.8,251.6c-1-0.6-1.8-1.7-2.2-3.1c-0.5-1.6-0.7-3.2-0.4-4.8c0.3-1.6,0.8-3.1,1.8-4.3
		c0.9-1.3,2.1-2.1,3.4-2.5c0.4-0.1,0.7-0.2,0.9,0s0.4,0.4,0.7,0.8c0.4-0.2,0.8-0.4,1.2-0.5c1-0.3,1.5-0.1,1.8,0.5
		c0.1,0.4,0.3,1.4,0.5,3.1c0.3,2.4,0.6,4,0.9,4.9c0.1,0.3,0.2,0.5,0.4,0.6c0.2,0.1,0.4,0.2,0.7,0.1c0.4-0.1,0.7-0.5,1.1-1.2
		c0.4-0.7,0.8-1.7,1.4-3c0.1-0.3,0.4-0.6,0.7-0.7c0.2-0.1,0.5,0,0.7,0.2c0.2,0.2,0.4,0.5,0.5,0.9c0.3,0.8,0.3,1.4,0,2
		c-0.5,1.3-1,2.4-1.7,3.4s-1.4,1.6-2.3,1.9c-0.6,0.2-1.3,0.2-2-0.1c-0.7-0.3-1.3-0.7-1.8-1.4c-0.5,2-1.5,3.2-3,3.7
		C357.9,252.4,356.8,252.2,355.8,251.6L355.8,251.6z M360.2,247.5c0.2-0.6,0.3-1.4,0.2-2.3l-0.7-5.7c-0.8,0.3-1.5,0.9-2,1.7
		s-0.8,1.8-0.9,2.9c-0.1,1.1,0,2.2,0.4,3.3c0.2,0.6,0.5,1,0.8,1.2c0.3,0.2,0.7,0.2,1.2,0.1C359.7,248.5,360,248.1,360.2,247.5
		L360.2,247.5z"/>
	<path class="st2" d="M380.8,237.7c0.2,0.2,0.4,0.5,0.5,0.9c0.3,0.8,0.3,1.4,0,2c-0.5,1.3-1.1,2.5-1.9,3.5c-0.8,1-1.8,1.7-3.1,2.1
		c-4,1.3-6.9-0.8-8.8-6.4c-0.3-0.9-0.6-1.7-0.8-2.6l-1.1,0.4c-0.6,0.2-1,0.2-1.3,0.1s-0.5-0.4-0.6-0.9c-0.4-1.1-0.1-1.8,0.8-2.1
		l1.7-0.6c-0.4-2.3-0.5-4.4-0.4-6.4c0.1-2,0.4-3.7,1.1-5.1c0.6-1.4,1.5-2.2,2.6-2.6c0.8-0.3,1.6-0.1,2.3,0.4
		c0.7,0.6,1.2,1.4,1.6,2.5c1,3,0.6,6.1-1.2,9.2l3.3-1.1c0.3-0.1,0.6-0.1,0.7,0c0.2,0.1,0.3,0.3,0.5,0.7c0.5,1.3-0.4,2.4-2.6,3.1
		l-3.6,1.2c0.3,1,0.5,1.8,0.7,2.3c0.7,2,1.4,3.4,2.1,4c0.8,0.7,1.6,0.8,2.7,0.5c0.8-0.3,1.5-0.8,2-1.5s1-1.7,1.5-3
		c0.1-0.3,0.4-0.6,0.7-0.7C380.4,237.5,380.6,237.5,380.8,237.7L380.8,237.7z M369,224.5c-0.1,0.8-0.1,2,0,3.4s0.3,2.9,0.6,4.6
		c0.8-1.4,1.3-2.8,1.5-4.2c0.2-1.4,0.1-2.6-0.3-3.7c-0.4-1.1-0.8-1.7-1.2-1.5C369.3,223.2,369.1,223.7,369,224.5L369,224.5z"/>
	<path class="st2" d="M392.3,233.9c0.2,0.2,0.4,0.5,0.5,0.9c0.3,0.8,0.3,1.4,0,2c-0.4,1.1-1.2,2.3-2.2,3.4c-1.1,1.2-2.4,2-3.9,2.5
		c-2,0.7-3.8,0.6-5.3-0.1c-1.5-0.7-2.6-2.1-3.2-4c-0.5-1.3-0.6-2.7-0.4-4c0.2-1.4,0.7-2.5,1.4-3.6c0.8-1,1.8-1.7,3.1-2.2
		c1.1-0.4,2.1-0.3,3,0.1c0.9,0.4,1.5,1.2,1.9,2.4c0.5,1.3,0.4,2.7-0.3,3.9c-0.6,1.3-2,2.6-4.1,3.9c0.8,0.7,1.9,0.9,3.2,0.4
		c0.9-0.3,1.8-0.9,2.7-1.9c0.9-1,1.6-2.1,2.1-3.4c0.1-0.3,0.4-0.6,0.7-0.7C391.9,233.6,392.1,233.7,392.3,233.9L392.3,233.9z
		 M381.4,233.8c-0.2,1-0.1,2.1,0.3,3.3l0,0.1c1.1-0.7,1.8-1.4,2.3-2.1c0.5-0.8,0.6-1.5,0.4-2.2c-0.1-0.4-0.3-0.6-0.6-0.8
		c-0.3-0.2-0.6-0.2-0.9-0.1C382.1,232.2,381.7,232.8,381.4,233.8L381.4,233.8z"/>
	<path class="st2" d="M392.4,239.6c-0.6-0.7-1.1-1.9-1.7-3.6c-0.8-2.5-1.3-5.1-1.3-7.6c0-0.6,0.1-1.1,0.4-1.5c0.3-0.4,0.8-0.7,1.5-1
		c0.4-0.1,0.7-0.2,0.9-0.1c0.2,0,0.3,0.2,0.4,0.5c0.1,0.3,0.2,1.1,0.3,2.2c0.1,0.8,0.1,1.6,0.2,2.2c0.1,0.6,0.2,1.4,0.4,2.3
		c0.1-1.9,0.4-3.5,0.8-4.8c0.5-1.3,1-2.3,1.6-3c0.6-0.7,1.2-1.2,1.9-1.4c1.3-0.4,2.1,0,2.5,1.3c0.1,0.3,0.2,0.9,0.3,1.9
		c0.1,0.8,0.2,1.3,0.3,1.5c0.2,0.7,0.6,0.9,1.1,0.8c0.5-0.2,1.1-0.8,1.7-2c0.2-0.3,0.4-0.6,0.7-0.6c0.3-0.1,0.5,0,0.7,0.1
		s0.4,0.4,0.5,0.8c0.2,0.7,0.2,1.4,0,1.9c-0.4,0.8-0.8,1.4-1.4,2.1c-0.6,0.6-1.3,1.1-2.1,1.4c-1,0.3-1.9,0.3-2.6,0
		c-0.7-0.4-1.2-1-1.5-1.9c-0.1-0.3-0.2-0.6-0.2-0.9c-0.1-0.4-0.2-0.7-0.2-0.8c-0.1-0.3-0.3-0.4-0.5-0.4c-0.3,0.1-0.6,0.6-0.8,1.4
		c-0.3,0.8-0.4,1.8-0.6,3.1c-0.1,1.2-0.1,2.5,0,3.8c0.1,1,0.1,1.7-0.1,2.1c-0.2,0.4-0.6,0.7-1.2,0.9
		C393.7,240.5,393,240.3,392.4,239.6L392.4,239.6z"/>
	<path class="st2" d="M406,234.9c-0.9-0.7-1.6-1.8-2.1-3.3c-0.3-0.9-0.6-2-0.8-3.5c-0.2-1.5-0.4-2.8-0.4-4.1c0-0.7,0.1-1.2,0.3-1.5
		c0.2-0.3,0.6-0.6,1.3-0.8c1-0.3,1.6-0.2,1.8,0.5c0.2,0.5,0.4,1.7,0.6,3.6c0.2,2.3,0.5,3.8,0.7,4.6c0.2,0.6,0.4,1,0.7,1.3
		c0.3,0.3,0.6,0.3,0.9,0.2c0.4-0.1,0.7-0.5,1.1-1.2c0.4-0.7,0.8-1.7,1.3-3c0.1-0.3,0.4-0.6,0.7-0.7c0.3-0.1,0.5,0,0.7,0.2
		c0.2,0.2,0.4,0.5,0.5,0.9c0.3,0.8,0.3,1.4,0,2c-1.1,3-2.6,4.8-4.2,5.3C407.9,235.7,406.8,235.6,406,234.9L406,234.9z M402.2,219.6
		c-0.5-0.2-0.9-0.7-1.1-1.4c-0.2-0.7-0.1-1.3,0.2-2c0.4-0.6,1-1.1,1.8-1.4c0.7-0.2,1.4-0.3,1.9-0.1c0.6,0.2,1,0.6,1.2,1.3
		c0.3,0.8,0.2,1.5-0.1,2.1c-0.4,0.6-1,1.1-1.8,1.4C403.4,219.8,402.7,219.8,402.2,219.6L402.2,219.6z"/>
	<path class="st2" d="M412.9,232.8c-0.6-0.7-1.1-1.9-1.7-3.6c-0.8-2.5-1.3-5.1-1.3-7.6c0-0.6,0.1-1.1,0.4-1.5c0.3-0.4,0.8-0.7,1.5-1
		c0.4-0.1,0.7-0.2,0.9-0.1c0.2,0,0.3,0.2,0.4,0.5c0.1,0.3,0.2,1.1,0.3,2.2c0.1,0.8,0.1,1.6,0.2,2.2c0.1,0.6,0.2,1.4,0.4,2.3
		c0.1-1.9,0.4-3.5,0.8-4.8c0.5-1.3,1-2.3,1.6-3c0.6-0.7,1.2-1.2,1.9-1.4c1.3-0.4,2.1,0,2.5,1.3c0.3,0.8,0.5,2.2,0.7,4.3
		c0.2,1.8,0.4,3,0.6,3.5c0.3,0.8,0.7,1.1,1.2,0.9c0.4-0.1,0.8-0.5,1.2-1.2c0.4-0.7,0.8-1.7,1.4-3c0.1-0.3,0.4-0.6,0.7-0.7
		c0.3-0.1,0.5,0,0.7,0.2c0.2,0.2,0.4,0.5,0.5,0.9c0.3,0.8,0.3,1.4,0,2c-0.5,1.3-1.1,2.5-1.9,3.4c-0.7,1-1.7,1.7-3,2.1
		c-1,0.3-1.8,0.3-2.5-0.1c-0.7-0.4-1.2-1.2-1.6-2.2c-0.2-0.5-0.4-1.6-0.6-3.1c-0.2-1.3-0.3-2.2-0.5-2.7c-0.1-0.3-0.3-0.4-0.5-0.4
		c-0.3,0.1-0.5,0.5-0.7,1.3c-0.2,0.8-0.4,1.8-0.5,3.1c-0.1,1.2-0.1,2.5,0,3.8c0.1,1,0.1,1.7-0.1,2.1s-0.6,0.7-1.2,0.9
		C414.1,233.6,413.5,233.4,412.9,232.8L412.9,232.8z"/>
	<path class="st2" d="M434,213c0.2,0.1,0.4,0.3,0.6,0.8c0.1,0.2,0.1,0.4,0.2,0.6c0.1,0.6,0.4,2.3,0.8,4.9c0.3,1.8,0.5,3,0.6,3.5
		c0.9,5.3,1.3,9.6,1,12.9c-0.3,3.3-1.5,5.4-3.6,6.1c-1,0.3-1.9,0.3-2.7-0.1c-0.8-0.4-1.4-1.1-1.7-2.1c-0.5-1.4-0.4-3.1,0.2-5
		c0.6-2,2-4.6,4.2-7.9l-0.2-1.2c-0.2,0.6-0.5,1.2-0.9,1.6c-0.4,0.5-0.9,0.8-1.4,1c-1.2,0.4-2.3,0.3-3.3-0.4c-1-0.6-1.8-1.7-2.2-3.1
		c-0.5-1.6-0.7-3.2-0.4-4.8c0.3-1.6,0.8-3.1,1.8-4.3s2.1-2.1,3.4-2.5c0.4-0.1,0.7-0.2,0.9,0c0.2,0.1,0.4,0.4,0.7,0.8
		c0.3-0.2,0.8-0.4,1.2-0.5C433.4,213,433.8,213,434,213L434,213z M434,236.5c0.2-1.4,0.2-3.4-0.1-6.2c-1.1,1.8-1.8,3.3-2.1,4.6
		c-0.3,1.3-0.3,2.3-0.1,3.1c0.1,0.3,0.3,0.6,0.5,0.8c0.2,0.2,0.4,0.2,0.7,0.1C433.4,238.7,433.8,237.9,434,236.5L434,236.5z
		 M432,223.5c0.2-0.7,0.3-1.6,0.1-2.6l-0.7-5.3c-0.8,0.3-1.4,0.8-1.9,1.7c-0.5,0.8-0.8,1.8-0.9,2.9c-0.1,1.1,0.1,2.2,0.4,3.3
		c0.2,0.6,0.5,1,0.8,1.2c0.3,0.2,0.7,0.2,1.2,0.1C431.4,224.6,431.7,224.2,432,223.5L432,223.5z"/>
	<path class="st2" d="M341,286.1c0.3,0.2,0.5,0.5,0.7,0.9c0.2,0.5,0.1,1,0,1.5c-0.2,0.5-0.6,0.8-1.1,1l-4.8,1.6l1.1,5.6
		c0.1,0.5,0,1-0.3,1.4c-0.3,0.4-0.6,0.7-1.1,0.8c-0.4,0.2-0.9,0.1-1.2,0c-0.4-0.2-0.6-0.5-0.7-1.1l-1.1-5.6l-4.7,1.6
		c-0.4,0.2-0.8,0.1-1.2-0.1c-0.3-0.2-0.6-0.5-0.7-0.9c-0.2-0.5-0.1-1,0-1.5c0.2-0.5,0.6-0.8,1.1-1l4.8-1.6l-1.1-5.6
		c-0.1-0.5,0-1,0.2-1.3c0.3-0.4,0.6-0.7,1.1-0.8c0.4-0.2,0.9-0.1,1.3,0c0.4,0.2,0.7,0.5,0.8,1l1.1,5.6l4.8-1.6
		C340.3,285.9,340.7,285.9,341,286.1L341,286.1z"/>
	<path class="st2" d="M357.4,289.7c-1.4-0.7-2.4-2-3-3.8c-0.5-1.6-0.7-3.1-0.4-4.5c0.2-1.4,0.7-2.6,1.5-3.6c0.8-1,1.7-1.6,2.8-2
		c1.1-0.4,2-0.3,2.8,0.1c0.8,0.4,1.4,1.1,1.7,2.1c0.3,0.8,0.3,1.6,0.2,2.3c-0.2,0.7-0.6,1.1-1.1,1.3c-0.4,0.1-0.7,0.1-1,0
		c-0.3-0.1-0.5-0.3-0.6-0.6c0-0.1-0.1-0.3-0.1-0.5c0-0.2,0-0.3,0-0.4c0-0.3,0-0.6-0.1-0.9c-0.1-0.2-0.2-0.4-0.4-0.5
		c-0.2-0.1-0.4-0.1-0.6,0c-0.4,0.2-0.8,0.5-1.1,1s-0.4,1.2-0.4,1.9c0,0.8,0.1,1.5,0.4,2.4c0.7,2.3,2.1,3.1,4.1,2.4
		c0.8-0.3,1.6-0.8,2.3-1.7c0.7-0.8,1.4-2,1.9-3.3c0.1-0.3,0.4-0.6,0.7-0.7c0.3-0.1,0.5,0,0.7,0.2c0.2,0.2,0.4,0.5,0.5,0.9
		c0.2,0.7,0.3,1.4,0,2c-0.5,1.4-1.3,2.7-2.4,3.7c-1.1,1-2.2,1.8-3.4,2.2C360.4,290.5,358.8,290.5,357.4,289.7L357.4,289.7z"/>
	<path class="st2" d="M367.5,286.7c-1-0.6-1.8-1.7-2.2-3.1c-0.5-1.6-0.7-3.2-0.4-4.8c0.3-1.6,0.8-3.1,1.8-4.3
		c0.9-1.2,2.1-2.1,3.4-2.5c0.4-0.1,0.7-0.2,0.9,0c0.2,0.1,0.4,0.4,0.7,0.8c0.4-0.2,0.8-0.4,1.2-0.5c1-0.3,1.5-0.1,1.8,0.5
		c0.1,0.4,0.3,1.4,0.5,3.1c0.3,2.4,0.6,4,0.9,4.9c0.1,0.3,0.2,0.5,0.4,0.6c0.2,0.1,0.4,0.1,0.7,0.1c0.4-0.1,0.7-0.5,1.1-1.2
		c0.4-0.7,0.8-1.7,1.4-3c0.1-0.3,0.4-0.6,0.7-0.7c0.3-0.1,0.5,0,0.7,0.2c0.2,0.2,0.4,0.5,0.5,0.9c0.3,0.8,0.3,1.4,0,2
		c-0.5,1.3-1,2.4-1.7,3.4c-0.7,1-1.4,1.6-2.3,1.9c-0.6,0.2-1.3,0.2-2-0.1c-0.7-0.3-1.3-0.7-1.8-1.4c-0.5,2-1.5,3.2-3,3.7
		C369.6,287.5,368.5,287.4,367.5,286.7L367.5,286.7z M371.9,282.6c0.2-0.6,0.3-1.4,0.2-2.3l-0.7-5.7c-0.8,0.3-1.5,0.9-2,1.7
		c-0.5,0.8-0.8,1.8-0.9,2.9c-0.1,1.1,0.1,2.2,0.4,3.3c0.2,0.6,0.5,1,0.8,1.2c0.3,0.2,0.7,0.2,1.2,0.1S371.7,283.2,371.9,282.6
		L371.9,282.6z"/>
	<path class="st2" d="M381.1,282.3c-0.6-0.7-1.1-1.9-1.7-3.6c-0.8-2.5-1.3-5.1-1.3-7.6c0-0.6,0.1-1.1,0.4-1.5c0.3-0.4,0.8-0.7,1.6-1
		c0.4-0.1,0.7-0.2,0.9-0.1c0.2,0,0.3,0.2,0.4,0.5c0.1,0.3,0.2,1.1,0.3,2.2c0.1,0.8,0.1,1.6,0.2,2.2c0.1,0.6,0.2,1.4,0.4,2.3
		c0.1-1.9,0.4-3.5,0.8-4.8c0.5-1.3,1-2.3,1.6-3c0.6-0.7,1.2-1.2,1.9-1.4c1.3-0.4,2.1,0,2.5,1.3c0.3,0.8,0.5,2.2,0.7,4.3
		c0.2,1.8,0.4,3,0.6,3.5c0.3,0.8,0.7,1.1,1.2,0.9c0.4-0.1,0.8-0.5,1.2-1.2s0.8-1.7,1.4-3c0.1-0.3,0.4-0.6,0.7-0.7
		c0.3-0.1,0.5,0,0.7,0.2c0.2,0.2,0.4,0.5,0.5,0.9c0.3,0.8,0.3,1.4,0,2c-0.5,1.3-1.1,2.5-1.9,3.4c-0.7,1-1.7,1.7-3,2.1
		c-1,0.3-1.8,0.3-2.5-0.1c-0.7-0.4-1.2-1.2-1.6-2.3c-0.2-0.5-0.4-1.6-0.6-3.1c-0.2-1.3-0.3-2.2-0.5-2.7c-0.1-0.3-0.3-0.4-0.5-0.4
		c-0.3,0.1-0.5,0.5-0.7,1.3c-0.2,0.8-0.4,1.8-0.5,3.1c-0.1,1.2-0.1,2.5,0,3.8c0.1,1,0.1,1.7-0.1,2.1c-0.2,0.4-0.6,0.7-1.2,0.9
		C382.3,283.2,381.7,283,381.1,282.3L381.1,282.3z"/>
	<path class="st2" d="M410.6,266.8c0.2,0.2,0.4,0.5,0.5,0.9c0.3,0.8,0.3,1.4,0,2c-0.5,1.2-1.1,2.4-1.8,3.4c-0.7,1-1.6,1.7-2.5,2
		c-1.5,0.5-2.9,0-4.3-1.5c-0.5,1.3-1,2.2-1.5,2.8c-0.5,0.6-1.2,1-2,1.2c-1.2,0.4-2.3,0.3-3.4-0.4c-1.1-0.6-1.8-1.7-2.3-3.1
		c-0.5-1.6-0.7-3.1-0.5-4.7c0.2-1.5,0.8-2.9,1.6-4.2s2-2.2,3.4-2.8c-0.9-3.9-1.3-7.4-1.1-10.4c0.1-3,1.1-4.8,2.8-5.4
		c0.8-0.3,1.7-0.1,2.5,0.4c0.8,0.6,1.5,1.6,2,3.2c0.7,2.2,1,4.9,0.9,8.2c-0.1,3.3-0.5,6.8-1.3,10.4c0.5,1.1,0.9,1.9,1.3,2.3
		s0.8,0.5,1.2,0.4c0.5-0.2,1-0.6,1.4-1.2c0.4-0.6,0.9-1.7,1.4-3.1c0.1-0.3,0.4-0.6,0.7-0.7C410.1,266.6,410.4,266.7,410.6,266.8
		L410.6,266.8z M400.2,273.5c0.3-0.4,0.5-1.1,0.8-2.2c-0.5-1-1-2.1-1.5-3.4c-0.2-0.5-0.4-1.2-0.7-2.3c-1,0.7-1.6,1.7-2,3
		c-0.3,1.3-0.3,2.7,0.2,4c0.5,1.4,1.2,2,2.2,1.6C399.6,274.2,400,273.9,400.2,273.5L400.2,273.5z M400,252c0.1,1.4,0.3,3.3,0.8,5.5
		c0.5,2.2,1,4.5,1.7,6.9c0.6-5.5,0.4-9.7-0.5-12.5c-0.2-0.7-0.5-1.3-0.8-1.7c-0.3-0.4-0.5-0.5-0.7-0.5
		C400,249.8,399.9,250.6,400,252L400,252z"/>
	<path class="st2" d="M417.2,256.5c0.2,0.1,0.4,0.2,0.5,0.5c0.2,0.5,0.5,2.2,0.9,5.2c0.5,2.9,0.7,4.6,0.8,5.1c1,5.2,1.3,9.5,1,12.9
		c-0.3,3.3-1.5,5.4-3.6,6.1c-1,0.3-1.9,0.3-2.7-0.1c-0.8-0.4-1.4-1.1-1.7-2.1c-0.3-0.9-0.4-1.9-0.3-3c0.1-1.1,0.5-2.4,1.2-4.1
		c0.7-1.6,1.9-3.6,3.4-5.9l-0.1-0.7c-0.1-0.8-0.3-1.8-0.6-3.2c0.1,1.5-0.1,2.8-0.6,3.7c-0.5,1-1.1,1.6-1.9,1.8
		c-0.9,0.3-1.7,0.1-2.6-0.5c-0.8-0.6-1.4-1.5-1.8-2.8c-0.5-1.5-0.8-2.8-1-4.1c-0.2-1.3-0.3-2.7-0.3-4.2c0-0.7,0.1-1.2,0.4-1.5
		c0.3-0.4,0.8-0.7,1.5-0.9c0.4-0.1,0.7-0.2,1-0.1c0.2,0.1,0.4,0.3,0.5,0.5c0.1,0.2,0.1,0.7,0.2,1.7c0,0.8,0.1,1.5,0.2,2.1
		c0.1,0.8,0.2,1.7,0.4,2.4c0.1,0.8,0.3,1.4,0.4,1.9c0.2,0.7,0.6,1,1,0.9c0.3-0.1,0.6-0.5,0.8-1.2c0.2-0.7,0.4-1.8,0.5-3.1
		c0.1-1.4,0.1-3,0-4.9c0-0.6,0.1-1.1,0.3-1.5c0.2-0.4,0.7-0.6,1.3-0.9C416.6,256.5,417,256.4,417.2,256.5L417.2,256.5z M417.2,281.2
		c0.2-1.3,0.2-3.4-0.1-6.2c-1.1,1.8-1.8,3.3-2.1,4.6c-0.3,1.3-0.4,2.3-0.1,3.1c0.1,0.3,0.3,0.6,0.5,0.8c0.2,0.2,0.4,0.2,0.7,0.1
		C416.6,283.3,417,282.5,417.2,281.2L417.2,281.2z"/>
	<path class="st2" d="M444.7,252.8c0.2,0.2,0.4,0.5,0.5,0.9c0.2,0.5,0.2,0.9,0.2,1.2c0,0.3-0.2,0.6-0.5,0.8c-1,0.8-2.2,1.5-3.6,2
		c0.1,1.8-0.1,3.3-0.9,4.7c-0.8,1.4-1.8,2.2-3.1,2.7c-2,0.7-3.6,0.4-5.1-0.8c-1.4-1.2-2.6-3.2-3.5-6.1c-0.8-2.5-1.4-5.3-1.8-8.5
		c-0.4-3.2-0.3-6,0.2-8.5c0.5-2.5,1.6-4,3.2-4.5c0.9-0.3,1.7-0.2,2.5,0.4c0.8,0.6,1.4,1.5,1.8,2.7c0.5,1.6,0.8,3.3,0.7,5.1
		c-0.1,1.8-0.5,3.8-1.4,6c1.3-0.3,2.6-0.2,3.7,0.6c1.1,0.7,2,1.8,2.7,3.2c0.9-0.4,1.9-0.9,3.1-1.7c0.1-0.1,0.2-0.1,0.4-0.2
		C444.2,252.5,444.4,252.6,444.7,252.8L444.7,252.8z M437.7,260.5c0.3-0.7,0.4-1.5,0.2-2.5c-0.7-0.2-1.4-0.6-1.9-1.1
		c-0.5-0.6-0.9-1.2-1.2-1.9c-0.1-0.3-0.2-0.7-0.3-1.2l-0.1,0c-0.8,0.3-1.3,0.9-1.6,1.8c-0.3,1-0.2,2.1,0.3,3.4
		c0.4,1.1,0.9,1.9,1.5,2.3c0.6,0.4,1.2,0.6,1.8,0.4C437,261.6,437.4,261.2,437.7,260.5L437.7,260.5z M430,241.8
		c-0.1,1.3,0,3,0.3,5.1c0.3,2.1,0.7,4.4,1.3,6.8c0.5-2.8,0.8-5.2,1-7.3s0-3.8-0.4-5.2c-0.2-0.6-0.4-1.1-0.7-1.4
		c-0.3-0.3-0.5-0.4-0.8-0.3C430.3,239.8,430.1,240.5,430,241.8L430,241.8z"/>
	<path class="st2" d="M445.5,260.7c-1-0.6-1.8-1.7-2.2-3.1c-0.5-1.6-0.6-3.2-0.4-4.8c0.3-1.6,0.8-3.1,1.8-4.3
		c0.9-1.2,2.1-2.1,3.4-2.5c0.4-0.1,0.7-0.2,0.9,0c0.2,0.1,0.4,0.4,0.7,0.8c0.4-0.2,0.8-0.4,1.2-0.5c1-0.3,1.5-0.1,1.8,0.5
		c0.1,0.4,0.3,1.4,0.5,3.1c0.3,2.4,0.6,4,0.9,4.9c0.1,0.3,0.2,0.5,0.4,0.6c0.2,0.1,0.4,0.1,0.7,0.1c0.4-0.1,0.7-0.5,1.1-1.2
		c0.4-0.7,0.8-1.7,1.4-3c0.1-0.3,0.4-0.6,0.7-0.7c0.2-0.1,0.5,0,0.7,0.2c0.2,0.2,0.4,0.5,0.5,0.9c0.3,0.8,0.3,1.4,0,2
		c-0.5,1.3-1,2.4-1.7,3.4c-0.7,1-1.4,1.6-2.3,1.9c-0.6,0.2-1.3,0.2-2-0.1c-0.7-0.3-1.3-0.7-1.8-1.4c-0.5,2-1.5,3.2-3,3.7
		C447.7,261.5,446.6,261.4,445.5,260.7L445.5,260.7z M449.9,256.6c0.2-0.6,0.3-1.4,0.2-2.3l-0.7-5.7c-0.8,0.3-1.5,0.9-2,1.7
		c-0.5,0.8-0.8,1.8-0.9,2.9c-0.1,1.1,0.1,2.2,0.4,3.3c0.2,0.6,0.5,1,0.8,1.2c0.3,0.2,0.7,0.2,1.2,0.1S449.7,257.2,449.9,256.6
		L449.9,256.6z"/>
	<path class="st2" d="M468.8,244.1c0.4,0.2,0.7,0.5,0.8,1c0.1,0.3,0.1,0.5,0.1,0.9c-0.1,0.8-0.3,1.6-0.7,2.3
		c-0.4,0.7-0.9,1.1-1.6,1.4c-0.5,0.2-1.1,0.1-1.6-0.1c-0.5-0.3-0.9-0.7-1.1-1.4c-0.1-0.4-0.2-0.8-0.3-1.2c-0.1-0.3-0.1-0.5-0.2-0.7
		c-0.1-0.2-0.1-0.3-0.2-0.3c-0.1-0.1-0.2-0.1-0.3,0c-0.3,0.1-0.5,0.5-0.8,1.3c-0.3,0.8-0.4,1.8-0.5,3.1c-0.1,1.2-0.1,2.5,0,3.8
		c0.1,1,0.1,1.7-0.1,2.1c-0.2,0.4-0.6,0.7-1.2,0.9c-0.7,0.2-1.4,0-2-0.7c-0.6-0.7-1.1-1.9-1.7-3.6c-0.8-2.5-1.3-5.1-1.3-7.6
		c0-0.6,0.1-1.1,0.4-1.5c0.3-0.4,0.8-0.7,1.6-1c0.4-0.1,0.7-0.2,0.9-0.1c0.2,0,0.3,0.2,0.4,0.5c0.1,0.3,0.2,1.1,0.3,2.2
		c0.1,0.8,0.1,1.6,0.2,2.2c0.1,0.6,0.2,1.4,0.4,2.3c0.1-1.9,0.4-3.5,0.8-4.8c0.5-1.3,1-2.3,1.6-3c0.6-0.7,1.2-1.2,1.9-1.4
		c0.6-0.2,1-0.2,1.5,0c0.4,0.2,0.7,0.6,0.9,1.3c0.1,0.4,0.2,1.1,0.4,2.2l0.3-0.1C468,243.8,468.4,243.9,468.8,244.1L468.8,244.1z"/>
</g>
<g>
	<path class="st2" d="M398.4,566.2c0.1,0.1,0.2,0.2,0.2,0.3c0,0.2,0,0.5-0.1,0.7c-0.1,0.2-0.3,0.4-0.6,0.4c-0.8,0.2-1.5,0.2-2.1,0.2
		c-0.4,1.6-1,2.9-1.8,4s-1.6,1.8-2.6,2c-1,0.2-1.9-0.2-2.6-1.3s-1.3-2.6-1.6-4.5c-0.3-1.7-0.5-3.2-0.5-4.6c0-0.5,0-0.9,0.2-1.1
		c0.1-0.2,0.4-0.3,0.8-0.4c0.6-0.1,1,0.1,1.1,0.6c0,0.1,0,0.2,0,0.3c0,1.8,0.2,3.4,0.5,4.8c0.3,1.5,0.6,2.5,1,3.3s0.8,1,1.3,0.9
		c0.5-0.1,1-0.5,1.4-1.3s0.8-1.8,1.1-2.9c-0.6-0.2-1.2-0.6-1.6-1.2c-0.4-0.5-0.7-1.2-0.8-1.9s-0.1-1.4,0-2c0.1-0.6,0.4-1,0.7-1.4
		s0.8-0.5,1.3-0.7c0.6-0.1,1.1,0,1.6,0.4c0.4,0.4,0.7,0.9,0.9,1.7c0.2,1.1,0.2,2.3,0,3.7c0.5,0,1.1-0.1,1.8-0.2
		C398.1,566.1,398.3,566.2,398.4,566.2L398.4,566.2z M394.4,566.1c0.2-1.1,0.2-2.1,0-2.8c-0.1-0.4-0.2-0.7-0.3-0.8s-0.3-0.2-0.5-0.2
		c-0.3,0-0.4,0.2-0.5,0.6s-0.1,0.8,0,1.3C393.3,565.1,393.7,565.7,394.4,566.1L394.4,566.1z"/>
	<path class="st2" d="M398.8,571.7c-0.6-0.4-1-1.1-1.2-2c-0.1-0.8-0.1-1.5,0.1-2.1c0.2-0.6,0.5-1.2,0.9-1.6s0.9-0.7,1.4-0.8
		c0.5-0.1,1,0,1.3,0.2s0.6,0.6,0.7,1.1c0.1,0.4,0,0.8-0.1,1.1s-0.3,0.5-0.6,0.5c-0.2,0-0.3,0-0.5,0c-0.1-0.1-0.2-0.2-0.2-0.3
		c0-0.1,0-0.2,0-0.2s0-0.2,0-0.2c0-0.2,0-0.3,0-0.4c0-0.1-0.1-0.2-0.1-0.3s-0.2-0.1-0.3,0c-0.2,0-0.4,0.2-0.6,0.4s-0.2,0.5-0.3,0.9
		s0,0.7,0,1.1c0.2,1.1,0.8,1.6,1.8,1.4c0.4-0.1,0.8-0.3,1.2-0.6c0.4-0.3,0.8-0.8,1.1-1.4c0.1-0.2,0.2-0.2,0.4-0.3
		c0.1,0,0.2,0,0.3,0.1c0.1,0.1,0.2,0.2,0.2,0.5c0.1,0.4,0,0.7-0.1,0.9c-0.3,0.6-0.8,1.2-1.4,1.6c-0.6,0.4-1.1,0.7-1.7,0.8
		C400.2,572.2,399.4,572.1,398.8,571.7L398.8,571.7z"/>
	<path class="st2" d="M411.3,566.9c0.1,0.1,0.2,0.2,0.2,0.5c0.1,0.4,0,0.7-0.1,0.9c-0.3,0.6-0.7,1.1-1.1,1.5
		c-0.4,0.4-0.9,0.7-1.5,0.8c-0.5,0.1-0.9,0-1.2-0.2c-0.3-0.2-0.5-0.6-0.6-1.2c0-0.3-0.1-0.8-0.1-1.5c0-0.6,0-1.1,0-1.3
		c0-0.2-0.1-0.2-0.2-0.2c-0.1,0-0.3,0.2-0.4,0.6c-0.2,0.4-0.3,0.8-0.4,1.4c-0.1,0.6-0.2,1.2-0.2,1.8c0,0.8-0.4,1.3-1.1,1.4
		c-0.3,0.1-0.5,0-0.6-0.2s-0.2-0.5-0.4-1.1c-0.1-0.3-0.1-0.5-0.1-0.7l-0.2-1.2c-0.3-1.5-0.4-3-0.4-4.7s0.2-3.1,0.6-4.3
		c0.4-1.2,1-1.9,1.8-2c0.4-0.1,0.8,0,1.2,0.4s0.6,0.8,0.7,1.4c0.2,1,0.1,2-0.3,3.2c-0.4,1.2-1,2.5-2,4.2c0.1,0.5,0.1,1,0.2,1.5
		c0.2-0.9,0.4-1.6,0.7-2.2c0.3-0.6,0.6-1,0.9-1.3s0.7-0.5,1-0.5c0.6-0.1,1,0.1,1.1,0.8c0.1,0.4,0.1,1.1,0.1,2.1c0,0.9,0,1.4,0,1.7
		c0.1,0.4,0.2,0.5,0.5,0.5c0.2,0,0.4-0.2,0.6-0.5c0.2-0.3,0.5-0.7,0.8-1.3c0.1-0.2,0.2-0.2,0.4-0.3
		C411.1,566.7,411.2,566.7,411.3,566.9L411.3,566.9z M404.6,559.6c-0.1,0.5-0.2,1.2-0.2,2.1c0,0.9,0,1.8,0,2.8
		c0.5-0.8,0.8-1.7,1-2.6s0.3-1.7,0.1-2.3c-0.1-0.3-0.1-0.5-0.2-0.7c-0.1-0.2-0.2-0.2-0.3-0.2C404.8,558.7,404.7,559,404.6,559.6
		L404.6,559.6z"/>
	<path class="st2" d="M417.6,564.4c0.1,0.1,0.1,0.3,0.2,0.5c0.1,0.5,0,0.8-0.3,0.9c-0.5,0.3-1.1,0.5-1.8,0.7c0,0.8-0.3,1.5-0.7,2.1
		s-1,1-1.7,1.1c-0.6,0.1-1.1,0.1-1.5-0.1s-0.8-0.5-1.1-0.9s-0.5-0.9-0.6-1.4c-0.1-0.7-0.1-1.4,0-2c0.2-0.6,0.5-1.1,0.9-1.6
		c0.4-0.4,0.9-0.7,1.5-0.8c0.7-0.1,1.4,0,1.9,0.4c0.5,0.4,0.9,1,1.1,1.7c0.4-0.1,1-0.3,1.5-0.6c0.1,0,0.1-0.1,0.2-0.1
		C417.4,564.3,417.5,564.3,417.6,564.4L417.6,564.4z M413.9,567.6c0.2-0.3,0.3-0.7,0.2-1.2c-0.3-0.1-0.6-0.4-0.8-0.7
		c-0.2-0.3-0.4-0.6-0.4-1c0-0.2,0-0.3,0-0.5h-0.1c-0.4,0.1-0.7,0.3-0.9,0.8s-0.2,1-0.1,1.6c0.1,0.5,0.3,0.9,0.5,1.2
		c0.3,0.2,0.5,0.3,0.8,0.3C413.5,568.1,413.7,567.9,413.9,567.6L413.9,567.6z"/>
	<path class="st2" d="M422.8,566.9c0.1,0.1,0.1,0.2,0.1,0.4c0.1,0.4-0.1,0.7-0.7,0.8c-0.3,0.1-0.5,0-0.7-0.1s-0.4-0.4-0.6-0.8l0-0.1
		c-0.3,0.5-0.5,0.9-0.8,1.1c-0.3,0.2-0.6,0.3-1,0.4c-0.6,0.1-1.1,0-1.6-0.4c-0.5-0.4-0.8-0.9-0.9-1.6c-0.1-0.8-0.1-1.5,0.1-2.2
		c0.2-0.7,0.5-1.3,1-1.9c0.5-0.5,1.1-0.9,1.8-1.1c-0.2-1.8-0.1-3.5,0.1-4.9s0.8-2.2,1.7-2.4c0.4-0.1,0.8,0,1.1,0.4s0.6,0.9,0.7,1.6
		c0.2,1,0.2,2.3-0.1,3.8c-0.2,1.5-0.6,3.1-1.2,4.8C422.2,565.4,422.5,566.2,422.8,566.9L422.8,566.9z M419.9,566.7
		c0.1-0.2,0.3-0.5,0.5-1c-0.2-0.7-0.4-1.4-0.6-2.1c-0.1-0.3-0.1-0.5-0.1-0.7c-0.5,0.2-0.9,0.7-1.1,1.3c-0.2,0.6-0.3,1.2-0.2,1.9
		c0.1,0.7,0.4,1,0.9,0.9C419.6,567,419.7,566.9,419.9,566.7L419.9,566.7z M421.1,557.8c0,1.5,0.2,3,0.4,4.7c0.6-2.5,0.8-4.5,0.5-5.9
		c-0.1-0.4-0.2-0.6-0.3-0.8s-0.2-0.3-0.3-0.3C421.1,555.6,421,556.3,421.1,557.8z"/>
</g>
<path class="st3" d="M41.8,232c0,0,38.9-72.6,0.6-48.7c-26.6,21.9-14.6,50.5-2.6,37"/>
<path class="st3" d="M655.7,123.1c0,0,86,112.6,75.8,35.6c-15.4-57.3-68.8-58.8-56.2-30.5"/>
<g>
	<path class="st4" d="M85.2,199.5c0.2,0.2,0.2,0.4,0.2,0.7c-0.1,0.4-0.2,0.7-0.4,0.8c-0.2,0.1-0.6,0.2-1.1,0.1
		c-1.1-0.2-1.9-0.4-2.5-0.5s-1.4-0.2-2.4-0.4c-0.7,2.1-1.4,4.3-2.1,6.5c-0.2,0.8-0.5,1.7-0.8,2.8c-0.3,1-0.5,1.9-0.6,2.5
		c-0.1,0.3-0.2,0.6-0.5,0.7c-0.3,0.1-0.6,0.2-1,0.1c-0.4,0-0.7-0.2-0.9-0.4c-0.2-0.2-0.3-0.5-0.2-0.8c0-0.3,0.1-0.8,0.3-1.4
		s0.4-1.3,0.6-2c0.2-0.7,0.4-1.3,0.6-1.9c0.2-0.9,0.5-1.8,0.8-2.6c0.3-0.9,0.6-1.7,0.8-2.5c0.1-0.2,0.1-0.4,0.2-0.6s0.2-0.5,0.3-0.8
		c-1.2-0.1-2.1-0.1-2.8-0.1s-1.2,0.2-1.5,0.5s-0.5,0.6-0.6,1c-0.1,0.4,0,0.8,0.2,1.2c0,0.1,0.1,0.2,0,0.3c0,0.2-0.2,0.4-0.5,0.6
		c-0.3,0.2-0.6,0.2-0.9,0.2c-0.2,0-0.4-0.1-0.5-0.2c-0.2-0.2-0.4-0.5-0.5-0.9c-0.1-0.4-0.1-0.8-0.1-1.3c0.1-1,0.6-1.8,1.3-2.3
		s1.8-0.9,3.2-1s3.1,0,5.3,0.2c1.3,0.2,2.3,0.3,3.1,0.5c0.8,0.1,1.4,0.3,2,0.5C84.8,199.1,85,199.3,85.2,199.5L85.2,199.5z"/>
	<path class="st4" d="M80.8,213c-0.3-0.5-0.4-1.2-0.3-2c0.1-0.9,0.3-1.7,0.5-2.4c0.2-0.7,0.5-1.5,0.9-2.3c0.2-0.3,0.4-0.6,0.6-0.7
		c0.2-0.1,0.6-0.2,1.1-0.1c0.3,0,0.4,0.1,0.5,0.2s0.1,0.2,0.1,0.4c0,0.1-0.1,0.4-0.3,0.9c-0.2,0.4-0.3,0.8-0.4,1.2
		c-0.4,1.2-0.6,2-0.7,2.5c0,0.2,0,0.4,0,0.5c0.1,0.1,0.1,0.2,0.3,0.2c0.2,0,0.4-0.1,0.8-0.5s0.7-0.8,1.1-1.5s0.8-1.5,1.2-2.5
		c0.1-0.3,0.3-0.6,0.5-0.7c0.2-0.1,0.5-0.2,0.9-0.1c0.3,0,0.4,0.1,0.5,0.3s0.1,0.4,0.1,0.6c0,0.3-0.1,0.6-0.2,1
		c-0.1,0.4-0.2,0.7-0.3,1.1c-0.2,0.8-0.4,1.4-0.6,2c-0.1,0.6-0.3,1.3-0.4,2.1c-0.1,0.5-0.2,0.8-0.4,0.9c-0.2,0.2-0.5,0.2-0.9,0.2
		c-0.4-0.1-0.7-0.2-0.9-0.5c-0.1-0.2-0.2-0.7-0.1-1.4c0-0.1,0.1-0.4,0.2-0.9c-0.3,0.8-0.7,1.4-1.2,1.8s-0.9,0.5-1.4,0.5
		C81.5,213.8,81.1,213.5,80.8,213L80.8,213z"/>
	<path class="st4" d="M93.5,214.6c-0.1-0.5-0.1-1.3,0-2.3c0.2-1.5,0.6-3,1.2-4.3c0.1-0.3,0.4-0.6,0.6-0.7c0.3-0.1,0.6-0.2,1.1-0.1
		c0.2,0,0.4,0.1,0.5,0.2c0.1,0.1,0.1,0.2,0.1,0.4c0,0.2-0.2,0.6-0.4,1.2c-0.2,0.5-0.3,0.9-0.4,1.2s-0.2,0.8-0.4,1.3
		c0.5-1,1.1-1.8,1.6-2.3c0.6-0.6,1.1-1,1.6-1.2s0.9-0.3,1.4-0.2c0.8,0.1,1.1,0.5,1,1.3c-0.1,0.5-0.3,1.3-0.7,2.5
		c-0.4,1-0.6,1.7-0.6,2c-0.1,0.5,0.1,0.7,0.4,0.8c0.2,0,0.5-0.1,0.9-0.3s0.9-0.7,1.5-1.2c0.2-0.1,0.3-0.2,0.5-0.2
		c0.2,0,0.3,0.1,0.3,0.3c0.1,0.1,0.1,0.4,0.1,0.6c-0.1,0.5-0.2,0.8-0.5,1.1c-0.6,0.6-1.2,1-1.9,1.3s-1.3,0.4-2.1,0.4
		c-0.6-0.1-1-0.3-1.3-0.7c-0.3-0.4-0.4-0.9-0.3-1.6c0-0.3,0.2-0.9,0.5-1.8c0.2-0.7,0.4-1.2,0.4-1.5c0-0.2,0-0.3-0.2-0.3
		c-0.1,0-0.4,0.1-0.7,0.5c-0.3,0.4-0.7,0.9-1.1,1.5s-0.7,1.3-1,2c-0.2,0.5-0.4,0.9-0.6,1.1c-0.2,0.2-0.5,0.2-0.9,0.2
		C94,215.4,93.7,215.1,93.5,214.6L93.5,214.6z"/>
	<path class="st4" d="M102.6,215.7c-0.3-0.6-0.4-1.3-0.2-2.2c0.1-0.5,0.2-1.2,0.5-2c0.2-0.8,0.5-1.6,0.8-2.3
		c0.2-0.4,0.3-0.6,0.5-0.7c0.2-0.1,0.5-0.1,0.9-0.1c0.6,0.1,0.9,0.3,0.8,0.7c0,0.3-0.2,1-0.6,2c-0.5,1.3-0.7,2.1-0.8,2.6
		c-0.1,0.4,0,0.6,0,0.8c0.1,0.2,0.2,0.3,0.4,0.4c0.2,0,0.5-0.1,0.9-0.3s0.9-0.7,1.5-1.2c0.2-0.1,0.3-0.2,0.5-0.2
		c0.2,0,0.3,0.1,0.3,0.3s0.1,0.4,0.1,0.6c-0.1,0.5-0.2,0.8-0.5,1.1c-1.4,1.3-2.6,1.9-3.6,1.7C103.4,216.6,102.9,216.3,102.6,215.7
		L102.6,215.7z M104.5,206.7c-0.2-0.3-0.3-0.6-0.2-1c0.1-0.4,0.3-0.7,0.6-1c0.4-0.2,0.8-0.3,1.3-0.3c0.4,0.1,0.8,0.2,1,0.5
		s0.3,0.6,0.3,1c-0.1,0.5-0.3,0.8-0.6,1.1c-0.4,0.2-0.8,0.3-1.3,0.3C105.1,207.1,104.7,206.9,104.5,206.7z"/>
	<path class="st4" d="M107.2,216.1c-0.6-0.7-0.8-1.7-0.6-2.7c0.1-1,0.4-1.8,0.9-2.5s1-1.2,1.7-1.5s1.3-0.4,2-0.3
		c0.6,0.1,1.1,0.4,1.4,0.8s0.4,1,0.4,1.6c-0.1,0.5-0.2,0.9-0.5,1.2c-0.3,0.3-0.6,0.5-0.9,0.4c-0.2,0-0.4-0.1-0.5-0.2
		c-0.1-0.1-0.2-0.3-0.1-0.5c0-0.1,0-0.2,0.1-0.3c0-0.1,0.1-0.2,0.1-0.2c0.1-0.2,0.1-0.3,0.1-0.5c0-0.1,0-0.3-0.1-0.4
		s-0.2-0.1-0.3-0.2c-0.3,0-0.6,0-0.8,0.3c-0.3,0.2-0.5,0.5-0.7,0.9c-0.2,0.4-0.3,0.9-0.4,1.4c-0.1,0.7,0,1.2,0.2,1.6
		c0.2,0.4,0.6,0.6,1.1,0.7c0.4,0,0.8,0,1.2-0.2c0.4-0.2,0.8-0.5,1.1-0.9c0.2-0.2,0.3-0.2,0.5-0.2c0.1,0,0.3,0.1,0.3,0.3
		c0.1,0.1,0.1,0.4,0.1,0.6c-0.1,0.4-0.2,0.8-0.4,1.1c-0.4,0.5-0.9,0.8-1.4,1s-1.2,0.3-1.9,0.2C108.6,217.3,107.7,216.9,107.2,216.1
		L107.2,216.1z M110.6,207.5c-0.2-0.2-0.3-0.6-0.3-1.1l-0.4-3.3c0-0.1,0-0.3,0-0.4c0-0.3,0.2-0.5,0.4-0.6c0.2-0.1,0.5-0.2,0.7-0.1
		c0.3,0,0.5,0.1,0.6,0.3c0.1,0.2,0.2,0.4,0.2,0.8v3.2l2-3c0.2-0.4,0.4-0.6,0.7-0.7c0.2-0.1,0.4-0.1,0.7-0.1c0.2,0,0.4,0.1,0.6,0.2
		c0.1,0.1,0.2,0.3,0.2,0.5c0,0.2-0.1,0.4-0.3,0.6l-2.4,3.2c-0.3,0.3-0.5,0.6-0.8,0.7s-0.6,0.2-1,0.1
		C111,207.9,110.7,207.7,110.6,207.5L110.6,207.5z"/>
	<path class="st4" d="M118.7,217.9c-0.1-0.5-0.1-1.3,0-2.3c0.2-1.5,0.6-3,1.2-4.3c0.1-0.3,0.4-0.6,0.6-0.7c0.3-0.1,0.6-0.2,1.1-0.1
		c0.2,0,0.4,0.1,0.5,0.2c0.1,0.1,0.1,0.2,0.1,0.4c0,0.2-0.2,0.6-0.4,1.2c-0.2,0.5-0.3,0.9-0.4,1.2c-0.1,0.4-0.2,0.8-0.4,1.3
		c0.5-1,1.1-1.8,1.6-2.3c0.6-0.6,1.1-1,1.6-1.2s0.9-0.3,1.4-0.2c0.8,0.1,1.1,0.5,1,1.3c-0.1,0.5-0.3,1.3-0.7,2.5
		c-0.4,1-0.6,1.7-0.6,2c-0.1,0.5,0.1,0.7,0.4,0.8c0.2,0,0.5-0.1,0.9-0.3c0.4-0.2,0.9-0.7,1.5-1.2c0.2-0.1,0.3-0.2,0.5-0.2
		c0.1,0,0.3,0.1,0.3,0.3s0.1,0.4,0.1,0.6c-0.1,0.5-0.2,0.8-0.5,1.1c-0.6,0.6-1.2,1-1.8,1.3s-1.3,0.4-2.1,0.4c-0.6-0.1-1-0.3-1.3-0.7
		c-0.3-0.4-0.4-0.9-0.3-1.6c0-0.3,0.2-0.9,0.5-1.8c0.2-0.7,0.4-1.2,0.4-1.5c0-0.2,0-0.3-0.2-0.3c-0.1,0-0.4,0.1-0.7,0.5
		c-0.3,0.4-0.7,0.9-1.1,1.5s-0.7,1.3-1,2c-0.2,0.5-0.4,0.9-0.6,1.1c-0.2,0.2-0.5,0.2-0.9,0.2C119.1,218.7,118.9,218.4,118.7,217.9
		L118.7,217.9z"/>
	<path class="st4" d="M136,216.9c0.1,0.1,0.1,0.4,0.1,0.6c-0.1,0.5-0.2,0.8-0.5,1.1c-0.5,0.5-1.2,0.9-2.1,1.2
		c-0.9,0.4-1.8,0.5-2.7,0.3c-1.2-0.2-2.2-0.6-2.8-1.4c-0.6-0.8-0.8-1.7-0.7-2.9c0.1-0.8,0.4-1.6,0.8-2.2c0.4-0.7,1-1.2,1.7-1.5
		s1.4-0.5,2.2-0.4c0.7,0.1,1.2,0.4,1.6,0.8s0.5,1,0.4,1.8c-0.1,0.8-0.5,1.5-1.2,2s-1.7,0.9-3.2,1c0.2,0.6,0.8,0.9,1.6,1
		c0.5,0.1,1.2,0,1.9-0.3c0.7-0.3,1.4-0.7,2-1.2c0.2-0.1,0.3-0.2,0.5-0.2C135.8,216.7,135.9,216.8,136,216.9L136,216.9z M130.3,214.1
		c-0.4,0.5-0.6,1.1-0.7,1.8v0c0.7-0.1,1.3-0.2,1.8-0.5c0.4-0.3,0.7-0.6,0.8-1.1c0-0.2,0-0.4-0.1-0.6c-0.1-0.1-0.3-0.2-0.5-0.3
		C131.1,213.4,130.6,213.7,130.3,214.1L130.3,214.1z"/>
	<path class="st4" d="M145.1,218.1c0.1,0.1,0.1,0.4,0.1,0.6c-0.1,0.5-0.2,0.8-0.5,1.1c-0.6,0.5-1.2,1-1.8,1.3s-1.2,0.5-1.8,0.4
		c-0.9-0.1-1.5-0.7-1.9-1.9c-0.6,0.6-1.1,0.9-1.5,1.1c-0.4,0.2-0.9,0.2-1.4,0.1c-0.7-0.1-1.3-0.4-1.7-1c-0.4-0.6-0.5-1.3-0.4-2.2
		c0.1-1,0.4-1.8,0.9-2.6s1.1-1.4,1.9-1.8s1.6-0.6,2.5-0.6c0.5-2.3,1.2-4.2,2.1-5.8c0.9-1.5,1.8-2.3,2.8-2.1c0.5,0.1,0.9,0.4,1.2,0.9
		c0.3,0.5,0.4,1.2,0.2,2.2c-0.2,1.3-0.7,2.9-1.6,4.5c-0.9,1.7-2,3.4-3.3,5.2c0,0.7,0,1.2,0.1,1.5c0.1,0.3,0.3,0.5,0.6,0.5
		c0.3,0,0.7-0.1,1-0.3s0.9-0.7,1.5-1.2c0.2-0.1,0.3-0.2,0.5-0.2C144.9,217.9,145,218,145.1,218.1L145.1,218.1z M137.9,219
		c0.2-0.2,0.6-0.5,1-0.9c0-0.7,0-1.4,0.1-2.2c0-0.3,0.1-0.8,0.2-1.4c-0.7,0.1-1.3,0.5-1.8,1.1s-0.8,1.3-0.9,2.2
		c-0.1,0.9,0.1,1.3,0.7,1.4C137.5,219.2,137.7,219.1,137.9,219L137.9,219z M143.3,207.6c-0.3,0.8-0.7,1.8-1,3.1s-0.6,2.6-0.9,4
		c1.7-2.7,2.7-5,2.9-6.7c0.1-0.5,0.1-0.8,0-1.1s-0.1-0.4-0.2-0.4C143.9,206.5,143.6,206.9,143.3,207.6L143.3,207.6z"/>
	<path class="st4" d="M143.6,221c-0.4-0.6-0.5-1.3-0.4-2.2c0.1-1,0.5-1.8,1-2.6c0.6-0.8,1.2-1.4,2-1.8s1.6-0.6,2.4-0.5
		c0.3,0,0.4,0.1,0.5,0.2c0.1,0.1,0.1,0.3,0.1,0.6c0.3,0,0.5,0,0.8,0c0.6,0.1,0.9,0.3,0.8,0.7c0,0.2-0.2,0.8-0.5,1.8
		c-0.4,1.3-0.7,2.3-0.8,2.8c0,0.2,0,0.3,0.1,0.5c0.1,0.1,0.2,0.2,0.3,0.2c0.2,0,0.5-0.1,0.9-0.3s0.9-0.7,1.5-1.2
		c0.2-0.1,0.3-0.2,0.5-0.2c0.1,0,0.3,0.1,0.3,0.3c0.1,0.1,0.1,0.4,0.1,0.6c-0.1,0.5-0.2,0.8-0.5,1.1c-0.6,0.5-1.1,1-1.8,1.3
		s-1.2,0.5-1.7,0.4c-0.4,0-0.7-0.2-1-0.5s-0.5-0.7-0.6-1.2c-0.8,0.9-1.6,1.3-2.5,1.2C144.6,222,144,221.6,143.6,221L143.6,221z
		 M147,220c0.3-0.3,0.5-0.7,0.7-1.2l1.1-3.2c-0.5,0-1,0.1-1.5,0.4s-0.9,0.7-1.2,1.3c-0.3,0.6-0.5,1.2-0.6,1.8
		c-0.1,0.4,0,0.6,0.1,0.9c0.1,0.2,0.3,0.3,0.6,0.4C146.4,220.4,146.7,220.3,147,220L147,220z M148.6,212.6c-0.1-0.1-0.1-0.3-0.1-0.5
		c0-0.1,0.1-0.2,0.1-0.3l2.1-3.5c0.1-0.2,0.3-0.4,0.5-0.5s0.4-0.1,0.6-0.1c0.3,0,0.6,0.2,0.8,0.4s0.3,0.5,0.2,0.9
		c0,0.3-0.2,0.6-0.5,1l-2.7,2.7c-0.2,0.2-0.4,0.3-0.6,0.2C148.9,212.8,148.7,212.7,148.6,212.6L148.6,212.6z"/>
	<path class="st4" d="M161.4,218.5c0.2,0,0.3,0.1,0.4,0.2s0.1,0.3,0.1,0.5c-0.1,0.4-0.2,0.6-0.3,0.8s-0.4,0.3-0.7,0.4
		c-0.6,0.1-1.2,0.1-1.8,0c-0.5-0.1-1-0.2-1.4-0.4c-0.4,0.5-0.9,1-1.4,1.6c-0.6,0.6-1,1-1.4,1.2c-0.4,0.2-0.8,0.3-1.2,0.2
		c-0.5-0.1-0.9-0.3-1.1-0.7s-0.3-1-0.3-1.9c0.1-1.7,0.2-3.1,0.4-4.4l0.1-0.6c0.1-0.4,0.2-0.6,0.4-0.8c0.2-0.1,0.5-0.2,0.9-0.1
		c0.3,0,0.5,0.1,0.7,0.3s0.2,0.4,0.1,0.7c-0.2,1.4-0.3,3.2-0.4,5.4c0.9-1,1.5-1.7,1.9-2.3c-0.1-0.4-0.2-0.8-0.1-1.3
		c0.1-0.4,0.2-0.8,0.4-1.1c0.2-0.4,0.5-0.6,0.9-0.8c0.3-0.2,0.7-0.3,1.1-0.2c0.4,0,0.6,0.2,0.8,0.5s0.2,0.6,0.2,1.1
		c-0.1,0.5-0.3,1.1-0.7,1.8c0.4,0,1.1,0,1.8,0l0.5,0C161.2,218.5,161.3,218.5,161.4,218.5L161.4,218.5z"/>
	<path class="st4" d="M160.2,223.2c-0.4-0.6-0.5-1.3-0.4-2.2c0.1-1,0.5-1.8,1-2.6c0.6-0.8,1.2-1.4,2-1.8s1.6-0.6,2.4-0.5
		c0.3,0,0.4,0.1,0.5,0.2c0.1,0.1,0.1,0.3,0.1,0.6c0.3,0,0.5,0,0.8,0c0.6,0.1,0.9,0.3,0.8,0.7c0,0.2-0.2,0.8-0.5,1.8
		c-0.4,1.3-0.7,2.3-0.8,2.8c0,0.2,0,0.3,0.1,0.5c0.1,0.1,0.2,0.2,0.3,0.2c0.2,0,0.5-0.1,0.9-0.3s0.9-0.7,1.5-1.2
		c0.2-0.1,0.3-0.2,0.5-0.2c0.1,0,0.3,0.1,0.3,0.3c0.1,0.1,0.1,0.4,0.1,0.6c-0.1,0.5-0.2,0.8-0.5,1.1c-0.6,0.5-1.1,1-1.8,1.3
		c-0.6,0.4-1.2,0.5-1.7,0.4c-0.4,0-0.7-0.2-1-0.5s-0.5-0.7-0.6-1.2c-0.8,0.9-1.6,1.3-2.5,1.2C161.2,224.1,160.6,223.8,160.2,223.2
		L160.2,223.2z M163.6,222.1c0.3-0.3,0.5-0.7,0.7-1.2l1.1-3.2c-0.5,0-1,0.1-1.5,0.4s-0.9,0.7-1.2,1.3c-0.3,0.6-0.5,1.2-0.6,1.8
		c-0.1,0.4,0,0.6,0.1,0.9c0.1,0.2,0.3,0.3,0.6,0.4S163.3,222.4,163.6,222.1L163.6,222.1z"/>
	<path class="st4" d="M171.9,218.7c-0.1,0.6-0.2,1-0.2,1.4c-0.1,0.9-0.1,1.5-0.1,2c0,0.5,0.1,0.9,0.3,1.1c0.2,0.2,0.5,0.4,0.8,0.4
		c0.2,0,0.4,0,0.7-0.1s0.5-0.2,0.8-0.4c0.1-0.1,0.3-0.1,0.4-0.1c0.1,0,0.2,0.1,0.3,0.3c0.1,0.2,0.1,0.4,0.1,0.6s-0.1,0.4-0.2,0.6
		s-0.3,0.4-0.5,0.5c-0.7,0.4-1.4,0.6-2.2,0.5c-1.1-0.1-1.9-0.7-2.3-1.7c-0.4-1-0.5-2.3-0.3-3.8c0.1-0.5,0.1-1,0.3-1.6l-0.7-0.1
		c-0.4,0-0.6-0.1-0.7-0.3s-0.1-0.4-0.1-0.6c0.1-0.7,0.4-1,0.9-0.9l1,0.1c0.4-1.3,0.8-2.4,1.4-3.5s1.2-1.8,1.9-2.4
		c0.7-0.6,1.4-0.8,2-0.7c0.5,0.1,0.9,0.3,1.1,0.8c0.2,0.5,0.3,1,0.2,1.7c-0.2,1.8-1.2,3.4-2.9,4.5l2,0.3c0.2,0,0.3,0.1,0.4,0.2
		c0.1,0.1,0.1,0.2,0.1,0.5c-0.1,0.8-0.8,1.1-2.2,1L171.9,218.7L171.9,218.7z M174.1,212.3c-0.3,0.4-0.6,1-0.9,1.8
		c-0.3,0.8-0.6,1.6-0.8,2.6c0.8-0.5,1.4-1.1,1.9-1.8c0.4-0.7,0.7-1.4,0.8-2c0.1-0.7,0-1.1-0.3-1.1
		C174.6,211.7,174.3,211.9,174.1,212.3L174.1,212.3z M178,213.3c-0.1-0.1-0.1-0.3-0.1-0.6l0.4-2.3c0.1-0.4,0.2-0.7,0.5-0.8
		s0.5-0.2,0.9-0.2c0.3,0,0.5,0.1,0.7,0.4s0.2,0.5,0.2,0.8c0,0.2-0.1,0.4-0.2,0.6l-1,2c-0.2,0.4-0.5,0.5-0.9,0.5
		C178.2,213.6,178.1,213.5,178,213.3L178,213.3z"/>
	<path class="st4" d="M176,225.6c-0.2-0.3-0.3-0.7-0.2-1.2c0.1-0.5,0.3-0.9,0.6-1.2c0.4-0.3,0.8-0.4,1.3-0.3
		c0.5,0.1,0.9,0.2,1.1,0.5c0.2,0.3,0.3,0.7,0.2,1.2c-0.1,0.5-0.3,1-0.6,1.2s-0.8,0.4-1.3,0.3C176.6,226.1,176.2,225.9,176,225.6
		L176,225.6z M177.8,221.8c-0.1-0.1-0.2-0.3-0.2-0.5l0-0.1c0.4-1.3,0.9-2.8,1.4-4.5c0.6-1.7,1.1-3.1,1.5-4.3c0.3-0.7,0.9-1,1.7-0.9
		c0.8,0.1,1.1,0.4,1.1,0.9c0,0.1-0.1,0.2-0.1,0.4c-0.5,1.2-1.1,2.7-1.8,4.4c-0.8,1.7-1.4,3.2-2.1,4.5c-0.2,0.4-0.5,0.5-1,0.5
		C178.1,222,177.9,221.9,177.8,221.8L177.8,221.8z"/>
</g>
<g>
	<path class="st4" d="M671.9,210.1c-0.6-0.5-1-1.1-1.3-2s-0.3-1.8-0.2-2.8c0.2-1.8,0.8-3.4,1.8-4.9s2.3-2.5,3.9-3.3
		c1.6-0.7,3.5-1,5.6-0.7c0.5,0.1,1.1,0.2,1.7,0.4c0.6,0.2,1.2,0.4,1.7,0.6c0.3,0.1,0.5,0.4,0.4,0.8c0,0.3-0.2,0.6-0.5,0.8
		s-0.6,0.4-0.9,0.3c-0.1,0-0.2,0-0.2-0.1c-0.6-0.2-1.1-0.4-1.5-0.5c-0.4-0.1-0.9-0.2-1.4-0.3c-1.5-0.2-2.8,0-4,0.6
		c-1.2,0.6-2.1,1.5-2.8,2.6c-0.7,1.1-1.1,2.4-1.3,3.8c-0.1,1,0,1.8,0.3,2.4c0.3,0.6,0.8,0.9,1.5,1c0.7,0.1,1.4-0.1,2-0.6
		c0.6-0.5,1.2-1.4,1.9-2.7c0.6-1.3,1.3-3,2-5.2c0.1-0.3,0.3-0.5,0.5-0.6c0.2-0.1,0.5-0.1,0.9-0.1c0.8,0.1,1.2,0.4,1.2,1
		c0,0.1,0,0.2-0.1,0.4c-0.5,1.1-0.9,2.4-1.3,3.7s-0.7,2.4-0.8,3.1c-0.1,0.6,0,1.1,0.1,1.4c0.2,0.3,0.4,0.5,0.8,0.6
		c0.4,0.1,0.8,0,1.1-0.2s0.9-0.6,1.5-1.1c0.2-0.1,0.3-0.2,0.5-0.2c0.2,0,0.3,0.1,0.3,0.3s0.1,0.4,0.1,0.6c-0.1,0.5-0.2,0.8-0.5,1.1
		c-0.7,0.6-1.3,1.1-1.9,1.4c-0.6,0.3-1.3,0.4-2.1,0.3c-0.8-0.1-1.5-0.4-1.9-1c-0.5-0.6-0.7-1.3-0.7-2.2c-1.1,1.7-2.5,2.5-4.2,2.3
		C673.2,210.9,672.5,210.6,671.9,210.1L671.9,210.1z"/>
	<path class="st4" d="M684,211.5c-0.1-0.5-0.1-1.3,0-2.3c0.2-1.6,0.6-3,1.2-4.3c0.2-0.3,0.4-0.6,0.6-0.7s0.6-0.2,1.1-0.1
		c0.2,0,0.4,0.1,0.5,0.2c0.1,0.1,0.1,0.2,0.1,0.4c0,0.2-0.2,0.6-0.4,1.2c-0.2,0.5-0.3,0.9-0.5,1.2c-0.1,0.4-0.2,0.8-0.3,1.3
		c0.5-1,1.1-1.8,1.7-2.3c0.6-0.6,1.1-1,1.6-1.2c0.5-0.2,1-0.3,1.3-0.2c0.8,0.1,1.1,0.5,1,1.3c-0.1,0.5-0.3,1.3-0.7,2.5
		c-0.4,1-0.6,1.7-0.6,2c-0.1,0.5,0.1,0.7,0.4,0.8c0.2,0,0.5-0.1,0.9-0.3s0.9-0.7,1.5-1.2c0.2-0.1,0.3-0.2,0.5-0.2
		c0.2,0,0.3,0.1,0.3,0.3s0.1,0.4,0.1,0.6c-0.1,0.5-0.2,0.8-0.5,1.1c-0.6,0.6-1.2,1-1.8,1.3c-0.6,0.3-1.3,0.4-2.1,0.4
		c-0.6-0.1-1-0.3-1.3-0.7s-0.3-0.9-0.3-1.6c0-0.3,0.2-0.9,0.5-1.8c0.2-0.7,0.4-1.2,0.4-1.5c0-0.2,0-0.3-0.2-0.3
		c-0.2,0-0.4,0.1-0.7,0.5s-0.7,0.9-1.1,1.5c-0.4,0.6-0.7,1.3-1,2c-0.2,0.5-0.4,0.9-0.6,1.1c-0.2,0.2-0.5,0.2-0.8,0.2
		C684.4,212.3,684.1,212,684,211.5L684,211.5z"/>
	<path class="st4" d="M692.4,213.1c-0.1-0.2-0.2-0.4-0.1-0.8c0-0.1,0-0.3,0.1-0.5c0.5-2.1,1-4.1,1.7-5.8c0.1-0.4,0.3-0.6,0.6-0.7
		c0.2-0.1,0.6-0.1,1.1-0.1c0.5,0.1,0.7,0.3,0.7,0.7c0,0.1,0,0.2-0.1,0.3c-0.9,2.5-1.5,4.6-1.8,6.3c-0.1,0.4-0.2,0.6-0.4,0.8
		c-0.2,0.1-0.5,0.2-1,0.1C692.8,213.4,692.5,213.3,692.4,213.1L692.4,213.1z M695.1,203.6c-0.2-0.3-0.3-0.6-0.2-1
		c0-0.4,0.3-0.7,0.6-1c0.4-0.2,0.8-0.3,1.3-0.3c0.4,0.1,0.8,0.2,1,0.5s0.3,0.6,0.3,1c-0.1,0.5-0.3,0.8-0.6,1.1s-0.8,0.3-1.3,0.3
		C695.7,204,695.3,203.9,695.1,203.6L695.1,203.6z"/>
	<path class="st4" d="M710,211.7c0.1,0.1,0.1,0.4,0.1,0.6c-0.1,0.5-0.2,0.8-0.5,1.1c-0.6,0.6-1.2,1-1.9,1.3
		c-0.7,0.3-1.4,0.4-2.2,0.3c-2.4-0.3-3.4-2.2-3-5.6c0.1-0.5,0.2-1.1,0.3-1.6l-0.7-0.1c-0.4-0.1-0.6-0.1-0.7-0.3s-0.1-0.4-0.1-0.6
		c0.1-0.7,0.4-1,0.9-0.9l1,0.1c0.4-1.3,0.8-2.4,1.4-3.5s1.2-1.8,1.8-2.4c0.7-0.6,1.3-0.8,2-0.7c0.5,0.1,0.9,0.3,1.1,0.8
		c0.2,0.5,0.3,1.1,0.2,1.7c-0.2,1.8-1.2,3.4-3,4.5l2,0.3c0.2,0,0.3,0.1,0.4,0.2c0.1,0.1,0.1,0.2,0.1,0.5c-0.1,0.8-0.8,1.1-2.2,1
		l-2.2-0.3c-0.1,0.6-0.2,1.1-0.2,1.4c-0.2,1.2-0.1,2.1,0.1,2.7c0.2,0.5,0.7,0.9,1.3,0.9c0.5,0.1,1,0,1.4-0.3s1-0.7,1.6-1.2
		c0.2-0.1,0.3-0.2,0.5-0.2C709.8,211.5,709.9,211.6,710,211.7L710,211.7z M707.1,201.8c-0.3,0.4-0.6,1-0.9,1.8s-0.6,1.6-0.8,2.6
		c0.8-0.5,1.4-1.1,1.8-1.8c0.5-0.7,0.7-1.4,0.8-2c0.1-0.7,0-1.1-0.2-1.1C707.6,201.1,707.4,201.3,707.1,201.8L707.1,201.8z"/>
	<path class="st4" d="M708.7,214.8c-0.3-0.5-0.4-1.2-0.3-2c0.1-0.9,0.3-1.7,0.5-2.4s0.5-1.5,0.9-2.3c0.2-0.3,0.4-0.6,0.6-0.7
		c0.2-0.1,0.6-0.2,1-0.1c0.3,0,0.4,0.1,0.5,0.2c0.1,0.1,0.1,0.2,0.1,0.4c0,0.1-0.1,0.4-0.3,0.9c-0.2,0.4-0.3,0.8-0.4,1.2
		c-0.4,1.2-0.6,2-0.7,2.4c0,0.2,0,0.4,0,0.5c0,0.1,0.1,0.2,0.3,0.2c0.2,0,0.4-0.1,0.8-0.5s0.7-0.8,1.1-1.5s0.8-1.5,1.2-2.5
		c0.1-0.4,0.3-0.6,0.5-0.7s0.5-0.2,0.9-0.1c0.3,0,0.4,0.1,0.5,0.3s0.1,0.4,0.1,0.6c0,0.3-0.1,0.6-0.2,1s-0.2,0.7-0.3,1.1
		c-0.2,0.8-0.4,1.4-0.6,2c-0.2,0.6-0.3,1.3-0.4,2.1c-0.1,0.4-0.2,0.8-0.4,0.9c-0.2,0.2-0.5,0.2-0.9,0.2c-0.4-0.1-0.7-0.2-0.9-0.5
		c-0.1-0.2-0.2-0.7-0.1-1.4c0-0.1,0.1-0.4,0.2-0.9c-0.3,0.8-0.7,1.4-1.2,1.8s-0.9,0.6-1.4,0.5C709.5,215.6,709,215.3,708.7,214.8
		L708.7,214.8z"/>
	<path class="st4" d="M716.9,216.1c-0.2-0.3-0.3-0.7-0.2-1.2c0.1-0.5,0.3-0.9,0.6-1.2c0.3-0.3,0.8-0.4,1.3-0.3
		c0.5,0.1,0.9,0.2,1.1,0.5c0.2,0.3,0.3,0.7,0.2,1.2c-0.1,0.6-0.3,1-0.6,1.2s-0.8,0.4-1.3,0.3C717.5,216.6,717.1,216.4,716.9,216.1
		L716.9,216.1z M718.7,212.3c-0.1-0.1-0.2-0.3-0.2-0.5l0-0.1c0.4-1.3,0.8-2.8,1.4-4.4c0.6-1.7,1.1-3.1,1.5-4.3
		c0.3-0.7,0.9-1.1,1.7-0.9c0.8,0.1,1.1,0.4,1,0.9c0,0.1,0,0.2-0.1,0.4c-0.5,1.2-1.1,2.7-1.8,4.4c-0.8,1.7-1.4,3.2-2.1,4.5
		c-0.2,0.4-0.5,0.5-1,0.4C719,212.5,718.8,212.4,718.7,212.3L718.7,212.3z"/>
	<path class="st4" d="M723,216.9c-0.2-0.3-0.3-0.7-0.2-1.2c0.1-0.5,0.3-0.9,0.6-1.2c0.3-0.3,0.8-0.4,1.3-0.3
		c0.5,0.1,0.9,0.2,1.1,0.5s0.3,0.7,0.2,1.2c-0.1,0.6-0.3,1-0.6,1.2s-0.8,0.4-1.3,0.3C723.6,217.4,723.2,217.2,723,216.9L723,216.9z
		 M724.8,213.1c-0.1-0.1-0.2-0.3-0.2-0.5l0-0.1c0.4-1.3,0.8-2.8,1.4-4.4c0.6-1.7,1.1-3.1,1.5-4.3c0.3-0.7,0.9-1.1,1.7-0.9
		c0.8,0.1,1.1,0.4,1,0.9c0,0.1,0,0.2-0.1,0.4c-0.5,1.2-1.1,2.7-1.8,4.4c-0.8,1.7-1.4,3.2-2.1,4.5c-0.2,0.4-0.5,0.5-1,0.4
		C725.1,213.3,724.9,213.2,724.8,213.1L724.8,213.1z"/>
</g>
<path class="st5" d="M225.7,485.6c0,0,97.4-14.1,98.3-24.2s11-123,7.1-131.6c-3.9-8.7-72.3-9.9-81.5-3.8
	c-9.1,6.1-20.5,142.3-20.5,142.3"/>
<path class="st5" d="M573.4,103.1c0,0-7.8-89.5-18.8-88.4s-328,5-336.9,13s8.1,111.4,12.8,112s316.3-17.8,324.1-25
	S567.7,88,567.7,88"/>
<path class="st5" d="M496.4,328l59.2,4.2c0,0,24.9,117.6,13.9,135.9c-11,18.3-46.8,20-57,12.6c-10.2-7.4-11-161.7-11-161.7"/>
<path class="st5" d="M442.1,323.1l36.7,37.4c0,0,24.4,101.5,13.4,119.9c-11,18.3-36,11.9-46.3,4.4s7.3-142.6,7.3-142.6"/>
<path class="st5" d="M623.9,559.7L783,552c0,0,25.4-46.4,5.5-66.3s-155.7-17.7-149.7,0s-6.6,64.1-6.6,64.1"/>
<path class="st5" d="M643.5,420.6l146.8,13.2c0,0,13.6-31.9-10.5-56s-136.9-21.9-129.5-0.5c7.4,21.4-42.6,53.8-42.6,53.8"/>
<path class="st6" d="M328.9,595.3c0,0-1.4-88.4,77.6-79s82.6,79,82.6,79l-148.4-5.9"/>
<g>
	<path class="st2" d="M715.1,400.1c0,0.6-0.2,1.2-0.5,1.6c-0.4,0.5-0.8,0.8-1.5,1.1c-0.6,0.3-1.4,0.4-2.2,0.4
		c-1.2,0-2.1-0.2-2.8-0.7c-0.7-0.5-1-1.1-1-2c0-0.5,0.2-1,0.5-1.5c0.3-0.4,0.8-0.9,1.6-1.2c-0.4-0.3-0.8-0.6-1-1.1
		c-0.2-0.4-0.3-0.8-0.3-1.3c0-1,0.4-1.8,1.1-2.3c0.7-0.6,1.7-0.8,3-0.8c1,0,1.9,0.2,2.5,0.7c0.6,0.5,1,1.1,1,1.8
		c0,0.6-0.2,1.1-0.5,1.5c-0.3,0.4-0.8,0.9-1.6,1.2C714.5,398.2,715.1,399.1,715.1,400.1z M712.3,401.1c0.3-0.2,0.5-0.5,0.5-0.8
		c0-0.3-0.1-0.5-0.4-0.8c-0.3-0.2-0.8-0.5-1.6-0.9c-0.6,0.3-1,0.5-1.2,0.8c-0.2,0.3-0.3,0.6-0.3,0.9c0,0.3,0.2,0.6,0.5,0.8
		c0.3,0.2,0.7,0.3,1.2,0.3C711.6,401.4,712,401.3,712.3,401.1z M710.5,394.4c-0.3,0.2-0.5,0.5-0.5,0.9c0,0.6,0.5,1,1.4,1.5
		c0.6-0.3,1.1-0.6,1.3-0.9c0.3-0.3,0.4-0.6,0.4-0.8c0-0.7-0.5-1-1.4-1C711.2,394.1,710.8,394.2,710.5,394.4z"/>
</g>
<g>
	<path class="st2" d="M722.5,519.8c0,1.2-0.3,2.3-1,3.2c-0.7,0.9-1.7,1.6-2.9,2.1s-2.7,0.8-4.4,0.8c-2.3,0-4.1-0.5-5.5-1.4
		c-1.3-0.9-2-2.2-2-3.8c0-1,0.3-2,0.9-2.8c0.6-0.9,1.6-1.7,3-2.4c-0.9-0.6-1.5-1.3-2-2.1c-0.4-0.8-0.7-1.6-0.7-2.5
		c0-1.9,0.7-3.4,2.2-4.5c1.4-1.1,3.4-1.6,5.9-1.6c2,0,3.7,0.4,4.9,1.3c1.2,0.9,1.9,2.1,1.9,3.6c0,1.1-0.3,2.1-0.9,3s-1.6,1.7-3,2.4
		C721.4,516.2,722.5,517.8,722.5,519.8z M717.1,521.8c0.6-0.4,1-0.9,1-1.6c0-0.5-0.3-1-0.8-1.5c-0.6-0.5-1.6-1.1-3.1-1.7
		c-1.1,0.5-1.9,1-2.3,1.5c-0.4,0.5-0.6,1.1-0.6,1.7c0,0.7,0.3,1.2,0.9,1.6s1.4,0.6,2.4,0.6C715.6,522.4,716.5,522.2,717.1,521.8z
		 M713.5,508.8c-0.6,0.4-0.9,1-0.9,1.8c0,1.1,0.9,2,2.7,2.9c1.2-0.6,2.1-1.2,2.6-1.7c0.5-0.5,0.7-1.1,0.7-1.7c0-1.3-0.9-2-2.7-2
		C714.9,508.2,714.1,508.4,713.5,508.8z"/>
</g>
<g>
	<g>
		<path class="st2" d="M455.5,439.1c-0.2-0.2-0.2-0.5-0.1-0.9l0.1-0.2c0.5-1.1,1-2.3,1.6-3.6c0.6-1.2,1-2.2,1.4-2.8l-1.5,0l-0.2,0
			c-0.2-0.1-0.4-0.2-0.4-0.4c-0.1-0.2-0.1-0.4,0-0.6l0.1-0.2c0.1-0.2,0.2-0.4,0.4-0.5c0.2-0.1,0.4-0.2,0.8-0.2c0.4,0,0.9,0,1.6,0
			l0.8,0.1c0.3,0,0.5,0.1,0.7,0.1c0.3,0.1,0.6,0.3,0.7,0.5c0.1,0.2,0.1,0.5,0,0.8c0,0.1-0.1,0.3-0.2,0.4c-0.5,0.8-1.6,3.3-3.4,7.4
			c-0.3,0.7-0.8,0.9-1.6,0.7C455.9,439.5,455.7,439.4,455.5,439.1z"/>
		<path class="st2" d="M468.6,441.5c0.1,0.2,0.1,0.4,0,0.7c-0.1,0.3-0.3,0.5-0.5,0.7c-0.3,0.2-0.6,0.2-0.9,0.1
			c-0.6-0.2-1.4-0.5-2.4-0.9c-0.2-0.1-0.6-0.2-1.2-0.4c-0.6-0.2-1-0.4-1.4-0.5c-0.1,0-0.4-0.1-0.7,0c-0.1,0-0.2,0-0.4,0
			c-0.2,0-0.3,0-0.4-0.1c-0.2-0.1-0.3-0.2-0.4-0.4c-0.1-0.2-0.1-0.5,0-0.8c0.1-0.4,0.3-0.6,0.5-0.8c0.2-0.1,0.6-0.2,1-0.3
			c0.9-0.1,1.8-0.3,2.6-0.6c0.9-0.3,1.6-0.7,2.2-1.2c0.6-0.5,1-1,1.2-1.6c0.1-0.4,0.1-0.8,0-1.1c-0.1-0.3-0.4-0.5-0.9-0.6
			c-0.5-0.2-1-0.1-1.3,0c-0.4,0.2-0.7,0.5-0.8,1c-0.2,0.7-0.7,0.9-1.3,0.7c-0.3-0.1-0.5-0.3-0.7-0.5c-0.1-0.2-0.1-0.5,0-0.9
			c0.2-0.6,0.5-1.1,0.9-1.5s1-0.6,1.7-0.8c0.7-0.1,1.5,0,2.3,0.2c1,0.3,1.8,0.8,2.2,1.5c0.4,0.7,0.5,1.5,0.2,2.4
			c-0.3,0.9-0.9,1.7-2,2.4c-1.1,0.7-2.4,1.2-4.1,1.5l4,1.1C468.4,441.2,468.5,441.3,468.6,441.5z"/>
	</g>
</g>
<g>
	<g>
		<path class="st2" d="M283.5,406.7c-0.4,0-0.7-0.3-1-0.7l-0.1-0.2c-0.7-1.5-1.4-3.1-2.1-4.7c-0.7-1.7-1.3-2.9-1.6-3.8l-1.3,1.4
			l-0.2,0.2c-0.3,0.2-0.5,0.2-0.8,0.1c-0.3-0.1-0.5-0.3-0.7-0.6l-0.1-0.2c-0.1-0.3-0.2-0.5-0.1-0.8c0-0.2,0.2-0.6,0.5-1
			c0.3-0.4,0.8-0.9,1.4-1.6l0.7-0.7c0.3-0.3,0.5-0.5,0.7-0.6c0.4-0.2,0.8-0.3,1.1-0.2c0.3,0.1,0.6,0.3,0.8,0.7
			c0.1,0.2,0.2,0.4,0.3,0.6c0.4,1.2,1.9,4.5,4.3,9.9c0.4,0.9,0.2,1.6-0.7,2.2C284.2,406.6,283.9,406.7,283.5,406.7z"/>
		<path class="st2" d="M297.4,395.7c0.3,0.1,0.5,0.3,0.7,0.6c0.2,0.4,0.3,0.7,0.2,1.2c-0.1,0.4-0.3,0.7-0.7,1
			c-0.7,0.4-1.7,0.9-3,1.6c-0.3,0.1-0.8,0.4-1.5,0.8c-0.7,0.4-1.3,0.7-1.7,0.9c-0.2,0.1-0.4,0.3-0.7,0.7c-0.1,0.1-0.2,0.2-0.3,0.3
			c-0.2,0.2-0.3,0.3-0.5,0.4c-0.2,0.1-0.5,0.1-0.7,0c-0.3-0.1-0.5-0.4-0.8-0.8c-0.3-0.4-0.4-0.8-0.3-1.2s0.2-0.8,0.6-1.2
			c0.7-1,1.2-2,1.7-3.2c0.4-1.1,0.7-2.2,0.7-3.3c0-1-0.1-1.9-0.5-2.6c-0.3-0.5-0.7-0.9-1.1-1c-0.4-0.1-0.8,0-1.4,0.3
			c-0.6,0.4-1,0.8-1.1,1.4c-0.2,0.5-0.1,1.1,0.3,1.7c0.5,0.8,0.3,1.5-0.5,1.9c-0.4,0.2-0.7,0.3-1.1,0.2s-0.6-0.3-0.9-0.7
			c-0.4-0.7-0.6-1.4-0.6-2.2c0-0.8,0.3-1.6,0.8-2.4c0.5-0.8,1.3-1.5,2.3-2.1c1.2-0.8,2.4-1,3.5-0.8c1.1,0.2,1.9,0.8,2.6,1.9
			c0.6,1,0.8,2.4,0.6,4.1c-0.2,1.7-0.9,3.5-2.1,5.4l4.6-2.9C296.8,395.6,297.1,395.6,297.4,395.7z"/>
	</g>
</g>
<g>
	<g>
		<path class="st2" d="M105.6,499.1c-0.2,0.8-0.5,1.4-1.1,1.9c-0.6,0.5-1.3,0.8-2.2,1c-0.9,0.2-1.9,0.1-2.9-0.1
			c-1.5-0.3-2.7-0.8-3.4-1.6c-0.7-0.8-1-1.7-0.8-2.8c0.1-0.7,0.5-1.3,1-1.7c0.5-0.5,1.3-0.9,2.3-1.2c-0.5-0.5-0.8-1-1-1.6
			s-0.2-1.2-0.1-1.7c0.3-1.3,0.9-2.1,2-2.7c1.1-0.5,2.4-0.6,4.1-0.3c1.3,0.3,2.3,0.8,3,1.5s0.9,1.6,0.7,2.6c-0.1,0.7-0.5,1.3-1,1.8
			c-0.5,0.5-1.3,0.9-2.3,1.2C105.3,496.5,105.9,497.8,105.6,499.1z M101.8,499.6c0.5-0.2,0.8-0.5,0.8-0.9c0.1-0.3,0-0.7-0.4-1.1
			c-0.3-0.4-0.9-0.9-1.8-1.5c-0.8,0.2-1.4,0.4-1.7,0.7c-0.4,0.3-0.6,0.6-0.7,1c-0.1,0.4,0,0.8,0.4,1.1c0.3,0.3,0.8,0.5,1.5,0.7
			C100.7,499.8,101.4,499.8,101.8,499.6z M101.2,490.7c-0.4,0.2-0.7,0.6-0.8,1.1c-0.1,0.7,0.3,1.5,1.4,2.2c0.9-0.2,1.5-0.5,1.9-0.8
			c0.4-0.3,0.6-0.6,0.7-1c0.2-0.9-0.3-1.4-1.5-1.7C102.2,490.4,101.6,490.5,101.2,490.7z"/>
	</g>
</g>
<g>
	<g>
		<path class="st2" d="M104.5,363.6c0.4,0.7,0.6,1.4,0.6,2.1c-0.1,0.8-0.3,1.5-0.9,2.2c-0.5,0.7-1.2,1.4-2.2,2
			c-1.3,0.8-2.5,1.2-3.5,1.2c-1.1,0-1.9-0.5-2.5-1.4c-0.4-0.6-0.5-1.2-0.5-1.9c0-0.7,0.3-1.5,0.8-2.4c-0.7,0-1.3-0.2-1.8-0.4
			c-0.5-0.3-1-0.7-1.3-1.2c-0.7-1.1-0.8-2.2-0.4-3.3c0.4-1.1,1.3-2.1,2.7-3c1.1-0.7,2.2-1.1,3.2-1c1,0,1.8,0.5,2.3,1.3
			c0.4,0.6,0.6,1.3,0.6,2c0,0.7-0.3,1.5-0.8,2.5C102.5,362,103.7,362.4,104.5,363.6z M102.1,366.6c0.2-0.5,0.2-0.9,0-1.2
			c-0.2-0.3-0.5-0.5-1-0.5c-0.5-0.1-1.3,0-2.4,0.2c-0.4,0.7-0.7,1.2-0.7,1.7c0,0.5,0,0.9,0.3,1.2c0.2,0.4,0.6,0.6,1.1,0.6
			c0.5,0,1-0.2,1.5-0.6C101.5,367.5,101.9,367.1,102.1,366.6z M95.4,360.7c-0.2,0.5-0.1,0.9,0.2,1.3c0.4,0.6,1.3,0.8,2.6,0.6
			c0.5-0.8,0.7-1.4,0.8-1.9c0.1-0.5,0-0.9-0.2-1.2c-0.5-0.7-1.2-0.8-2.2-0.1C96,359.8,95.6,360.2,95.4,360.7z"/>
	</g>
</g>
<g>
	<path class="st2" d="M521.4,400.4c0.2-0.5,0.7-0.9,1.4-1.2l0.4-0.1c2.4-0.5,5-1.1,7.6-1.6c2.7-0.5,4.7-0.9,6.2-1.1l-1.7-2.4
		l-0.2-0.4c-0.1-0.4-0.1-0.8,0.2-1.2c0.3-0.4,0.6-0.6,1-0.8l0.3-0.1c0.4-0.1,0.8-0.1,1.2,0.1c0.3,0.1,0.8,0.5,1.3,1
		c0.5,0.6,1.1,1.4,1.9,2.6l0.8,1.3c0.3,0.5,0.5,0.9,0.6,1.2c0.2,0.7,0.2,1.2,0,1.7c-0.2,0.4-0.7,0.8-1.3,1c-0.3,0.1-0.6,0.2-0.9,0.2
		c-1.9,0.2-7.2,1.3-15.8,3.1c-1.5,0.3-2.4-0.3-2.9-1.7C521.2,401.5,521.2,401,521.4,400.4z"/>
	<path class="st2" d="M532.9,424.3c-0.2,0.4-0.6,0.6-1.1,0.8c-0.6,0.2-1.2,0.2-1.8,0c-0.6-0.2-1-0.6-1.2-1.3c-0.4-1.1-0.8-2.7-1.4-5
		c-0.1-0.4-0.3-1.2-0.7-2.4c-0.3-1.2-0.6-2.1-0.8-2.8c-0.1-0.3-0.3-0.7-0.7-1.2c-0.1-0.1-0.2-0.3-0.4-0.6c-0.2-0.3-0.3-0.6-0.4-0.8
		c-0.1-0.4-0.1-0.7,0.2-1.1c0.2-0.4,0.7-0.6,1.4-0.9c0.7-0.2,1.3-0.3,1.9-0.1c0.5,0.2,1.1,0.6,1.6,1.2c1.2,1.3,2.6,2.5,4.1,3.5
		c1.5,1,3,1.7,4.5,2.1c1.5,0.4,2.8,0.4,3.9,0.1c0.9-0.3,1.5-0.7,1.8-1.3c0.3-0.5,0.3-1.2,0-2.1c-0.3-1-0.9-1.7-1.6-2.1
		c-0.8-0.4-1.6-0.5-2.6-0.1c-1.3,0.5-2.2,0-2.7-1.3c-0.2-0.6-0.2-1.2,0-1.7s0.7-0.8,1.4-1.1c1.1-0.4,2.3-0.4,3.4-0.2
		c1.2,0.3,2.2,0.9,3.2,1.9c1,1,1.8,2.3,2.3,4c0.7,2,0.7,3.8,0.1,5.3c-0.6,1.5-1.9,2.6-3.7,3.2c-1.7,0.6-3.8,0.4-6.2-0.4
		c-2.4-0.9-4.8-2.5-7.2-4.8l2.8,7.8C533.1,423.6,533.1,424,532.9,424.3z"/>
</g>
<path class="st5" d="M507.3,548.9c0,0,24.8-33.3,66.6-8.5S526.6,588,515,571.1"/>
<path class="st5" d="M301.6,559.3c0,0-24.8,33.3-66.6,8.5c-41.8-24.8,47.2-47.6,58.8-30.8"/>
<g>
	<path class="st2" d="M250.1,552.4c0.2,0,0.4,0.1,0.6,0.2c0.1,0.2,0.2,0.4,0.2,0.6c0,0.5-0.1,0.9-0.3,1.2c-0.2,0.3-0.5,0.5-0.9,0.6
		c-0.7,0.2-1.5,0.4-2.4,0.4c-0.7,0-1.4-0.1-2-0.3c-0.5,0.8-1,1.5-1.5,2.3c-0.6,0.9-1.2,1.5-1.7,1.9c-0.5,0.3-1,0.5-1.6,0.5
		c-0.7,0-1.2-0.3-1.5-0.8c-0.4-0.5-0.6-1.3-0.7-2.4c-0.2-2.2-0.3-4.2-0.3-5.9v-0.8c0-0.5,0.2-0.9,0.4-1.1c0.3-0.2,0.7-0.3,1.2-0.3
		c0.4,0,0.7,0.1,0.9,0.3c0.2,0.2,0.3,0.5,0.3,0.9c0,1.8,0.1,4.2,0.3,7.2c1-1.4,1.7-2.6,2.2-3.4c-0.2-0.5-0.4-1-0.4-1.7
		c0-0.5,0.1-1.1,0.4-1.6c0.2-0.5,0.6-0.9,1-1.2c0.4-0.3,0.9-0.5,1.4-0.5c0.5,0,0.8,0.2,1.1,0.5s0.4,0.8,0.4,1.4
		c0,0.7-0.2,1.5-0.6,2.5c0.6,0,1.4-0.2,2.4-0.4l0.6-0.1C249.9,552.4,250,552.4,250.1,552.4z"/>
	<path class="st2" d="M261.5,552.6c0.1,0.2,0.2,0.5,0.2,0.8c0,0.8-0.2,1.2-0.7,1.4c-1,0.3-2,0.5-3.2,0.6c-0.3,1.3-0.9,2.4-1.8,3.2
		s-1.9,1.2-3,1.2c-1,0-1.8-0.2-2.5-0.7c-0.7-0.5-1.2-1.1-1.5-1.8c-0.4-0.8-0.5-1.6-0.5-2.5c0-1.2,0.2-2.3,0.7-3.3s1.1-1.7,1.9-2.2
		c0.8-0.5,1.7-0.8,2.7-0.8c1.2,0,2.2,0.4,2.9,1.3s1.2,1.9,1.3,3.1c0.8,0,1.6-0.2,2.7-0.5c0.1,0,0.2,0,0.3,0
		C261.2,552.3,261.4,552.4,261.5,552.6z M254.5,556.6c0.4-0.4,0.6-1,0.8-1.8c-0.5-0.3-0.9-0.8-1.1-1.3c-0.3-0.5-0.4-1.1-0.4-1.7
		c0-0.3,0-0.5,0.1-0.8h-0.1c-0.6,0-1.2,0.3-1.6,0.9c-0.4,0.6-0.6,1.5-0.6,2.6c0,0.9,0.2,1.6,0.5,2c0.3,0.5,0.7,0.7,1.2,0.7
		C253.7,557.3,254.1,557,254.5,556.6z"/>
	<path class="st2" d="M273.7,554.6c0.1,0.2,0.2,0.5,0.2,0.8c0,0.6-0.2,1.1-0.5,1.5c-0.7,0.8-1.4,1.5-2.2,2.1
		c-0.8,0.6-1.6,0.9-2.3,0.9c-1.2,0-2.1-0.7-2.8-2.1c-0.7,0.8-1.3,1.4-1.8,1.7c-0.5,0.3-1.1,0.4-1.8,0.4c-1,0-1.8-0.4-2.4-1.1
		c-0.6-0.7-0.9-1.7-0.9-2.8c0-1.3,0.3-2.5,0.8-3.6s1.3-2,2.2-2.7c1-0.7,2-1.1,3.2-1.2c0.3-3.1,0.9-5.8,1.7-8c0.9-2.2,2-3.3,3.4-3.3
		c0.7,0,1.3,0.3,1.7,0.9s0.7,1.6,0.7,2.8c0,1.8-0.4,3.9-1.3,6.3s-2.1,4.9-3.5,7.4c0.1,0.9,0.2,1.6,0.4,2c0.2,0.4,0.5,0.6,0.8,0.6
		c0.4,0,0.9-0.2,1.3-0.6c0.4-0.4,1-1,1.8-1.9c0.2-0.2,0.4-0.3,0.6-0.3C273.4,554.3,273.6,554.4,273.7,554.6z M264.4,557
		c0.3-0.2,0.7-0.7,1.2-1.4c-0.2-0.9-0.2-1.8-0.2-2.9c0-0.4,0-1,0-1.9c-0.9,0.3-1.6,0.9-2.2,1.8c-0.6,0.9-0.9,1.9-0.9,3
		c0,1.2,0.4,1.8,1.2,1.8C263.8,557.4,264.1,557.3,264.4,557z M269.5,541.1c-0.3,1.1-0.6,2.5-0.8,4.2c-0.2,1.7-0.4,3.6-0.5,5.5
		c1.8-3.9,2.7-7,2.7-9.4c0-0.6-0.1-1.1-0.2-1.4c-0.1-0.3-0.2-0.5-0.4-0.5C270.1,539.5,269.8,540,269.5,541.1z"/>
	<path class="st2" d="M284.7,554.7c0.1,0.2,0.2,0.5,0.2,0.8c0,0.4-0.1,0.7-0.2,0.9s-0.3,0.4-0.5,0.6l-4.6,3.1
		c-0.6,3.3-1.4,5.9-2.4,7.8c-1,1.9-2.2,2.8-3.8,2.8c-0.8,0-1.5-0.3-2-0.8s-0.8-1.2-0.8-2c0-0.8,0.2-1.5,0.5-2.3
		c0.3-0.8,1-1.7,1.9-2.7c0.9-1,2.3-2.2,4-3.5l0.1-0.6c0.1-0.6,0.2-1.4,0.4-2.5c-0.3,1.2-0.8,2-1.3,2.6c-0.6,0.6-1.2,0.9-1.8,0.9
		c-0.7,0-1.3-0.3-1.8-1s-0.7-1.5-0.7-2.5c0-1.2,0.1-2.3,0.2-3.3c0.2-1,0.4-2.1,0.8-3.2c0.2-0.5,0.4-0.8,0.7-1s0.7-0.3,1.4-0.3
		c0.4,0,0.6,0.1,0.7,0.2c0.1,0.1,0.2,0.3,0.2,0.5c0,0.1-0.1,0.6-0.3,1.3c-0.2,0.6-0.3,1.1-0.4,1.6c-0.1,0.7-0.2,1.3-0.3,1.9
		c-0.1,0.6-0.1,1.1-0.1,1.5c0,0.6,0.2,0.9,0.5,0.9c0.2,0,0.5-0.2,0.9-0.7c0.4-0.5,0.7-1.2,1.2-2.2c0.4-1,0.8-2.2,1.2-3.6
		c0.1-0.5,0.3-0.8,0.6-1c0.3-0.2,0.7-0.3,1.2-0.3c0.4,0,0.6,0,0.8,0.1s0.2,0.3,0.2,0.5c0,0.4-0.2,1.8-0.6,4.1l-0.6,3.9
		c1.2-0.9,2.4-1.8,3.6-2.5c0.2-0.1,0.4-0.2,0.6-0.2C284.5,554.4,284.6,554.5,284.7,554.7z M275.1,566.9c0.5-0.9,1-2.5,1.5-4.6
		c-1.2,1-2.1,2-2.7,2.8c-0.6,0.9-0.8,1.6-0.8,2.2c0,0.3,0.1,0.5,0.2,0.7c0.1,0.2,0.3,0.3,0.5,0.3
		C274.1,568.3,274.6,567.8,275.1,566.9z"/>
</g>
<g>
	<path class="st2" d="M542.1,557.3c0.1,0,0.2,0,0.3,0.1c0.1,0.1,0.1,0.2,0.1,0.4c0,0.3-0.1,0.5-0.2,0.7c-0.1,0.2-0.3,0.3-0.5,0.4
		c-0.4,0.1-0.9,0.2-1.4,0.2c-0.4,0-0.8-0.1-1.2-0.2c-0.3,0.4-0.6,0.9-0.9,1.4c-0.4,0.5-0.7,0.9-1,1.1c-0.3,0.2-0.6,0.3-0.9,0.3
		c-0.4,0-0.7-0.1-0.9-0.4c-0.2-0.3-0.4-0.8-0.4-1.4c-0.1-1.3-0.2-2.5-0.2-3.4v-0.5c0-0.3,0.1-0.5,0.3-0.6c0.2-0.1,0.4-0.2,0.7-0.2
		c0.2,0,0.4,0.1,0.5,0.2c0.1,0.1,0.2,0.3,0.2,0.5c0,1.1,0.1,2.5,0.2,4.2c0.6-0.8,1-1.5,1.3-2c-0.1-0.3-0.2-0.6-0.2-1
		c0-0.3,0.1-0.6,0.2-0.9c0.1-0.3,0.3-0.5,0.6-0.7c0.2-0.2,0.5-0.3,0.8-0.3c0.3,0,0.5,0.1,0.7,0.3s0.3,0.5,0.3,0.8
		c0,0.4-0.1,0.9-0.3,1.4c0.4,0,0.8-0.1,1.4-0.2l0.4-0.1C542,557.3,542,557.3,542.1,557.3z"/>
	<path class="st2" d="M548.7,557.5c0.1,0.1,0.1,0.3,0.1,0.5c0,0.4-0.1,0.7-0.4,0.8c-0.6,0.2-1.2,0.3-1.8,0.3c-0.2,0.8-0.5,1.4-1,1.9
		c-0.5,0.5-1.1,0.7-1.8,0.7c-0.6,0-1-0.1-1.4-0.4c-0.4-0.3-0.7-0.6-0.9-1.1c-0.2-0.4-0.3-0.9-0.3-1.5c0-0.7,0.1-1.3,0.4-1.9
		c0.3-0.6,0.6-1,1.1-1.3c0.5-0.3,1-0.5,1.6-0.5c0.7,0,1.3,0.2,1.7,0.7c0.4,0.5,0.7,1.1,0.8,1.8c0.4,0,1-0.1,1.6-0.3
		c0.1,0,0.1,0,0.2,0C548.6,557.3,548.7,557.4,548.7,557.5z M544.6,559.8c0.2-0.2,0.4-0.6,0.4-1c-0.3-0.2-0.5-0.5-0.7-0.8
		c-0.2-0.3-0.2-0.7-0.2-1c0-0.1,0-0.3,0-0.4h-0.1c-0.4,0-0.7,0.2-0.9,0.5s-0.4,0.9-0.4,1.5c0,0.5,0.1,0.9,0.3,1.2
		c0.2,0.3,0.4,0.4,0.7,0.4C544.1,560.2,544.4,560.1,544.6,559.8z"/>
	<path class="st2" d="M555.8,558.6c0.1,0.1,0.1,0.3,0.1,0.5c0,0.4-0.1,0.7-0.3,0.9c-0.4,0.5-0.8,0.9-1.3,1.2
		c-0.5,0.3-0.9,0.5-1.4,0.5c-0.7,0-1.3-0.4-1.6-1.2c-0.4,0.5-0.7,0.8-1,1s-0.6,0.3-1,0.3c-0.6,0-1-0.2-1.4-0.6
		c-0.4-0.4-0.6-1-0.6-1.7c0-0.7,0.2-1.4,0.5-2.1c0.3-0.6,0.8-1.2,1.3-1.6c0.6-0.4,1.2-0.6,1.9-0.7c0.2-1.8,0.5-3.4,1-4.6
		c0.5-1.3,1.2-1.9,2-1.9c0.4,0,0.7,0.2,1,0.5c0.3,0.4,0.4,0.9,0.4,1.7c0,1-0.3,2.3-0.8,3.7c-0.5,1.4-1.2,2.8-2.1,4.3
		c0,0.5,0.1,0.9,0.2,1.2c0.1,0.2,0.3,0.4,0.5,0.4c0.3,0,0.5-0.1,0.8-0.3c0.3-0.2,0.6-0.6,1.1-1.1c0.1-0.1,0.2-0.2,0.4-0.2
		C555.7,558.5,555.8,558.5,555.8,558.6z M550.4,560c0.2-0.1,0.4-0.4,0.7-0.8c-0.1-0.5-0.1-1.1-0.1-1.7c0-0.2,0-0.6,0-1.1
		c-0.5,0.2-0.9,0.5-1.3,1s-0.5,1.1-0.5,1.8c0,0.7,0.2,1,0.7,1C550.1,560.3,550.2,560.2,550.4,560z M553.4,550.8
		c-0.2,0.6-0.3,1.5-0.5,2.5s-0.2,2.1-0.3,3.2c1-2.3,1.6-4.1,1.6-5.5c0-0.4,0-0.6-0.1-0.8s-0.1-0.3-0.2-0.3
		C553.7,549.8,553.6,550.1,553.4,550.8z"/>
	<path class="st2" d="M562.3,558.7c0.1,0.1,0.1,0.3,0.1,0.4c0,0.2,0,0.4-0.1,0.5s-0.2,0.2-0.3,0.3l-2.7,1.8
		c-0.4,1.9-0.8,3.5-1.4,4.6c-0.6,1.1-1.3,1.7-2.2,1.7c-0.5,0-0.9-0.1-1.2-0.4s-0.4-0.7-0.4-1.2c0-0.4,0.1-0.9,0.3-1.3
		c0.2-0.5,0.6-1,1.1-1.6c0.5-0.6,1.3-1.3,2.3-2l0-0.3c0.1-0.3,0.1-0.8,0.2-1.5c-0.2,0.7-0.4,1.2-0.8,1.5s-0.7,0.5-1.1,0.5
		c-0.4,0-0.8-0.2-1-0.6c-0.3-0.4-0.4-0.9-0.4-1.4c0-0.7,0-1.3,0.1-1.9c0.1-0.6,0.2-1.2,0.5-1.9c0.1-0.3,0.2-0.5,0.4-0.6
		s0.4-0.2,0.8-0.2c0.2,0,0.3,0,0.4,0.1s0.1,0.2,0.1,0.3c0,0.1-0.1,0.3-0.2,0.8c-0.1,0.3-0.2,0.7-0.2,0.9c-0.1,0.4-0.1,0.7-0.2,1.1
		c-0.1,0.3-0.1,0.6-0.1,0.9c0,0.4,0.1,0.5,0.3,0.5c0.1,0,0.3-0.1,0.5-0.4s0.4-0.7,0.7-1.3s0.5-1.3,0.7-2.1c0.1-0.3,0.2-0.5,0.3-0.6
		s0.4-0.2,0.7-0.2c0.2,0,0.4,0,0.4,0.1c0.1,0.1,0.1,0.1,0.1,0.3c0,0.2-0.1,1-0.4,2.4l-0.4,2.3c0.7-0.5,1.4-1,2.1-1.5
		c0.1-0.1,0.2-0.1,0.3-0.1C562.1,558.5,562.2,558.6,562.3,558.7z M556.6,565.8c0.3-0.5,0.6-1.4,0.9-2.7c-0.7,0.6-1.2,1.2-1.6,1.7
		c-0.3,0.5-0.5,0.9-0.5,1.3c0,0.2,0,0.3,0.1,0.4c0.1,0.1,0.2,0.2,0.3,0.2C556.1,566.6,556.4,566.3,556.6,565.8z"/>
</g>
<path class="st5" d="M70,531.8c0,0,56.7,7.1,65.5-16.9s8.6-86.6-1.4-77.7s-57.6,35.2-57.4,14.3C77,430.5,70,531.8,70,531.8z"/>
<path class="st5" d="M121.4,299.2c0,0-72.8,15.2-63.7,22.8c19.6,16.4,13.7,65,8.5,77.3c-9.5,22.7,76.4,19.2,62.1,0.6
	C115.6,383.4,121.4,299.2,121.4,299.2z"/>
</svg>
