<?xml version="1.0" encoding="UTF-8"?>
<svg xmlns="http://www.w3.org/2000/svg" version="1.1" viewBox="0 0 841.89 595.28">
  <defs>
    <style>
      .cls-1 {
        fill: #5f68ce;
      }

      .cls-1, .cls-2, .cls-3, .cls-4, .cls-5 {
        stroke-width: 0px;
      }

      .cls-2 {
        fill: #ffe1f1;
      }

      .cls-3 {
        fill: #e3e6ff;
      }

      .cls-4 {
        fill: #fff;
      }

      .cls-5 {
        fill: #f05ca1;
      }
    </style>
  </defs>
  <g id="Layer_3" data-name="Layer 3">
    <rect class="cls-4" width="841.89" height="595.28"/>
    <circle class="cls-3" cx="489.76" cy="238.3" r="140.97"/>
    <circle class="cls-2" cx="0" cy="-131.69" r="300.37"/>
  </g>
  <g id="Layer_1" data-name="Layer 1">
    <path class="cls-2" d="M0,453.6s108.81-110.28,248.17-84.22,178.46,71.21,282.73,40.11,133.34-90.24,226.58-109.29c50.14-10.24,84.41,12.03,84.41,12.03v283.04H0v-141.68Z"/>
  </g>
  <g id="Layer_2" data-name="Layer 2">
    <g>
      <path class="cls-1" d="M-28.97,389.94h223.62c22.66,0,41.06,18.4,41.06,41.06h0c0,2.02-1.64,3.66-3.66,3.66H-28.97c-2.02,0-3.66-1.64-3.66-3.66v-37.39c0-2.02,1.64-3.66,3.66-3.66Z" transform="translate(-192.55 106.01) rotate(-30)"/>
      <path class="cls-1" d="M178.56,318.14h268.35v44.72h-223.62c-24.68,0-44.72-20.04-44.72-44.72h0Z" transform="translate(-128.36 201.99) rotate(-30)"/>
      <path class="cls-1" d="M416.57,233.98h63.44c7.7,0,12.51,8.33,8.66,15l-31.72,54.94c-3.85,6.67-13.47,6.67-17.32,0l-31.72-54.94c-3.85-6.67.96-15,8.66-15Z"/>
    </g>
    <g>
      <path class="cls-5" d="M-92.32,452.36h400.98c24.84,0,45,20.16,45,45v25.98c0,2.22-1.8,4.02-4.02,4.02H-92.32c-2.22,0-4.02-1.8-4.02-4.02v-66.97c0-2.22,1.8-4.02,4.02-4.02Z" transform="translate(-227.69 129.96) rotate(-30)"/>
      <path class="cls-5" d="M257.83,331.96h450v75h-405c-24.84,0-45-20.16-45-45v-30h0Z" transform="translate(-120.04 290.91) rotate(-30)"/>
      <path class="cls-5" d="M645.22,190.82h129.83c7.7,0,12.51,8.33,8.66,15l-64.91,112.43c-3.85,6.67-13.47,6.67-17.32,0l-64.91-112.43c-3.85-6.67.96-15,8.66-15Z"/>
    </g>
  </g>
</svg>