<?xml version="1.0" encoding="UTF-8"?>
<svg id="Layer_1" data-name="Layer 1" xmlns="http://www.w3.org/2000/svg" version="1.1" viewBox="0 0 841.9 595.3">
  <defs>
    <style>
      .cls-1 {
        stroke-linecap: round;
        stroke-linejoin: round;
      }

      .cls-1, .cls-2, .cls-3 {
        fill: none;
        stroke-width: 4px;
      }

      .cls-1, .cls-3 {
        stroke: #2c338d;
      }

      .cls-4 {
        fill: #f7f0e7;
      }

      .cls-4, .cls-5, .cls-6, .cls-7 {
        stroke-width: 0px;
      }

      .cls-2 {
        stroke: #95257a;
      }

      .cls-2, .cls-3 {
        stroke-miterlimit: 10;
      }

      .cls-5 {
        fill: #95257a;
      }

      .cls-6 {
        fill: #2c338d;
      }

      .cls-7 {
        fill: #fff;
      }
    </style>
  </defs>
  <polygon class="cls-7" points="841.9 595.3 679.1 595.3 0 595.3 0 0 841.9 0 841.9 541.2 841.9 595.3"/>
  <path class="cls-4" d="M546.1,0h295.8v295.8h-56.7c-132,0-239.1-107.1-239.1-239.1V0h0Z"/>
  <g>
    <path class="cls-6" d="M381.3,69.2c-.8,1-2,1.8-3.4,2.4s-3.1.8-4.9.6l-1.8,5.6c-.7,2.2-1.9,3.1-3.7,2.9-1,0-1.8-.5-2.6-1.2-.7-.7-1.3-1.6-1.6-2.9-.3-1.2-.4-2.7-.2-4.4.4-3.2,1.3-5.9,2.6-8,1.3-2.1,3-3.6,4.9-4.5s3.9-1.2,6-.9c1.5.2,2.7.6,3.7,1.3s1.7,1.5,2.1,2.4c.4,1,.5,2,.4,3.1,0,1.3-.6,2.5-1.5,3.6h0ZM379.3,65.4c.1-1.1-.1-1.9-.7-2.7s-1.6-1.2-3.1-1.4c-1.6-.2-3.1,0-4.5,1s-2.5,2.2-3.4,3.9-1.5,3.8-1.8,6.1c-.1,1-.1,1.9,0,2.7s.3,1.4.5,1.9.5.7.8.8c.4,0,.8-.5,1.1-1.5l1.4-4.4c-.6-.2-.9-.2-.8-.2-.5,0-.8-.3-.9-.6-.1-.2-.1-.5-.1-.8s.2-.6.4-.8.5-.2.9-.2.3,0,.4,0c.4,0,.7.2.9.2.4-1.2.9-2.8,1.5-4.9.2-.5.4-.9.8-1.1s.8-.2,1.2-.2c.5,0,.9.2,1.1.4s.3.6.2,1c0,.2-.1.5-.1.6l-1.4,4.5c3.3,0,5.2-1.5,5.6-4.4h0Z"/>
    <path class="cls-6" d="M394,74.4c.1.2.1.5.1.8-.1.8-.4,1.2-.9,1.3-1,.2-2.1.3-3.2.2-.5,1.3-1.2,2.3-2.2,3s-2,1-3.2.8c-1,0-1.7-.5-2.4-1-.6-.6-1-1.2-1.3-2s-.3-1.7-.2-2.5c.2-1.2.5-2.2,1.1-3.1s1.3-1.5,2.2-2,1.8-.6,2.8-.4c1.2.2,2.1.7,2.8,1.6s.9,2,.9,3.2c.8,0,1.7,0,2.7,0h.3c.3-.2.4,0,.5.2h0ZM386.6,77.4c.4-.4.8-.9,1-1.7-.5-.4-.8-.9-1-1.5s-.2-1.2-.2-1.8.1-.5.2-.8h-.1c-.6,0-1.2.2-1.7.7s-.8,1.4-1,2.5c-.1.9,0,1.6.2,2.1.3.5.6.8,1.1.8.6.3,1,.1,1.5-.3h0ZM386.8,67.4c-.1-.2-.2-.4-.2-.6s.1-.3.2-.4l2.9-4.7c.2-.3.4-.5.6-.6s.5-.2.8,0c.4,0,.7.2,1,.6s.4.7.3,1.1c-.1.4-.3.9-.7,1.3l-3.6,3.5c-.2.2-.5.3-.8.3-.2-.1-.4-.2-.5-.4h0Z"/>
    <path class="cls-6" d="M405.9,77.9c.1.2.1.5.1.8-.1.6-.3,1.1-.6,1.4-.8.7-1.6,1.3-2.4,1.8-.9.5-1.7.6-2.4.5-1.2-.2-2-1-2.5-2.5-.8.8-1.4,1.2-2,1.5s-1.1.3-1.8.2c-1,0-1.7-.6-2.2-1.4s-.7-1.8-.6-2.9c.2-1.3.6-2.4,1.3-3.4s1.5-1.8,2.6-2.4,2.1-.8,3.3-.8c.7-3,1.6-5.6,2.8-7.7,1.1-2.1,2.4-3,3.8-2.8.7,0,1.2.5,1.6,1.2s.5,1.6.3,2.9c-.2,1.8-.9,3.8-2.1,6.1-1.2,2.3-2.7,4.6-4.5,6.9-.1.9,0,1.6.2,2s.4.7.7.7c.4,0,.9,0,1.4-.4s1.2-.9,2-1.7c.2-.2.5-.3.7-.2.1,0,.2,0,.3.2h0ZM396.4,79.1c.3-.2.8-.6,1.3-1.2,0-.9,0-1.8.1-2.9,0-.4.1-1,.3-1.8-.9.2-1.7.6-2.4,1.5-.7.8-1.1,1.8-1.3,2.9-.1,1.2.2,1.8,1,1.9.3,0,.6-.2,1-.4h0ZM403.5,64c-.4,1-.9,2.4-1.3,4.1s-.8,3.5-1.2,5.4c2.3-3.6,3.6-6.6,3.9-9,.1-.6.1-1.1,0-1.4-.1-.3-.2-.5-.3-.6-.3,0-.7.4-1.1,1.5h0Z"/>
    <path class="cls-6" d="M404.3,81.8c-.4-.8-.5-1.8-.3-3,.1-.7.3-1.6.6-2.7s.7-2.1,1.1-3c.2-.5.4-.8.7-1,.3-.2.7-.2,1.2,0,.8,0,1.2.4,1.1,1,0,.4-.3,1.3-.8,2.7-.6,1.7-1,2.8-1,3.5-.1.5,0,.8,0,1.1.1.3.3.4.6.5.3,0,.7,0,1.1-.5s1.1-.9,2-1.7c.2-.2.5-.3.7-.2.2,0,.4,0,.5.3.1.2.1.5.1.8-.1.6-.3,1.1-.6,1.4-1.8,1.7-3.4,2.5-4.8,2.3-1.1-.1-1.8-.6-2.2-1.4h0ZM406.8,69.8c-.3-.3-.4-.8-.3-1.4s.4-1,.8-1.3c.5-.3,1-.4,1.7-.3.6,0,1,.3,1.4.6s.5.8.4,1.3c-.1.6-.4,1.1-.8,1.4-.5.3-1,.4-1.7.3-.7,0-1.2-.3-1.5-.6h0Z"/>
    <path class="cls-6" d="M410.2,82.7c-.4-.7-.5-1.6-.4-2.6.1-1.2.4-2.3.7-3.2.3-1,.7-2,1.2-3.1.2-.5.5-.8.8-.9s.8-.2,1.4,0c.4,0,.6,0,.7.3s.2.3.1.5c0,0-.2.5-.4,1.2-.2.6-.4,1.1-.6,1.5-.5,1.6-.8,2.7-.9,3.3v.7c0,0,.2.2.4.2s.6-.2,1-.6.9-1.1,1.4-2,1.1-2.1,1.6-3.4c.2-.5.4-.8.7-.9s.7-.2,1.2-.2c.4,0,.6,0,.7.2s.2.3.1.5c0,.4-.4,1.5-1,3.2-.7,2-1.1,3.2-1.2,3.7,0,.3,0,.5.1.7s.3.3.5.3c.3,0,.7,0,1.2-.4s1.1-.9,2-1.7c.2-.2.5-.3.7-.2.2,0,.4,0,.5.3.1.2.1.5.1.8-.1.6-.3,1.1-.6,1.4-.8.8-1.6,1.3-2.5,1.8-.9.4-1.8.6-2.8.5-.8,0-1.3-.5-1.6-1.1s-.4-1.5-.2-2.5c-.4,1-.9,1.8-1.5,2.3s-1.2.7-1.9.6c-.6,0-1.1-.4-1.5-1.1h0Z"/>
    <path class="cls-6" d="M420.9,84.1c-.2-.7-.1-1.7,0-3.1.3-2.1.8-4,1.6-5.8.2-.4.5-.8.8-.9.4-.2.8-.2,1.4,0,.3,0,.5,0,.6.2s.2.2.1.5c0,.2-.2.8-.6,1.7-.2.6-.4,1.2-.6,1.6-.2.5-.3,1-.5,1.7.6-1.2,1.2-2.2,1.9-2.9.7-.8,1.4-1.3,2.1-1.7s1.3-.5,1.9-.4c.5,0,.9.2,1.1.5s.3.7.2,1.2c-.1.5-.3,1.4-.8,2.7-.2.6-.3,1-.4,1.2.7-1.3,1.4-2.3,2.2-3,.8-.8,1.5-1.3,2.1-1.6.7-.3,1.3-.4,1.8-.3s.9.2,1.1.5.3.7.2,1.2c0,.4-.2,1.2-.6,2.3-.3.9-.5,1.8-.7,2.7s-.4,1.8-.5,2.9c-.1.6-.3,1-.5,1.2s-.7.3-1.2.2c-.5,0-.9-.2-1.1-.6-.2-.3-.3-.7-.2-1.3.1-.6.3-1.7.7-3.1.4-1.2.6-2,.6-2.4s0-.4-.2-.4-.5.2-1,.7-.9,1.1-1.4,2-.9,1.7-1.3,2.6c-.3.7-.5,1.2-.8,1.4-.3.2-.6.3-1.2.2-.5,0-.9-.4-1.1-.9s-.2-1.2-.2-1.9c.1-.6.3-1.5.6-2.6.3-1,.4-1.7.5-2,0-.2,0-.4-.2-.4s-.6.2-1,.7-.9,1.2-1.3,2.1c-.5.8-.8,1.7-1.2,2.5-.3.7-.5,1.2-.8,1.4-.3.2-.6.3-1.1.2-.5.4-.9,0-1-.7h0Z"/>
  </g>
  <g>
    <path class="cls-6" d="M305,216.6c-.4,1.1-.4,2.6,0,4.4.3-.8.8-1.4,1.3-1.8.6-.5,1.2-.8,2-1.1,1-.3,1.9-.4,2.8-.3.9.2,1.7.5,2.4,1.1.7.6,1.2,1.3,1.5,2.2.4,1.1.4,2.2.2,3.3-.2,1.1-.7,2-1.6,2.9-.8.8-1.9,1.5-3.2,1.9-2,.7-3.8.6-5.2-.4-1.5-.9-2.6-2.5-3.3-4.7-.7-2-.9-3.9-.8-5.6.2-1.8.7-3.3,1.7-4.5,1-1.3,2.3-2.2,3.9-2.7,1.5-.5,2.8-.6,4-.2,1.2.4,2.1,1.1,2.6,2.2v.3c.3.5.2,1,0,1.3-.2.4-.6.7-1.2.9-.4.1-.8.1-1.1,0-.3-.1-.7-.4-1.1-.9-.3-.4-.7-.6-1.1-.7-.4-.1-.9-.1-1.5.1-1.1.4-1.9,1.2-2.3,2.3h0ZM306.7,222.7c-.3.6-.3,1.3-.1,2.1.2.7.6,1.2,1.1,1.5s1.1.3,1.8.1c.8-.3,1.3-.7,1.6-1.4.3-.7.3-1.4.1-2.2-.2-.7-.6-1.1-1.1-1.4-.5-.3-1.1-.3-1.8-.1-.7.3-1.3.7-1.6,1.4h0Z"/>
    <path class="cls-6" d="M332.9,215.7c.2.7.2,1.3-.1,1.7-.3.4-.9.7-1.7,1l-.6.2.4,1.6c.2.9.3,1.6,0,2-.2.4-.7.7-1.4,1-1,.3-1.8-.1-2.2-1.4-.1-.2-.1-.4-.1-.5l-.3-1.5c-2.8.9-5,1.6-6.4,2.1-.4.1-.9.1-1.3-.2-.5-.3-.8-.7-1-1.4-.1-.4-.2-.8-.2-1.2,0-2.8.4-6,1-9.8.1-.8.4-1.4.6-1.8.3-.4.8-.7,1.6-1,.4-.1.8-.2,1.1,0,.3.1.5.3.6.6s.1.7,0,1.1c-.7,4.1-1.2,7.4-1.2,9.8l4.5-1.5c-.4-1.9-.6-3.7-.8-5.5,0-.7.1-1.2.3-1.6.2-.4.7-.8,1.3-1,1-.3,1.6-.1,1.9.8.1.3.1.5.1.6.2,1.8.5,3.6.8,5.5l1.1-.4c1.1-.3,1.7-.1,2,.8h0Z"/>
    <path class="cls-6" d="M342.9,213.2c-.2-.5-.3-1.1-.4-1.6-.5-2.1-.9-4.7-1.3-7.9-.4-3.1-.8-6.2-1.1-9-.1-.8,0-1.5.3-1.9s.7-.8,1.4-1c.6-.2,1-.2,1.4-.1.3.1.6.4.7.8,0,.1.1.4.1.8v.9c.5,4.2.8,7.3,1,9.3.2,2,.4,3.8.7,5.4.2,1.3.5,2.5.8,3.5.3.8.7,1.2,1.2,1,.4-.1.7-.5,1.1-1.2s.8-1.7,1.4-3c.1-.3.4-.6.7-.7.3-.1.5,0,.7.2s.4.5.5.9c.3.8.3,1.4,0,2-.5,1.3-1.1,2.5-1.7,3.4s-1.5,1.6-2.5,1.9c-2.3.6-3.9-.6-5-3.7h0ZM345.6,194.3c-.3-.1-.5-.4-.6-.8l-1.1-3.9c-.2-.7-.2-1.2.1-1.6.3-.4.7-.7,1.2-.9s.9-.1,1.3,0c.4.2.7.5.9,1.1.1.4.2.7.2,1v3.7c0,.7-.3,1.2-1,1.4-.4,0-.7,0-1,0h0Z"/>
    <path class="cls-6" d="M352,214c-.8-.6-1.4-1.5-1.8-2.8-.5-1.5-.8-2.8-1-4.1s-.3-2.7-.3-4.2.1-1.2.4-1.5c.3-.4.8-.7,1.5-.9.4-.1.7-.2,1-.1s.4.3.5.5.1.7.2,1.7c0,.8.1,1.5.2,2.1.3,2.2.5,3.6.8,4.3.1.4.3.7.4.8.2.1.3.2.6.1.3-.1.6-.5.8-1.2.2-.7.4-1.8.5-3.1s.1-3,0-4.9c0-.6.1-1.1.3-1.5.2-.4.7-.6,1.3-.9s.8-.2,1-.1c.2.1.4.2.5.5.2.5.4,1.9.6,4.3.3,2.7.5,4.3.7,4.9.1.4.3.6.5.8s.5.2.7.1c.4-.1.8-.5,1.2-1.2.4-.7.8-1.7,1.4-3,.1-.3.4-.6.7-.7.3-.1.5,0,.7.2s.4.5.5.9c.3.8.3,1.4,0,2-.5,1.3-1.1,2.5-1.9,3.4-.7,1-1.7,1.7-3,2.1-.9.3-1.7.2-2.4-.4-.7-.6-1.2-1.5-1.7-2.8.1,1.4,0,2.6-.5,3.5-.4.9-1,1.5-1.8,1.8-.9.2-1.8,0-2.6-.6h0Z"/>
    <path class="cls-6" d="M380.2,199c.2.2.4.5.5.9.3.8.3,1.4,0,2-.5,1.2-1.1,2.4-1.8,3.4s-1.6,1.7-2.5,2c-1.5.5-2.9,0-4.3-1.5-.5,1.3-1,2.2-1.5,2.8s-1.2,1-2,1.2c-1.2.4-2.3.3-3.4-.4-1.1-.6-1.8-1.7-2.3-3.1-.5-1.6-.7-3.1-.5-4.7.2-1.5.8-3,1.6-4.2.9-1.2,2-2.2,3.4-2.8-.9-3.9-1.3-7.4-1.1-10.4s1.1-4.8,2.8-5.4c.8-.3,1.7-.1,2.5.4.8.6,1.5,1.6,2,3.2.7,2.2,1,4.9.9,8.2s-.5,6.8-1.3,10.4c.5,1.1.9,1.9,1.3,2.3.4.4.8.5,1.2.4.5-.2,1-.6,1.4-1.2.4-.6.9-1.7,1.4-3.1.1-.3.4-.6.7-.7.5.1.7.1,1,.3h0ZM369.8,205.7c.3-.4.5-1.1.8-2.2-.5-1-1-2.1-1.5-3.4-.2-.5-.4-1.2-.7-2.3-1,.7-1.6,1.7-2,3-.3,1.3-.3,2.7.1,4,.5,1.4,1.2,2,2.2,1.6.5,0,.8-.3,1.1-.7ZM369.5,184.2c.1,1.4.3,3.3.8,5.5s1,4.5,1.7,6.9c.6-5.5.4-9.7-.5-12.5-.2-.7-.5-1.3-.8-1.7s-.5-.5-.7-.5c-.4.1-.6.9-.5,2.3h0Z"/>
    <path class="cls-6" d="M379.9,205.7c-.3-.2-.6-.5-.7-1.1-.1-.2-.1-.4-.2-.8-.9-3.7-1.4-7.1-1.7-10.3,0-.7.1-1.2.4-1.5.3-.4.8-.7,1.6-.9.8-.3,1.4-.1,1.6.6,0,.1.1.3.1.6.5,4.5,1.2,8.1,1.9,11,.2.6.1,1.1-.1,1.5s-.7.7-1.4.9c-.7.1-1.2.1-1.5,0h0ZM377.8,189c-.3-.1-.5-.4-.6-.6,0-.1-.1-.3,0-.6l.7-7c.1-.4.2-.8.4-1.1.2-.3.5-.5.9-.6.5-.2,1-.1,1.5.1.5.2.8.6,1,1.1s.2,1.2-.1,1.8l-2.2,6.1c-.1.4-.4.7-.8.8-.3.1-.5.1-.8,0h0Z"/>
    <path class="cls-6" d="M329.3,251c.3.2.5.5.7.9.2.5.1,1,0,1.5-.2.5-.6.9-1.1,1l-4.9,1.6,1.1,5.6c.1.5,0,1-.3,1.4s-.6.7-1.1.8c-.4.2-.9.1-1.2,0-.4-.2-.6-.5-.7-1.1l-1.1-5.6-4.7,1.6c-.4.2-.8.1-1.2-.1-.3-.2-.6-.5-.7-.9-.2-.5-.1-1,0-1.5.2-.5.6-.8,1.1-1l4.8-1.6-1.1-5.6c-.1-.5,0-1,.2-1.3.3-.4.6-.7,1.1-.8s.9-.1,1.3,0c.4.2.7.5.8,1l1.1,5.6,4.8-1.6c.4,0,.8,0,1.1.1h0Z"/>
    <path class="cls-6" d="M345.7,254.6c-1.4-.7-2.4-2-3-3.8-.5-1.6-.7-3.1-.4-4.5.2-1.4.7-2.6,1.5-3.6s1.7-1.6,2.8-2c1.1-.4,2-.3,2.8.1.8.4,1.4,1.1,1.7,2.1.3.8.3,1.6.2,2.3-.2.7-.6,1.1-1.1,1.3-.4.1-.7.1-1,0s-.5-.3-.6-.6c0-.1-.1-.3-.1-.5v-.4c0-.3,0-.6-.1-.9-.1-.2-.2-.4-.4-.5-.2-.1-.4-.1-.6,0-.4.2-.8.5-1.1,1-.3.5-.4,1.2-.4,1.9s.1,1.5.4,2.4c.7,2.3,2.1,3.1,4.1,2.4.8-.3,1.6-.8,2.3-1.7.7-.8,1.4-2,1.9-3.3.1-.3.4-.6.7-.7.3-.1.5,0,.7.2s.4.5.5.9c.2.7.3,1.4,0,2-.5,1.4-1.3,2.7-2.4,3.7s-2.2,1.8-3.4,2.2c-1.9.9-3.6.8-5,0h0Z"/>
    <path class="cls-6" d="M355.8,251.6c-1-.6-1.8-1.7-2.2-3.1-.5-1.6-.7-3.2-.4-4.8.3-1.6.8-3.1,1.8-4.3.9-1.3,2.1-2.1,3.4-2.5.4-.1.7-.2.9,0s.4.4.7.8c.4-.2.8-.4,1.2-.5,1-.3,1.5-.1,1.8.5.1.4.3,1.4.5,3.1.3,2.4.6,4,.9,4.9.1.3.2.5.4.6.2.1.4.2.7.1.4-.1.7-.5,1.1-1.2s.8-1.7,1.4-3c.1-.3.4-.6.7-.7.2-.1.5,0,.7.2s.4.5.5.9c.3.8.3,1.4,0,2-.5,1.3-1,2.4-1.7,3.4s-1.4,1.6-2.3,1.9c-.6.2-1.3.2-2-.1s-1.3-.7-1.8-1.4c-.5,2-1.5,3.2-3,3.7-1.2.3-2.3.1-3.3-.5h0ZM360.2,247.5c.2-.6.3-1.4.2-2.3l-.7-5.7c-.8.3-1.5.9-2,1.7s-.8,1.8-.9,2.9c-.1,1.1,0,2.2.4,3.3.2.6.5,1,.8,1.2s.7.2,1.2.1c.5-.2.8-.6,1-1.2h0Z"/>
    <path class="cls-6" d="M380.8,237.7c.2.2.4.5.5.9.3.8.3,1.4,0,2-.5,1.3-1.1,2.5-1.9,3.5s-1.8,1.7-3.1,2.1c-4,1.3-6.9-.8-8.8-6.4-.3-.9-.6-1.7-.8-2.6l-1.1.4c-.6.2-1,.2-1.3.1s-.5-.4-.6-.9c-.4-1.1-.1-1.8.8-2.1l1.7-.6c-.4-2.3-.5-4.4-.4-6.4s.4-3.7,1.1-5.1c.6-1.4,1.5-2.2,2.6-2.6.8-.3,1.6-.1,2.3.4.7.6,1.2,1.4,1.6,2.5,1,3,.6,6.1-1.2,9.2l3.3-1.1c.3-.1.6-.1.7,0,.2.1.3.3.5.7.5,1.3-.4,2.4-2.6,3.1l-3.6,1.2c.3,1,.5,1.8.7,2.3.7,2,1.4,3.4,2.1,4,.8.7,1.6.8,2.7.5.8-.3,1.5-.8,2-1.5s1-1.7,1.5-3c.1-.3.4-.6.7-.7.2,0,.4,0,.6.1h0ZM369,224.5c-.1.8-.1,2,0,3.4s.3,2.9.6,4.6c.8-1.4,1.3-2.8,1.5-4.2s.1-2.6-.3-3.7c-.4-1.1-.8-1.7-1.2-1.5-.3,0-.5.6-.6,1.4h0Z"/>
    <path class="cls-6" d="M392.3,233.9c.2.2.4.5.5.9.3.8.3,1.4,0,2-.4,1.1-1.2,2.3-2.2,3.4-1.1,1.2-2.4,2-3.9,2.5-2,.7-3.8.6-5.3-.1-1.5-.7-2.6-2.1-3.2-4-.5-1.3-.6-2.7-.4-4,.2-1.4.7-2.5,1.4-3.6.8-1,1.8-1.7,3.1-2.2,1.1-.4,2.1-.3,3,.1.9.4,1.5,1.2,1.9,2.4.5,1.3.4,2.7-.3,3.9-.6,1.3-2,2.6-4.1,3.9.8.7,1.9.9,3.2.4.9-.3,1.8-.9,2.7-1.9.9-1,1.6-2.1,2.1-3.4.1-.3.4-.6.7-.7.4.1.6.2.8.4h0ZM381.4,233.8c-.2,1-.1,2.1.3,3.3h0c1.1-.6,1.8-1.3,2.3-2,.5-.8.6-1.5.4-2.2-.1-.4-.3-.6-.6-.8-.3-.2-.6-.2-.9-.1-.8.2-1.2.8-1.5,1.8h0Z"/>
    <path class="cls-6" d="M392.4,239.6c-.6-.7-1.1-1.9-1.7-3.6-.8-2.5-1.3-5.1-1.3-7.6s.1-1.1.4-1.5.8-.7,1.5-1c.4-.1.7-.2.9-.1.2,0,.3.2.4.5s.2,1.1.3,2.2c.1.8.1,1.6.2,2.2.1.6.2,1.4.4,2.3.1-1.9.4-3.5.8-4.8.5-1.3,1-2.3,1.6-3s1.2-1.2,1.9-1.4c1.3-.4,2.1,0,2.5,1.3.1.3.2.9.3,1.9.1.8.2,1.3.3,1.5.2.7.6.9,1.1.8.5-.2,1.1-.8,1.7-2,.2-.3.4-.6.7-.6.3-.1.5,0,.7.1s.4.4.5.8c.2.7.2,1.4,0,1.9-.4.8-.8,1.4-1.4,2.1-.6.6-1.3,1.1-2.1,1.4-1,.3-1.9.3-2.6,0-.7-.4-1.2-1-1.5-1.9-.1-.3-.2-.6-.2-.9-.1-.4-.2-.7-.2-.8-.1-.3-.3-.4-.5-.4-.3.1-.6.6-.8,1.4-.3.8-.4,1.8-.6,3.1-.1,1.2-.1,2.5,0,3.8.1,1,.1,1.7-.1,2.1-.2.4-.6.7-1.2.9-.7.2-1.4,0-2-.7h0Z"/>
    <path class="cls-6" d="M406,234.9c-.9-.7-1.6-1.8-2.1-3.3-.3-.9-.6-2-.8-3.5-.2-1.5-.4-2.8-.4-4.1s.1-1.2.3-1.5c.2-.3.6-.6,1.3-.8,1-.3,1.6-.2,1.8.5.2.5.4,1.7.6,3.6.2,2.3.5,3.8.7,4.6.2.6.4,1,.7,1.3.3.3.6.3.9.2.4-.1.7-.5,1.1-1.2s.8-1.7,1.3-3c.1-.3.4-.6.7-.7.3-.1.5,0,.7.2s.4.5.5.9c.3.8.3,1.4,0,2-1.1,3-2.6,4.8-4.2,5.3-1.2.3-2.3.2-3.1-.5h0ZM402.2,219.6c-.5-.2-.9-.7-1.1-1.4s-.1-1.3.2-2c.4-.6,1-1.1,1.8-1.4.7-.2,1.4-.3,1.9-.1.6.2,1,.6,1.2,1.3.3.8.2,1.5-.1,2.1-.4.6-1,1.1-1.8,1.4-.9.3-1.6.3-2.1,0h0Z"/>
    <path class="cls-6" d="M412.9,232.8c-.6-.7-1.1-1.9-1.7-3.6-.8-2.5-1.3-5.1-1.3-7.6s.1-1.1.4-1.5.8-.7,1.5-1c.4-.1.7-.2.9-.1.2,0,.3.2.4.5s.2,1.1.3,2.2c.1.8.1,1.6.2,2.2.1.6.2,1.4.4,2.3.1-1.9.4-3.5.8-4.8.5-1.3,1-2.3,1.6-3s1.2-1.2,1.9-1.4c1.3-.4,2.1,0,2.5,1.3.3.8.5,2.2.7,4.3.2,1.8.4,3,.6,3.5.3.8.7,1.1,1.2.9.4-.1.8-.5,1.2-1.2.4-.7.8-1.7,1.4-3,.1-.3.4-.6.7-.7.3-.1.5,0,.7.2s.4.5.5.9c.3.8.3,1.4,0,2-.5,1.3-1.1,2.5-1.9,3.4-.7,1-1.7,1.7-3,2.1-1,.3-1.8.3-2.5-.1-.7-.4-1.2-1.2-1.6-2.2-.2-.5-.4-1.6-.6-3.1-.2-1.3-.3-2.2-.5-2.7-.1-.3-.3-.4-.5-.4-.3.1-.5.5-.7,1.3s-.4,1.8-.5,3.1c-.1,1.2-.1,2.5,0,3.8.1,1,.1,1.7-.1,2.1s-.6.7-1.2.9c-.6.2-1.2,0-1.8-.6h0Z"/>
    <path class="cls-6" d="M434,213c.2.1.4.3.6.8.1.2.1.4.2.6.1.6.4,2.3.8,4.9.3,1.8.5,3,.6,3.5.9,5.3,1.3,9.6,1,12.9-.3,3.3-1.5,5.4-3.6,6.1-1,.3-1.9.3-2.7-.1s-1.4-1.1-1.7-2.1c-.5-1.4-.4-3.1.2-5,.6-2,2-4.6,4.2-7.9l-.2-1.2c-.2.6-.5,1.2-.9,1.6-.4.5-.9.8-1.4,1-1.2.4-2.3.3-3.3-.4-1-.6-1.8-1.7-2.2-3.1-.5-1.6-.7-3.2-.4-4.8.3-1.6.8-3.1,1.8-4.3s2.1-2.1,3.4-2.5c.4-.1.7-.2.9,0,.2.1.4.4.7.8.3-.2.8-.4,1.2-.5.2-.3.6-.3.8-.3h0ZM434,236.5c.2-1.4.2-3.4-.1-6.2-1.1,1.8-1.8,3.3-2.1,4.6-.3,1.3-.3,2.3-.1,3.1.1.3.3.6.5.8s.4.2.7.1c.5-.2.9-1,1.1-2.4h0ZM432,223.5c.2-.7.3-1.6.1-2.6l-.7-5.3c-.8.3-1.4.8-1.9,1.7-.5.8-.8,1.8-.9,2.9-.1,1.1.1,2.2.4,3.3.2.6.5,1,.8,1.2s.7.2,1.2.1c.4-.2.7-.6,1-1.3h0Z"/>
    <path class="cls-6" d="M341,286.1c.3.2.5.5.7.9.2.5.1,1,0,1.5-.2.5-.6.8-1.1,1l-4.8,1.6,1.1,5.6c.1.5,0,1-.3,1.4s-.6.7-1.1.8c-.4.2-.9.1-1.2,0-.4-.2-.6-.5-.7-1.1l-1.1-5.6-4.7,1.6c-.4.2-.8.1-1.2-.1-.3-.2-.6-.5-.7-.9-.2-.5-.1-1,0-1.5.2-.5.6-.8,1.1-1l4.8-1.6-1.1-5.6c-.1-.5,0-1,.2-1.3.3-.4.6-.7,1.1-.8.4-.2.9-.1,1.3,0,.4.2.7.5.8,1l1.1,5.6,4.8-1.6c.3-.1.7-.1,1,.1h0Z"/>
    <path class="cls-6" d="M357.4,289.7c-1.4-.7-2.4-2-3-3.8-.5-1.6-.7-3.1-.4-4.5.2-1.4.7-2.6,1.5-3.6s1.7-1.6,2.8-2c1.1-.4,2-.3,2.8.1s1.4,1.1,1.7,2.1c.3.8.3,1.6.2,2.3-.2.7-.6,1.1-1.1,1.3-.4.1-.7.1-1,0s-.5-.3-.6-.6c0-.1-.1-.3-.1-.5v-.4c0-.3,0-.6-.1-.9-.1-.2-.2-.4-.4-.5-.2-.1-.4-.1-.6,0-.4.2-.8.5-1.1,1s-.4,1.2-.4,1.9.1,1.5.4,2.4c.7,2.3,2.1,3.1,4.1,2.4.8-.3,1.6-.8,2.3-1.7.7-.8,1.4-2,1.9-3.3.1-.3.4-.6.7-.7.3-.1.5,0,.7.2s.4.5.5.9c.2.7.3,1.4,0,2-.5,1.4-1.3,2.7-2.4,3.7s-2.2,1.8-3.4,2.2c-2,.8-3.6.8-5,0h0Z"/>
    <path class="cls-6" d="M367.5,286.7c-1-.6-1.8-1.7-2.2-3.1-.5-1.6-.7-3.2-.4-4.8.3-1.6.8-3.1,1.8-4.3.9-1.2,2.1-2.1,3.4-2.5.4-.1.7-.2.9,0,.2.1.4.4.7.8.4-.2.8-.4,1.2-.5,1-.3,1.5-.1,1.8.5.1.4.3,1.4.5,3.1.3,2.4.6,4,.9,4.9.1.3.2.5.4.6.2.1.4.1.7.1.4-.1.7-.5,1.1-1.2s.8-1.7,1.4-3c.1-.3.4-.6.7-.7.3-.1.5,0,.7.2s.4.5.5.9c.3.8.3,1.4,0,2-.5,1.3-1,2.4-1.7,3.4s-1.4,1.6-2.3,1.9c-.6.2-1.3.2-2-.1-.7-.3-1.3-.7-1.8-1.4-.5,2-1.5,3.2-3,3.7-1.2.3-2.3.2-3.3-.5h0ZM371.9,282.6c.2-.6.3-1.4.2-2.3l-.7-5.7c-.8.3-1.5.9-2,1.7-.5.8-.8,1.8-.9,2.9s.1,2.2.4,3.3c.2.6.5,1,.8,1.2s.7.2,1.2.1.8-.6,1-1.2h0Z"/>
    <path class="cls-6" d="M381.1,282.3c-.6-.7-1.1-1.9-1.7-3.6-.8-2.5-1.3-5.1-1.3-7.6s.1-1.1.4-1.5.8-.7,1.6-1c.4-.1.7-.2.9-.1.2,0,.3.2.4.5s.2,1.1.3,2.2c.1.8.1,1.6.2,2.2s.2,1.4.4,2.3c.1-1.9.4-3.5.8-4.8.5-1.3,1-2.3,1.6-3s1.2-1.2,1.9-1.4c1.3-.4,2.1,0,2.5,1.3.3.8.5,2.2.7,4.3.2,1.8.4,3,.6,3.5.3.8.7,1.1,1.2.9.4-.1.8-.5,1.2-1.2s.8-1.7,1.4-3c.1-.3.4-.6.7-.7.3-.1.5,0,.7.2s.4.5.5.9c.3.8.3,1.4,0,2-.5,1.3-1.1,2.5-1.9,3.4-.7,1-1.7,1.7-3,2.1-1,.3-1.8.3-2.5-.1s-1.2-1.2-1.6-2.3c-.2-.5-.4-1.6-.6-3.1-.2-1.3-.3-2.2-.5-2.7-.1-.3-.3-.4-.5-.4-.3.1-.5.5-.7,1.3s-.4,1.8-.5,3.1c-.1,1.2-.1,2.5,0,3.8.1,1,.1,1.7-.1,2.1s-.6.7-1.2.9c-.7.4-1.3.2-1.9-.5h0Z"/>
    <path class="cls-6" d="M410.6,266.8c.2.2.4.5.5.9.3.8.3,1.4,0,2-.5,1.2-1.1,2.4-1.8,3.4-.7,1-1.6,1.7-2.5,2-1.5.5-2.9,0-4.3-1.5-.5,1.3-1,2.2-1.5,2.8-.5.6-1.2,1-2,1.2-1.2.4-2.3.3-3.4-.4-1.1-.6-1.8-1.7-2.3-3.1-.5-1.6-.7-3.1-.5-4.7.2-1.5.8-2.9,1.6-4.2s2-2.2,3.4-2.8c-.9-3.9-1.3-7.4-1.1-10.4.1-3,1.1-4.8,2.8-5.4.8-.3,1.7-.1,2.5.4.8.6,1.5,1.6,2,3.2.7,2.2,1,4.9.9,8.2-.1,3.3-.5,6.8-1.3,10.4.5,1.1.9,1.9,1.3,2.3s.8.5,1.2.4c.5-.2,1-.6,1.4-1.2s.9-1.7,1.4-3.1c.1-.3.4-.6.7-.7.5.1.8.2,1,.3h0ZM400.2,273.5c.3-.4.5-1.1.8-2.2-.5-1-1-2.1-1.5-3.4-.2-.5-.4-1.2-.7-2.3-1,.7-1.6,1.7-2,3-.3,1.3-.3,2.7.2,4,.5,1.4,1.2,2,2.2,1.6.4,0,.8-.3,1-.7h0ZM400,252c.1,1.4.3,3.3.8,5.5.5,2.2,1,4.5,1.7,6.9.6-5.5.4-9.7-.5-12.5-.2-.7-.5-1.3-.8-1.7s-.5-.5-.7-.5c-.5.1-.6.9-.5,2.3h0Z"/>
    <path class="cls-6" d="M417.2,256.5c.2.1.4.2.5.5.2.5.5,2.2.9,5.2.5,2.9.7,4.6.8,5.1,1,5.2,1.3,9.5,1,12.9-.3,3.3-1.5,5.4-3.6,6.1-1,.3-1.9.3-2.7-.1-.8-.4-1.4-1.1-1.7-2.1-.3-.9-.4-1.9-.3-3s.5-2.4,1.2-4.1c.7-1.6,1.9-3.6,3.4-5.9v-.7c-.2-.8-.4-1.8-.7-3.2.1,1.5-.1,2.8-.6,3.7-.5,1-1.1,1.6-1.9,1.8-.9.3-1.7.1-2.6-.5-.8-.6-1.4-1.5-1.8-2.8-.5-1.5-.8-2.8-1-4.1-.2-1.3-.3-2.7-.3-4.2s.1-1.2.4-1.5c.3-.4.8-.7,1.5-.9.4-.1.7-.2,1-.1.2.1.4.3.5.5s.1.7.2,1.7c0,.8.1,1.5.2,2.1.1.8.2,1.7.4,2.4.1.8.3,1.4.4,1.9.2.7.6,1,1,.9.3-.1.6-.5.8-1.2.2-.7.4-1.8.5-3.1.1-1.4.1-3,0-4.9,0-.6.1-1.1.3-1.5.2-.4.7-.6,1.3-.9.3,0,.7,0,.9,0h0ZM417.2,281.2c.2-1.3.2-3.4-.1-6.2-1.1,1.8-1.8,3.3-2.1,4.6-.3,1.3-.4,2.3-.1,3.1.1.3.3.6.5.8.2.2.4.2.7.1.5-.3.9-1.1,1.1-2.4h0Z"/>
    <path class="cls-6" d="M444.7,252.8c.2.2.4.5.5.9.2.5.2.9.2,1.2s-.2.6-.5.8c-1,.8-2.2,1.5-3.6,2,.1,1.8-.1,3.3-.9,4.7-.8,1.4-1.8,2.2-3.1,2.7-2,.7-3.6.4-5.1-.8-1.4-1.2-2.6-3.2-3.5-6.1-.8-2.5-1.4-5.3-1.8-8.5s-.3-6,.2-8.5,1.6-4,3.2-4.5c.9-.3,1.7-.2,2.5.4.8.6,1.4,1.5,1.8,2.7.5,1.6.8,3.3.7,5.1-.1,1.8-.5,3.8-1.4,6,1.3-.3,2.6-.2,3.7.6,1.1.7,2,1.8,2.7,3.2.9-.4,1.9-.9,3.1-1.7.1-.1.2-.1.4-.2.4-.3.6-.2.9,0h0ZM437.7,260.5c.3-.7.4-1.5.2-2.5-.7-.2-1.4-.6-1.9-1.1-.5-.6-.9-1.2-1.2-1.9-.1-.3-.2-.7-.3-1.2h-.1c-.8.3-1.3.9-1.6,1.8-.3,1-.2,2.1.3,3.4.4,1.1.9,1.9,1.5,2.3s1.2.6,1.8.4c.6,0,1-.5,1.3-1.2h0ZM430,241.8c-.1,1.3,0,3,.3,5.1s.7,4.4,1.3,6.8c.5-2.8.8-5.2,1-7.3s0-3.8-.4-5.2c-.2-.6-.4-1.1-.7-1.4-.3-.3-.5-.4-.8-.3-.4.3-.6,1-.7,2.3h0Z"/>
    <path class="cls-6" d="M445.5,260.7c-1-.6-1.8-1.7-2.2-3.1-.5-1.6-.6-3.2-.4-4.8.3-1.6.8-3.1,1.8-4.3.9-1.2,2.1-2.1,3.4-2.5.4-.1.7-.2.9,0,.2.1.4.4.7.8.4-.2.8-.4,1.2-.5,1-.3,1.5-.1,1.8.5.1.4.3,1.4.5,3.1.3,2.4.6,4,.9,4.9.1.3.2.5.4.6.2.1.4.1.7.1.4-.1.7-.5,1.1-1.2s.8-1.7,1.4-3c.1-.3.4-.6.7-.7.2-.1.5,0,.7.2s.4.5.5.9c.3.8.3,1.4,0,2-.5,1.3-1,2.4-1.7,3.4s-1.4,1.6-2.3,1.9c-.6.2-1.3.2-2-.1-.7-.3-1.3-.7-1.8-1.4-.5,2-1.5,3.2-3,3.7-1.1.3-2.2.2-3.3-.5h0ZM449.9,256.6c.2-.6.3-1.4.2-2.3l-.7-5.7c-.8.3-1.5.9-2,1.7s-.8,1.8-.9,2.9c-.1,1.1.1,2.2.4,3.3.2.6.5,1,.8,1.2s.7.2,1.2.1.8-.6,1-1.2h0Z"/>
    <path class="cls-6" d="M468.8,244.1c.4.2.7.5.8,1,.1.3.1.5.1.9-.1.8-.3,1.6-.7,2.3-.4.7-.9,1.1-1.6,1.4-.5.2-1.1.1-1.6-.1-.5-.3-.9-.7-1.1-1.4-.1-.4-.2-.8-.3-1.2-.1-.3-.1-.5-.2-.7s-.1-.3-.2-.3c-.1-.1-.2-.1-.3,0-.3.1-.5.5-.8,1.3s-.4,1.8-.5,3.1c-.1,1.2-.1,2.5,0,3.8.1,1,.1,1.7-.1,2.1-.2.4-.6.7-1.2.9-.7.2-1.4,0-2-.7-.6-.7-1.1-1.9-1.7-3.6-.8-2.5-1.3-5.1-1.3-7.6s.1-1.1.4-1.5.8-.7,1.6-1c.4-.1.7-.2.9-.1.2,0,.3.2.4.5s.2,1.1.3,2.2c.1.8.1,1.6.2,2.2.1.6.2,1.4.4,2.3.1-1.9.4-3.5.8-4.8.5-1.3,1-2.3,1.6-3s1.2-1.2,1.9-1.4c.6-.2,1-.2,1.5,0,.4.2.7.6.9,1.3.1.4.2,1.1.4,2.2h.3c.3-.4.7-.3,1.1,0h0Z"/>
  </g>
  <g>
    <path class="cls-6" d="M398.4,566.2c.1,0,.2.2.2.3,0,.2,0,.5-.1.7s-.3.4-.6.4c-.8.2-1.5.2-2.1.2-.4,1.6-1,2.9-1.8,4s-1.6,1.8-2.6,2-1.9-.2-2.6-1.3-1.3-2.6-1.6-4.5c-.3-1.7-.5-3.2-.5-4.6s0-.9.2-1.1c.1-.2.4-.3.8-.4.6,0,1,0,1.1.6v.3c0,1.8.2,3.4.5,4.8.3,1.5.6,2.5,1,3.3s.8,1,1.3.9,1-.5,1.4-1.3.8-1.8,1.1-2.9c-.6-.2-1.2-.6-1.6-1.2-.4-.5-.7-1.2-.8-1.9s-.1-1.4,0-2,.4-1,.7-1.4.8-.5,1.3-.7c.6,0,1.1,0,1.6.4.4.4.7.9.9,1.7.2,1.1.2,2.3,0,3.7.5,0,1.1,0,1.8-.2.1,0,.3.2.4.2h0ZM394.4,566.1c.2-1.1.2-2.1,0-2.8-.1-.4-.2-.7-.3-.8s-.3-.2-.5-.2c-.3,0-.4.2-.5.6s-.1.8,0,1.3c.2.9.6,1.5,1.3,1.9h0Z"/>
    <path class="cls-6" d="M398.8,571.7c-.6-.4-1-1.1-1.2-2-.1-.8-.1-1.5.1-2.1s.5-1.2.9-1.6.9-.7,1.4-.8,1,0,1.3.2.6.6.7,1.1c.1.4,0,.8-.1,1.1s-.3.5-.6.5h-.5c-.1,0-.2-.2-.2-.3v-.8c0,0-.1-.2-.1-.3s-.2,0-.3,0c-.2,0-.4.2-.6.4s-.2.5-.3.9,0,.7,0,1.1c.2,1.1.8,1.6,1.8,1.4.4,0,.8-.3,1.2-.6.4-.3.8-.8,1.1-1.4s.2-.2.4-.3c.1,0,.2,0,.3,0,.1,0,.2.2.2.5.1.4,0,.7-.1.9-.3.6-.8,1.2-1.4,1.6-.6.4-1.1.7-1.7.8-.9,0-1.7,0-2.3-.4h0Z"/>
    <path class="cls-6" d="M411.3,566.9c.1,0,.2.2.2.5.1.4,0,.7-.1.9-.3.6-.7,1.1-1.1,1.5s-.9.7-1.5.8c-.5,0-.9,0-1.2-.2-.3-.2-.5-.6-.6-1.2,0-.3-.1-.8-.1-1.5v-1.3c0-.2-.1-.2-.2-.2s-.3.2-.4.6c-.2.4-.3.8-.4,1.4-.1.6-.2,1.2-.2,1.8s-.4,1.3-1.1,1.4c-.3,0-.5,0-.6-.2s-.2-.5-.4-1.1c-.1-.3-.1-.5-.1-.7l-.2-1.2c-.3-1.5-.4-3-.4-4.7s.2-3.1.6-4.3,1-1.9,1.8-2c.4,0,.8,0,1.2.4s.6.8.7,1.4c.2,1,.1,2-.3,3.2s-1,2.5-2,4.2c.1.5.1,1,.2,1.5.2-.9.4-1.6.7-2.2s.6-1,.9-1.3.7-.5,1-.5c.6,0,1,0,1.1.8.1.4.1,1.1.1,2.1v1.7c.1.4.2.5.5.5s.4-.2.6-.5.5-.7.8-1.3.2-.2.4-.3c0-.2,0-.2.1,0h0ZM404.6,559.6c-.1.5-.2,1.2-.2,2.1v2.8c.5-.8.8-1.7,1-2.6s.3-1.7.1-2.3c-.1-.3-.1-.5-.2-.7s-.2-.2-.3-.2c-.2,0-.3.3-.4.9h0Z"/>
    <path class="cls-6" d="M417.6,564.4c.1,0,.1.3.2.5.1.5,0,.8-.3.9-.5.3-1.1.5-1.8.7,0,.8-.3,1.5-.7,2.1s-1,1-1.7,1.1c-.6,0-1.1,0-1.5,0s-.8-.5-1.1-.9-.5-.9-.6-1.4c-.1-.7-.1-1.4,0-2,.2-.6.5-1.1.9-1.6.4-.4.9-.7,1.5-.8.7,0,1.4,0,1.9.4s.9,1,1.1,1.7c.4,0,1-.3,1.5-.6.1,0,.1,0,.2,0,.2,0,.3,0,.4,0h0ZM413.9,567.6c.2-.3.3-.7.2-1.2-.3,0-.6-.4-.8-.7-.2-.3-.4-.6-.4-1v-.5h-.1c-.4,0-.7.3-.9.8s-.2,1-.1,1.6c.1.5.3.9.5,1.2.3.2.5.3.8.3.4,0,.6-.2.8-.5h0Z"/>
    <path class="cls-6" d="M422.8,566.9c.1,0,.1.2.1.4.1.4-.1.7-.7.8-.3,0-.5,0-.7,0s-.4-.4-.6-.8h0c-.3.4-.5.8-.8,1-.3.2-.6.3-1,.4-.6,0-1.1,0-1.6-.4s-.8-.9-.9-1.6c-.1-.8-.1-1.5.1-2.2s.5-1.3,1-1.9c.5-.5,1.1-.9,1.8-1.1-.2-1.8-.1-3.5.1-4.9s.8-2.2,1.7-2.4c.4,0,.8,0,1.1.4s.6.9.7,1.6c.2,1,.2,2.3-.1,3.8-.2,1.5-.6,3.1-1.2,4.8.4.7.7,1.5,1,2.2h0ZM419.9,566.7c.1-.2.3-.5.5-1-.2-.7-.4-1.4-.6-2.1-.1-.3-.1-.5-.1-.7-.5.2-.9.7-1.1,1.3s-.3,1.2-.2,1.9c.1.7.4,1,.9.9.3,0,.4-.1.6-.3h0ZM421.1,557.8c0,1.5.2,3,.4,4.7.6-2.5.8-4.5.5-5.9-.1-.4-.2-.6-.3-.8s-.2-.3-.3-.3c-.3,0-.4.8-.3,2.3Z"/>
  </g>
  <path class="cls-2" d="M41.8,232s38.9-72.6.6-48.7c-26.6,21.9-14.6,50.5-2.6,37"/>
  <path class="cls-2" d="M655.7,123.1s86,112.6,75.8,35.6c-15.4-57.3-68.8-58.8-56.2-30.5"/>
  <g>
    <path class="cls-5" d="M85.2,199.5c.2.2.2.4.2.7,0,.4-.2.7-.4.8-.2.1-.6.2-1.1.1-1.1-.2-1.9-.4-2.5-.5s-1.4-.2-2.4-.4c-.7,2.1-1.4,4.3-2.1,6.5-.2.8-.5,1.7-.8,2.8-.3,1-.5,1.9-.6,2.5,0,.3-.2.6-.5.7-.3.1-.6.2-1,.1-.4,0-.7-.2-.9-.4-.2-.2-.3-.5-.2-.8,0-.3,0-.8.3-1.4s.4-1.3.6-2,.4-1.3.6-1.9c.2-.9.5-1.8.8-2.6.3-.9.6-1.7.8-2.5,0-.2,0-.4.2-.6s.2-.5.3-.8c-1.2-.1-2.1-.1-2.8-.1s-1.2.2-1.5.5-.5.6-.6,1,0,.8.2,1.2c0,.1,0,.2,0,.3,0,.2-.2.4-.5.6-.3.2-.6.2-.9.2s-.4-.1-.5-.2c-.2-.2-.4-.5-.5-.9s0-.8,0-1.3c0-1,.6-1.8,1.3-2.3s1.8-.9,3.2-1,3.1,0,5.3.2c1.3.2,2.3.3,3.1.5.8.1,1.4.3,2,.5.6,0,.8.3,1,.5h0Z"/>
    <path class="cls-5" d="M80.8,213c-.3-.5-.4-1.2-.3-2,0-.9.3-1.7.5-2.4s.5-1.5.9-2.3c.2-.3.4-.6.6-.7.2-.1.6-.2,1.1-.1.3,0,.4.1.5.2s0,.2,0,.4,0,.4-.3.9c-.2.4-.3.8-.4,1.2-.4,1.2-.6,2-.7,2.5v.5c0,.1,0,.2.3.2s.4-.1.8-.5.7-.8,1.1-1.5.8-1.5,1.2-2.5c0-.3.3-.6.5-.7.2-.1.5-.2.9-.1.3,0,.4.1.5.3s0,.4,0,.6c0,.3,0,.6-.2,1s-.2.7-.3,1.1c-.2.8-.4,1.4-.6,2,0,.6-.3,1.3-.4,2.1,0,.5-.2.8-.4.9-.2.2-.5.2-.9.2-.4-.1-.7-.2-.9-.5,0-.2-.2-.7,0-1.4,0-.1,0-.4.2-.9-.3.8-.7,1.4-1.2,1.8s-.9.5-1.4.5-.9-.3-1.2-.8h0Z"/>
    <path class="cls-5" d="M93.5,214.6c0-.5,0-1.3,0-2.3.2-1.5.6-3,1.2-4.3,0-.3.4-.6.6-.7.3-.1.6-.2,1.1-.1.2,0,.4.1.5.2,0,.1,0,.2,0,.4s-.2.6-.4,1.2c-.2.5-.3.9-.4,1.2s-.2.8-.4,1.3c.5-1,1.1-1.8,1.6-2.3.6-.6,1.1-1,1.6-1.2s.9-.3,1.4-.2c.8.1,1.1.5,1,1.3,0,.5-.3,1.3-.7,2.5-.4,1-.6,1.7-.6,2,0,.5,0,.7.4.8.2,0,.5-.1.9-.3s.9-.7,1.5-1.2c.2-.1.3-.2.5-.2s.3.1.3.3c0,.1,0,.4,0,.6,0,.5-.2.8-.5,1.1-.6.6-1.2,1-1.9,1.3s-1.3.4-2.1.4c-.6-.1-1-.3-1.3-.7s-.4-.9-.3-1.6c0-.3.2-.9.5-1.8.2-.7.4-1.2.4-1.5s0-.3-.2-.3-.4.1-.7.5c-.3.4-.7.9-1.1,1.5s-.7,1.3-1,2c-.2.5-.4.9-.6,1.1-.2.2-.5.2-.9.2,0-.4-.4-.7-.6-1.2h0Z"/>
    <path class="cls-5" d="M102.6,215.7c-.3-.6-.4-1.3-.2-2.2,0-.5.2-1.2.5-2,.2-.8.5-1.6.8-2.3.2-.4.3-.6.5-.7.2-.1.5-.1.9-.1.6.1.9.3.8.7,0,.3-.2,1-.6,2-.5,1.3-.7,2.1-.8,2.6,0,.4,0,.6,0,.8,0,.2.2.3.4.4.2,0,.5-.1.9-.3s.9-.7,1.5-1.2c.2-.1.3-.2.5-.2s.3.1.3.3,0,.4,0,.6c0,.5-.2.8-.5,1.1-1.4,1.3-2.6,1.9-3.6,1.7-.7-.3-1.2-.6-1.5-1.2h0ZM104.5,206.7c-.2-.3-.3-.6-.2-1,0-.4.3-.7.6-1,.4-.2.8-.3,1.3-.3.4.1.8.2,1,.5s.3.6.3,1c0,.5-.3.8-.6,1.1-.4.2-.8.3-1.3.3-.5-.2-.9-.4-1.1-.6Z"/>
    <path class="cls-5" d="M107.2,216.1c-.6-.7-.8-1.7-.6-2.7,0-1,.4-1.8.9-2.5s1-1.2,1.7-1.5,1.3-.4,2-.3c.6.1,1.1.4,1.4.8s.4,1,.4,1.6c0,.5-.2.9-.5,1.2s-.6.5-.9.4c-.2,0-.4-.1-.5-.2,0-.1-.2-.3,0-.5,0-.1,0-.2,0-.3,0-.1,0-.2,0-.2,0-.2,0-.3,0-.5s0-.3,0-.4-.2-.1-.3-.2c-.3,0-.6,0-.8.3-.3.2-.5.5-.7.9s-.3.9-.4,1.4c0,.7,0,1.2.2,1.6.2.4.6.6,1.1.7.4,0,.8,0,1.2-.2.4-.2.8-.5,1.1-.9.2-.2.3-.2.5-.2s.3.1.3.3c0,.1,0,.4,0,.6,0,.4-.2.8-.4,1.1-.4.5-.9.8-1.4,1s-1.2.3-1.9.2c-1.2-.3-2.1-.7-2.6-1.5h0ZM110.6,207.5c-.2-.2-.3-.6-.3-1.1l-.4-3.3v-.4c0-.3.2-.5.4-.6.2-.1.5-.2.7-.1.3,0,.5.1.6.3s.2.4.2.8v3.2l2-3c.2-.4.4-.6.7-.7.2-.1.4-.1.7-.1s.4.1.6.2c0,.1.2.3.2.5s0,.4-.3.6l-2.4,3.2c-.3.3-.5.6-.8.7s-.6.2-1,.1c-.5.1-.8,0-.9-.3h0Z"/>
    <path class="cls-5" d="M118.7,217.9c0-.5,0-1.3,0-2.3.2-1.5.6-3,1.2-4.3,0-.3.4-.6.6-.7.3-.1.6-.2,1.1-.1.2,0,.4.1.5.2,0,.1,0,.2,0,.4s-.2.6-.4,1.2c-.2.5-.3.9-.4,1.2,0,.4-.2.8-.4,1.3.5-1,1.1-1.8,1.6-2.3.6-.6,1.1-1,1.6-1.2s.9-.3,1.4-.2c.8.1,1.1.5,1,1.3,0,.5-.3,1.3-.7,2.5-.4,1-.6,1.7-.6,2,0,.5,0,.7.4.8.2,0,.5-.1.9-.3s.9-.7,1.5-1.2c.2-.1.3-.2.5-.2s.3.1.3.3.1.4.1.6c-.1.5-.2.8-.5,1.1-.6.6-1.2,1-1.8,1.3s-1.3.4-2.1.4c-.6-.1-1-.3-1.3-.7s-.4-.9-.3-1.6c0-.3.2-.9.5-1.8.2-.7.4-1.2.4-1.5s0-.3-.2-.3-.4.1-.7.5c-.3.4-.7.9-1.1,1.5s-.7,1.3-1,2c-.2.5-.4.9-.6,1.1-.2.2-.5.2-.9.2-.3-.4-.5-.7-.7-1.2h0Z"/>
    <path class="cls-5" d="M136,216.9c.1.1.1.4.1.6-.1.5-.2.8-.5,1.1-.5.5-1.2.9-2.1,1.2-.9.4-1.8.5-2.7.3-1.2-.2-2.2-.6-2.8-1.4-.6-.8-.8-1.7-.7-2.9,0-.8.4-1.6.8-2.2.4-.7,1-1.2,1.7-1.5s1.4-.5,2.2-.4c.7.1,1.2.4,1.6.8s.5,1,.4,1.8-.5,1.5-1.2,2-1.7.9-3.2,1c.2.6.8.9,1.6,1,.5.1,1.2,0,1.9-.3s1.4-.7,2-1.2c.2-.1.3-.2.5-.2.2,0,.3.2.4.3h0ZM130.3,214.1c-.4.5-.6,1.1-.7,1.8h0c.7-.1,1.3-.2,1.8-.5.4-.3.7-.6.8-1.1,0-.2,0-.4-.1-.6-.1-.1-.3-.2-.5-.3-.5,0-1,.3-1.3.7h0Z"/>
    <path class="cls-5" d="M145.1,218.1c.1.1.1.4.1.6-.1.5-.2.8-.5,1.1-.6.5-1.2,1-1.8,1.3s-1.2.5-1.8.4c-.9-.1-1.5-.7-1.9-1.9-.6.6-1.1.9-1.5,1.1-.4.2-.9.2-1.4.1-.7-.1-1.3-.4-1.7-1s-.5-1.3-.4-2.2c.1-1,.4-1.8.9-2.6s1.1-1.4,1.9-1.8,1.6-.6,2.5-.6c.5-2.3,1.2-4.2,2.1-5.8.9-1.5,1.8-2.3,2.8-2.1.5.1.9.4,1.2.9s.4,1.2.2,2.2c-.2,1.3-.7,2.9-1.6,4.5-.9,1.7-2,3.4-3.3,5.2,0,.7,0,1.2.1,1.5s.3.5.6.5.7-.1,1-.3.9-.7,1.5-1.2c.2-.1.3-.2.5-.2.3,0,.4.2.5.3h0ZM137.9,219c.2-.2.6-.5,1-.9,0-.7,0-1.4.1-2.2,0-.3.1-.8.2-1.4-.7.1-1.3.5-1.8,1.1s-.8,1.3-.9,2.2c-.1.9.1,1.3.7,1.4.3,0,.5-.1.7-.2h0ZM143.3,207.6c-.3.8-.7,1.8-1,3.1s-.6,2.6-.9,4c1.7-2.7,2.7-5,2.9-6.7.1-.5.1-.8,0-1.1s-.1-.4-.2-.4c-.2,0-.5.4-.8,1.1h0Z"/>
    <path class="cls-5" d="M143.6,221c-.4-.6-.5-1.3-.4-2.2.1-1,.5-1.8,1-2.6.6-.8,1.2-1.4,2-1.8s1.6-.6,2.4-.5c.3,0,.4.1.5.2.1.1.1.3.1.6h.8c.6.1.9.3.8.7,0,.2-.2.8-.5,1.8-.4,1.3-.7,2.3-.8,2.8,0,.2,0,.3.1.5.1.1.2.2.3.2.2,0,.5-.1.9-.3s.9-.7,1.5-1.2c.2-.1.3-.2.5-.2s.3.1.3.3c.1.1.1.4.1.6-.1.5-.2.8-.5,1.1-.6.5-1.1,1-1.8,1.3s-1.2.5-1.7.4c-.4,0-.7-.2-1-.5s-.5-.7-.6-1.2c-.8.9-1.6,1.3-2.5,1.2-.5-.2-1.1-.6-1.5-1.2h0ZM147,220c.3-.3.5-.7.7-1.2l1.1-3.2c-.5,0-1,.1-1.5.4s-.9.7-1.2,1.3-.5,1.2-.6,1.8c-.1.4,0,.6.1.9.1.2.3.3.6.4.2,0,.5,0,.8-.4h0ZM148.6,212.6c-.1-.1-.1-.3-.1-.5s.1-.2.1-.3l2.1-3.5c.1-.2.3-.4.5-.5s.4-.1.6-.1c.3,0,.6.2.8.4s.3.5.2.9c0,.3-.2.6-.5,1l-2.7,2.7c-.2.2-.4.3-.6.2-.1,0-.3-.2-.4-.3h0Z"/>
    <path class="cls-5" d="M161.4,218.5c.2,0,.3.1.4.2s.1.3.1.5c-.1.4-.2.6-.3.8s-.4.3-.7.4c-.6.1-1.2.1-1.8,0-.5-.1-1-.2-1.4-.4-.4.5-.9,1-1.4,1.6-.6.6-1,1-1.4,1.2s-.8.3-1.2.2c-.5-.1-.9-.3-1.1-.7s-.3-1-.3-1.9c.1-1.7.2-3.1.4-4.4v-.6c.2-.4.3-.6.5-.8.2-.1.5-.2.9-.1.3,0,.5.1.7.3s.2.4.1.7c-.2,1.4-.3,3.2-.4,5.4.9-1,1.5-1.7,1.9-2.3-.1-.4-.2-.8-.1-1.3.1-.4.2-.8.4-1.1.2-.4.5-.6.9-.8.3-.2.7-.3,1.1-.2.4,0,.6.2.8.5s.2.6.2,1.1c-.1.5-.3,1.1-.7,1.8h2.3c0,0,0,0,.1,0h0Z"/>
    <path class="cls-5" d="M160.2,223.2c-.4-.6-.5-1.3-.4-2.2.1-1,.5-1.8,1-2.6.6-.8,1.2-1.4,2-1.8s1.6-.6,2.4-.5c.3,0,.4.1.5.2.1.1.1.3.1.6h.8c.6.1.9.3.8.7,0,.2-.2.8-.5,1.8-.4,1.3-.7,2.3-.8,2.8,0,.2,0,.3.1.5.1.1.2.2.3.2.2,0,.5-.1.9-.3s.9-.7,1.5-1.2c.2-.1.3-.2.5-.2s.3.1.3.3c.1.1.1.4.1.6-.1.5-.2.8-.5,1.1-.6.5-1.1,1-1.8,1.3-.6.4-1.2.5-1.7.4-.4,0-.7-.2-1-.5s-.5-.7-.6-1.2c-.8.9-1.6,1.3-2.5,1.2-.5-.3-1.1-.6-1.5-1.2h0ZM163.6,222.1c.3-.3.5-.7.7-1.2l1.1-3.2c-.5,0-1,.1-1.5.4s-.9.7-1.2,1.3-.5,1.2-.6,1.8c-.1.4,0,.6.1.9.1.2.3.3.6.4s.5-.1.8-.4h0Z"/>
    <path class="cls-5" d="M171.9,218.7c-.1.6-.2,1-.2,1.4-.1.9-.1,1.5-.1,2s.1.9.3,1.1c.2.2.5.4.8.4s.4,0,.7-.1.5-.2.8-.4c.1-.1.3-.1.4-.1s.2.1.3.3.1.4.1.6-.1.4-.2.6-.3.4-.5.5c-.7.4-1.4.6-2.2.5-1.1-.1-1.9-.7-2.3-1.7-.4-1-.5-2.3-.3-3.8.1-.5.1-1,.3-1.6h-.7c-.4-.1-.6-.2-.7-.4s-.1-.4-.1-.6c.1-.7.4-1,.9-.9h1c.4-1.2.8-2.3,1.4-3.4s1.2-1.8,1.9-2.4c.7-.6,1.4-.8,2-.7.5.1.9.3,1.1.8.2.5.3,1,.2,1.7-.2,1.8-1.2,3.4-2.9,4.5l2,.3c.2,0,.3.1.4.2s.1.2.1.5c-.1.8-.8,1.1-2.2,1l-2.3-.3h0ZM174.1,212.3c-.3.4-.6,1-.9,1.8-.3.8-.6,1.6-.8,2.6.8-.5,1.4-1.1,1.9-1.8.4-.7.7-1.4.8-2,.1-.7,0-1.1-.3-1.1-.2-.1-.5,0-.7.5h0ZM178,213.3c-.1-.1-.1-.3-.1-.6l.4-2.3c.1-.4.2-.7.5-.8s.5-.2.9-.2.5.1.7.4.2.5.2.8-.1.4-.2.6l-1,2c-.2.4-.5.5-.9.5-.3,0-.4-.2-.5-.4h0Z"/>
    <path class="cls-5" d="M176,225.6c-.2-.3-.3-.7-.2-1.2s.3-.9.6-1.2c.4-.3.8-.4,1.3-.3.5.1.9.2,1.1.5.2.3.3.7.2,1.2s-.3,1-.6,1.2-.8.4-1.3.3c-.5,0-.9-.2-1.1-.5h0ZM177.8,221.8c-.1-.1-.2-.3-.2-.5h0c.4-1.4.9-2.9,1.4-4.6.6-1.7,1.1-3.1,1.5-4.3.3-.7.9-1,1.7-.9s1.1.4,1.1.9-.1.2-.1.4c-.5,1.2-1.1,2.7-1.8,4.4-.8,1.7-1.4,3.2-2.1,4.5-.2.4-.5.5-1,.5-.2-.2-.4-.3-.5-.4h0Z"/>
  </g>
  <g>
    <path class="cls-5" d="M671.9,210.1c-.6-.5-1-1.1-1.3-2s-.3-1.8-.2-2.8c.2-1.8.8-3.4,1.8-4.9s2.3-2.5,3.9-3.3c1.6-.7,3.5-1,5.6-.7.5.1,1.1.2,1.7.4.6.2,1.2.4,1.7.6.3.1.5.4.4.8,0,.3-.2.6-.5.8s-.6.4-.9.3c0,0-.2,0-.2-.1-.6-.2-1.1-.4-1.5-.5s-.9-.2-1.4-.3c-1.5-.2-2.8,0-4,.6s-2.1,1.5-2.8,2.6-1.1,2.4-1.3,3.8c0,1,0,1.8.3,2.4.3.6.8.9,1.5,1s1.4-.1,2-.6,1.2-1.4,1.9-2.7c.6-1.3,1.3-3,2-5.2,0-.3.3-.5.5-.6s.5-.1.9-.1c.8.1,1.2.4,1.2,1s0,.2,0,.4c-.5,1.1-.9,2.4-1.3,3.7s-.7,2.4-.8,3.1c0,.6,0,1.1,0,1.4.2.3.4.5.8.6.4.1.8,0,1.1-.2s.9-.6,1.5-1.1c.2-.1.3-.2.5-.2s.3.1.3.3,0,.4,0,.6c0,.5-.2.8-.5,1.1-.7.6-1.3,1.1-1.9,1.4-.6.3-1.3.4-2.1.3-.8-.1-1.5-.4-1.9-1-.5-.6-.7-1.3-.7-2.2-1.1,1.7-2.5,2.5-4.2,2.3-.9-.2-1.6-.5-2.2-1h0Z"/>
    <path class="cls-5" d="M684,211.5c0-.5,0-1.3,0-2.3.2-1.6.6-3,1.2-4.3.2-.3.4-.6.6-.7s.6-.2,1.1-.1c.2,0,.4.1.5.2,0,.1,0,.2,0,.4s-.2.6-.4,1.2c-.2.5-.3.9-.5,1.2,0,.4-.2.8-.3,1.3.5-1,1.1-1.8,1.7-2.3.6-.6,1.1-1,1.6-1.2s1-.3,1.3-.2c.8.1,1.1.5,1,1.3,0,.5-.3,1.3-.7,2.5-.4,1-.6,1.7-.6,2,0,.5,0,.7.4.8.2,0,.5-.1.9-.3s.9-.7,1.5-1.2c.2-.1.3-.2.5-.2s.3.1.3.3,0,.4,0,.6c0,.5-.2.8-.5,1.1-.6.6-1.2,1-1.8,1.3s-1.3.4-2.1.4c-.6-.1-1-.3-1.3-.7s-.3-.9-.3-1.6.2-.9.5-1.8c.2-.7.4-1.2.4-1.5s0-.3-.2-.3-.4.1-.7.5-.7.9-1.1,1.5c-.4.6-.7,1.3-1,2-.2.5-.4.9-.6,1.1-.2.2-.5.2-.8.2-.4-.4-.7-.7-.8-1.2h0Z"/>
    <path class="cls-5" d="M692.4,213.1c0-.2-.2-.4,0-.8,0-.1,0-.3,0-.5.5-2.1,1-4.1,1.7-5.8,0-.4.3-.6.6-.7.2-.1.6-.1,1.1-.1.5.1.7.3.7.7s0,.2,0,.3c-.9,2.5-1.5,4.6-1.8,6.3,0,.4-.2.6-.4.8-.2.1-.5.2-1,.1-.4,0-.7-.1-.8-.3h0ZM695.1,203.6c-.2-.3-.3-.6-.2-1,0-.4.3-.7.6-1,.4-.2.8-.3,1.3-.3.4.1.8.2,1,.5s.3.6.3,1c0,.5-.3.8-.6,1.1s-.8.3-1.3.3c-.5-.2-.9-.3-1.1-.6h0Z"/>
    <path class="cls-5" d="M710,211.7c0,.1,0,.4,0,.6,0,.5-.2.8-.5,1.1-.6.6-1.2,1-1.9,1.3s-1.4.4-2.2.3c-2.4-.3-3.4-2.2-3-5.6,0-.5.2-1.1.3-1.6h-.7c-.4-.2-.6-.2-.7-.4s0-.4,0-.6c0-.7.4-1,.9-.9h1c.4-1.2.8-2.3,1.4-3.4s1.2-1.8,1.8-2.4c.7-.6,1.3-.8,2-.7.5.1.9.3,1.1.8.2.5.3,1.1.2,1.7-.2,1.8-1.2,3.4-3,4.5l2,.3c.2,0,.3.1.4.2,0,.1,0,.2,0,.5,0,.8-.8,1.1-2.2,1l-2.2-.3c0,.6-.2,1.1-.2,1.4-.2,1.2,0,2.1,0,2.7.2.5.7.9,1.3.9.5.1,1,0,1.4-.3s1-.7,1.6-1.2c.2-.1.3-.2.5-.2.3.1.4.2.5.3h0ZM707.1,201.8c-.3.4-.6,1-.9,1.8s-.6,1.6-.8,2.6c.8-.5,1.4-1.1,1.8-1.8.5-.7.7-1.4.8-2,0-.7,0-1.1-.2-1.1-.2-.2-.4,0-.7.5h0Z"/>
    <path class="cls-5" d="M708.7,214.8c-.3-.5-.4-1.2-.3-2,0-.9.3-1.7.5-2.4s.5-1.5.9-2.3c.2-.3.4-.6.6-.7.2-.1.6-.2,1-.1.3,0,.4.1.5.2,0,.1,0,.2,0,.4s0,.4-.3.9c-.2.4-.3.8-.4,1.2-.4,1.2-.6,2-.7,2.4v.5c0,.1,0,.2.3.2s.4-.1.8-.5.7-.8,1.1-1.5.8-1.5,1.2-2.5c0-.4.3-.6.5-.7s.5-.2.9-.1c.3,0,.4.1.5.3s0,.4,0,.6c0,.3,0,.6-.2,1s-.2.7-.3,1.1c-.2.8-.4,1.4-.6,2-.2.6-.3,1.3-.4,2.1,0,.4-.2.8-.4.9-.2.2-.5.2-.9.2-.4-.1-.7-.2-.9-.5,0-.2-.2-.7,0-1.4,0-.1,0-.4.2-.9-.3.8-.7,1.4-1.2,1.8s-.9.6-1.4.5c-.3.1-.8-.2-1.1-.7h0Z"/>
    <path class="cls-5" d="M716.9,216.1c-.2-.3-.3-.7-.2-1.2s.3-.9.6-1.2.8-.4,1.3-.3c.5.1.9.2,1.1.5.2.3.3.7.2,1.2,0,.6-.3,1-.6,1.2s-.8.4-1.3.3c-.5,0-.9-.2-1.1-.5h0ZM718.7,212.3c0-.1-.2-.3-.2-.5h0c.4-1.4.8-2.9,1.4-4.5.6-1.7,1.1-3.1,1.5-4.3.3-.7.9-1.1,1.7-.9.8.1,1.1.4,1,.9,0,.1,0,.2,0,.4-.5,1.2-1.1,2.7-1.8,4.4-.8,1.7-1.4,3.2-2.1,4.5-.2.4-.5.5-1,.4-.1-.2-.3-.3-.4-.4h0Z"/>
    <path class="cls-5" d="M723,216.9c-.2-.3-.3-.7-.2-1.2s.3-.9.6-1.2.8-.4,1.3-.3c.5.1.9.2,1.1.5s.3.7.2,1.2c0,.6-.3,1-.6,1.2s-.8.4-1.3.3c-.5,0-.9-.2-1.1-.5h0ZM724.8,213.1c0-.1-.2-.3-.2-.5h0c.4-1.4.8-2.9,1.4-4.5.6-1.7,1.1-3.1,1.5-4.3.3-.7.9-1.1,1.7-.9.8.1,1.1.4,1,.9,0,.1,0,.2,0,.4-.5,1.2-1.1,2.7-1.8,4.4-.8,1.7-1.4,3.2-2.1,4.5-.2.4-.5.5-1,.4-.1-.2-.3-.3-.4-.4h0Z"/>
  </g>
  <path class="cls-1" d="M225.7,485.6s97.4-14.1,98.3-24.2,11-123,7.1-131.6c-3.9-8.7-72.3-9.9-81.5-3.8-9.1,6.1-20.5,142.3-20.5,142.3"/>
  <path class="cls-1" d="M573.4,103.1s-7.8-89.5-18.8-88.4-328,5-336.9,13,8.1,111.4,12.8,112,316.3-17.8,324.1-25,13.1-26.7,13.1-26.7"/>
  <path class="cls-1" d="M496.4,328l59.2,4.2s24.9,117.6,13.9,135.9-46.8,20-57,12.6-11-161.7-11-161.7"/>
  <path class="cls-1" d="M442.1,323.1l36.7,37.4s24.4,101.5,13.4,119.9c-11,18.3-36,11.9-46.3,4.4s7.3-142.6,7.3-142.6"/>
  <path class="cls-1" d="M623.9,559.7l159.1-7.7s25.4-46.4,5.5-66.3-155.7-17.7-149.7,0-6.6,64.1-6.6,64.1"/>
  <path class="cls-1" d="M643.5,420.6l146.8,13.2s13.6-31.9-10.5-56-136.9-21.9-129.5-.5c7.4,21.4-42.6,53.8-42.6,53.8"/>
  <path class="cls-3" d="M328.9,595.3s-1.4-88.4,77.6-79c79,9.4,82.6,79,82.6,79l-148.4-5.9"/>
  <path class="cls-6" d="M715.1,400.1c0,.6-.2,1.2-.5,1.6-.4.5-.8.8-1.5,1.1-.6.3-1.4.4-2.2.4-1.2,0-2.1-.2-2.8-.7s-1-1.1-1-2,.2-1,.5-1.5c.3-.4.8-.9,1.6-1.2-.4-.3-.8-.6-1-1.1-.2-.4-.3-.8-.3-1.3,0-1,.4-1.8,1.1-2.3.7-.6,1.7-.8,3-.8s1.9.2,2.5.7,1,1.1,1,1.8-.2,1.1-.5,1.5-.8.9-1.6,1.2c1.1.7,1.7,1.6,1.7,2.6ZM712.3,401.1c.3-.2.5-.5.5-.8s0-.5-.4-.8c-.3-.2-.8-.5-1.6-.9-.6.3-1,.5-1.2.8s-.3.6-.3.9.2.6.5.8c.3.2.7.3,1.2.3s1-.1,1.3-.3ZM710.5,394.4c-.3.2-.5.5-.5.9,0,.6.5,1,1.4,1.5.6-.3,1.1-.6,1.3-.9.3-.3.4-.6.4-.8,0-.7-.5-1-1.4-1s-.9.1-1.2.3Z"/>
  <path class="cls-6" d="M722.5,519.8c0,1.2-.3,2.3-1,3.2s-1.7,1.6-2.9,2.1-2.7.8-4.4.8-4.1-.5-5.5-1.4c-1.3-.9-2-2.2-2-3.8s.3-2,.9-2.8c.6-.9,1.6-1.7,3-2.4-.9-.6-1.5-1.3-2-2.1-.4-.8-.7-1.6-.7-2.5,0-1.9.7-3.4,2.2-4.5,1.4-1.1,3.4-1.6,5.9-1.6s3.7.4,4.9,1.3,1.9,2.1,1.9,3.6-.3,2.1-.9,3c-.6.9-1.6,1.7-3,2.4,2.5,1.1,3.6,2.7,3.6,4.7ZM717.1,521.8c.6-.4,1-.9,1-1.6s-.3-1-.8-1.5c-.6-.5-1.6-1.1-3.1-1.7-1.1.5-1.9,1-2.3,1.5-.4.5-.6,1.1-.6,1.7s.3,1.2.9,1.6,1.4.6,2.4.6c1,0,1.9-.2,2.5-.6ZM713.5,508.8c-.6.4-.9,1-.9,1.8s.9,2,2.7,2.9c1.2-.6,2.1-1.2,2.6-1.7s.7-1.1.7-1.7c0-1.3-.9-2-2.7-2-1,.1-1.8.3-2.4.7Z"/>
  <g>
    <path class="cls-6" d="M455.5,439.1c-.2-.2-.2-.5-.1-.9v-.2c.6-1.1,1.1-2.3,1.7-3.6.6-1.2,1-2.2,1.4-2.8h-1.7c-.2-.1-.4-.2-.4-.4-.1-.2-.1-.4,0-.6v-.2c.2-.2.3-.4.5-.5.2-.1.4-.2.8-.2h2.4c.3.1.5.2.7.2.3.1.6.3.7.5s.1.5,0,.8c0,.1-.1.3-.2.4-.5.8-1.6,3.3-3.4,7.4-.3.7-.8.9-1.6.7-.4-.2-.6-.3-.8-.6Z"/>
    <path class="cls-6" d="M468.6,441.5c.1.2.1.4,0,.7-.1.3-.3.5-.5.7-.3.2-.6.2-.9.1-.6-.2-1.4-.5-2.4-.9-.2-.1-.6-.2-1.2-.4-.6-.2-1-.4-1.4-.5-.1,0-.4-.1-.7,0h-.4c-.2,0-.3,0-.4-.1-.2-.1-.3-.2-.4-.4-.1-.2-.1-.5,0-.8.1-.4.3-.6.5-.8.2-.1.6-.2,1-.3.9-.1,1.8-.3,2.6-.6.9-.3,1.6-.7,2.2-1.2s1-1,1.2-1.6c.1-.4.1-.8,0-1.1-.1-.3-.4-.5-.9-.6-.5-.2-1-.1-1.3,0-.4.2-.7.5-.8,1-.2.7-.7.9-1.3.7-.3-.1-.5-.3-.7-.5-.1-.2-.1-.5,0-.9.2-.6.5-1.1.9-1.5s1-.6,1.7-.8c.7-.1,1.5,0,2.3.2,1,.3,1.8.8,2.2,1.5.4.7.5,1.5.2,2.4s-.9,1.7-2,2.4c-1.1.7-2.4,1.2-4.1,1.5l4,1.1c.4.4.5.5.6.7Z"/>
  </g>
  <g>
    <path class="cls-6" d="M283.5,406.7c-.4,0-.7-.3-1-.7v-.2c-.8-1.5-1.5-3.1-2.2-4.7-.7-1.7-1.3-2.9-1.6-3.8l-1.3,1.4-.2.2c-.3.2-.5.2-.8.1s-.5-.3-.7-.6v-.2c-.2-.3-.3-.5-.2-.8,0-.2.2-.6.5-1s.8-.9,1.4-1.6l.7-.7c.3-.3.5-.5.7-.6.4-.2.8-.3,1.1-.2.3.1.6.3.8.7.1.2.2.4.3.6.4,1.2,1.9,4.5,4.3,9.9.4.9.2,1.6-.7,2.2-.4,0-.7,0-1.1,0Z"/>
    <path class="cls-6" d="M297.4,395.7c.3.1.5.3.7.6.2.4.3.7.2,1.2-.1.4-.3.7-.7,1-.7.4-1.7.9-3,1.6-.3.1-.8.4-1.5.8s-1.3.7-1.7.9c-.2.1-.4.3-.7.7l-.3.3c-.2.2-.3.3-.5.4s-.5.1-.7,0c-.3-.1-.5-.4-.8-.8s-.4-.8-.3-1.2.2-.8.6-1.2c.7-1,1.2-2,1.7-3.2.4-1.1.7-2.2.7-3.3s-.1-1.9-.5-2.6c-.3-.5-.7-.9-1.1-1s-.8,0-1.4.3c-.6.4-1,.8-1.1,1.4-.2.5-.1,1.1.3,1.7.5.8.3,1.5-.5,1.9-.4.2-.7.3-1.1.2s-.6-.3-.9-.7c-.4-.7-.6-1.4-.6-2.2s.3-1.6.8-2.4,1.3-1.5,2.3-2.1c1.2-.8,2.4-1,3.5-.8s1.9.8,2.6,1.9c.6,1,.8,2.4.6,4.1-.2,1.7-.9,3.5-2.1,5.4l4.6-2.9c.3,0,.6,0,.9,0Z"/>
  </g>
  <path class="cls-6" d="M105.6,499.1c-.2.8-.5,1.4-1.1,1.9s-1.3.8-2.2,1c-.9.2-1.9.1-2.9-.1-1.5-.3-2.7-.8-3.4-1.6-.7-.8-1-1.7-.8-2.8,0-.7.5-1.3,1-1.7.5-.5,1.3-.9,2.3-1.2-.5-.5-.8-1-1-1.6s-.2-1.2,0-1.7c.3-1.3.9-2.1,2-2.7,1.1-.5,2.4-.6,4.1-.3,1.3.3,2.3.8,3,1.5s.9,1.6.7,2.6c0,.7-.5,1.3-1,1.8s-1.3.9-2.3,1.2c1.4,1.1,2,2.4,1.7,3.7ZM101.8,499.6c.5-.2.8-.5.8-.9,0-.3,0-.7-.4-1.1-.3-.4-.9-.9-1.8-1.5-.8.2-1.4.4-1.7.7-.4.3-.6.6-.7,1s0,.8.4,1.1c.3.3.8.5,1.5.7.8.2,1.5.2,1.9,0ZM101.2,490.7c-.4.2-.7.6-.8,1.1,0,.7.3,1.5,1.4,2.2.9-.2,1.5-.5,1.9-.8s.6-.6.7-1c.2-.9-.3-1.4-1.5-1.7-.7-.1-1.3,0-1.7.2Z"/>
  <path class="cls-6" d="M104.5,363.6c.4.7.6,1.4.6,2.1,0,.8-.3,1.5-.9,2.2-.5.7-1.2,1.4-2.2,2-1.3.8-2.5,1.2-3.5,1.2s-1.9-.5-2.5-1.4c-.4-.6-.5-1.2-.5-1.9s.3-1.5.8-2.4c-.7,0-1.3-.2-1.8-.4-.5-.3-1-.7-1.3-1.2-.7-1.1-.8-2.2-.4-3.3.4-1.1,1.3-2.1,2.7-3,1.1-.7,2.2-1.1,3.2-1,1,0,1.8.5,2.3,1.3.4.6.6,1.3.6,2s-.3,1.5-.8,2.5c1.7-.3,2.9,0,3.7,1.3ZM102.1,366.6c.2-.5.2-.9,0-1.2-.2-.3-.5-.5-1-.5-.5-.1-1.3,0-2.4.2-.4.7-.7,1.2-.7,1.7s0,.9.3,1.2c.2.4.6.6,1.1.6s1-.2,1.5-.6c.6-.5,1-.9,1.2-1.4ZM95.4,360.7c-.2.5,0,.9.2,1.3.4.6,1.3.8,2.6.6.5-.8.7-1.4.8-1.9,0-.5,0-.9-.2-1.2-.5-.7-1.2-.8-2.2-.1-.6.4-1,.8-1.2,1.3Z"/>
  <g>
    <path class="cls-6" d="M521.4,400.4c.2-.5.7-.9,1.4-1.2h.4c2.4-.6,5-1.2,7.6-1.7,2.7-.5,4.7-.9,6.2-1.1l-1.7-2.4-.2-.4c0-.4,0-.8.2-1.2.3-.4.6-.6,1-.8h.3c.4-.2.8-.2,1.2,0,.3.1.8.5,1.3,1,.5.6,1.1,1.4,1.9,2.6l.8,1.3c.3.5.5.9.6,1.2.2.7.2,1.2,0,1.7-.2.4-.7.8-1.3,1s-.6.2-.9.2c-1.9.2-7.2,1.3-15.8,3.1-1.5.3-2.4-.3-2.9-1.7-.3-.5-.3-1,0-1.6Z"/>
    <path class="cls-6" d="M532.9,424.3c-.2.4-.6.6-1.1.8-.6.2-1.2.2-1.8,0s-1-.6-1.2-1.3c-.4-1.1-.8-2.7-1.4-5,0-.4-.3-1.2-.7-2.4-.3-1.2-.6-2.1-.8-2.8,0-.3-.3-.7-.7-1.2,0-.1-.2-.3-.4-.6-.2-.3-.3-.6-.4-.8,0-.4,0-.7.2-1.1.2-.4.7-.6,1.4-.9.7-.2,1.3-.3,1.9-.1.5.2,1.1.6,1.6,1.2,1.2,1.3,2.6,2.5,4.1,3.5s3,1.7,4.5,2.1,2.8.4,3.9.1c.9-.3,1.5-.7,1.8-1.3.3-.5.3-1.2,0-2.1-.3-1-.9-1.7-1.6-2.1-.8-.4-1.6-.5-2.6-.1-1.3.5-2.2,0-2.7-1.3-.2-.6-.2-1.2,0-1.7s.7-.8,1.4-1.1c1.1-.4,2.3-.4,3.4-.2,1.2.3,2.2.9,3.2,1.9s1.8,2.3,2.3,4c.7,2,.7,3.8,0,5.3-.6,1.5-1.9,2.6-3.7,3.2-1.7.6-3.8.4-6.2-.4-2.4-.9-4.8-2.5-7.2-4.8l2.8,7.8c0,.7,0,1.1,0,1.4Z"/>
  </g>
  <path class="cls-1" d="M507.3,548.9s24.8-33.3,66.6-8.5-47.3,47.6-58.9,30.7"/>
  <path class="cls-1" d="M301.6,559.3s-24.8,33.3-66.6,8.5c-41.8-24.8,47.2-47.6,58.8-30.8"/>
  <g>
    <path class="cls-6" d="M250.1,552.4c.2,0,.4,0,.6.2.1.2.2.4.2.6,0,.5-.1.9-.3,1.2s-.5.5-.9.6c-.7.2-1.5.4-2.4.4s-1.4,0-2-.3c-.5.8-1,1.5-1.5,2.3-.6.9-1.2,1.5-1.7,1.9-.5.3-1,.5-1.6.5s-1.2-.3-1.5-.8c-.4-.5-.6-1.3-.7-2.4-.2-2.2-.3-4.2-.3-5.9v-.8c0-.5.2-.9.4-1.1.3-.2.7-.3,1.2-.3s.7,0,.9.3.3.5.3.9c0,1.8.1,4.2.3,7.2,1-1.4,1.7-2.6,2.2-3.4-.2-.5-.4-1-.4-1.7s.1-1.1.4-1.6c.2-.5.6-.9,1-1.2s.9-.5,1.4-.5.8.2,1.1.5.4.8.4,1.4-.2,1.5-.6,2.5c.6,0,1.4-.2,2.4-.4h.6c.3-.1.4-.1.5-.1Z"/>
    <path class="cls-6" d="M261.5,552.6c.1.2.2.5.2.8,0,.8-.2,1.2-.7,1.4-1,.3-2,.5-3.2.6-.3,1.3-.9,2.4-1.8,3.2s-1.9,1.2-3,1.2-1.8-.2-2.5-.7-1.2-1.1-1.5-1.8c-.4-.8-.5-1.6-.5-2.5s.2-2.3.7-3.3,1.1-1.7,1.9-2.2c.8-.5,1.7-.8,2.7-.8s2.2.4,2.9,1.3,1.2,1.9,1.3,3.1c.8,0,1.6-.2,2.7-.5h.3c.2,0,.4,0,.5.2ZM254.5,556.6c.4-.4.6-1,.8-1.8-.5-.3-.9-.8-1.1-1.3-.3-.5-.4-1.1-.4-1.7s0-.5.1-.8h-.1c-.6,0-1.2.3-1.6.9-.4.6-.6,1.5-.6,2.6s.2,1.6.5,2c.3.5.7.7,1.2.7.4,0,.8-.2,1.2-.6Z"/>
    <path class="cls-6" d="M273.7,554.6c.1.2.2.5.2.8,0,.6-.2,1.1-.5,1.5-.7.8-1.4,1.5-2.2,2.1-.8.6-1.6.9-2.3.9-1.2,0-2.1-.7-2.8-2.1-.7.8-1.3,1.4-1.8,1.7s-1.1.4-1.8.4c-1,0-1.8-.4-2.4-1.1-.6-.7-.9-1.7-.9-2.8s.3-2.5.8-3.6,1.3-2,2.2-2.7c1-.7,2-1.1,3.2-1.2.3-3.1.9-5.8,1.7-8,.9-2.2,2-3.3,3.4-3.3s1.3.3,1.7.9.7,1.6.7,2.8c0,1.8-.4,3.9-1.3,6.3s-2.1,4.9-3.5,7.4c.1.9.2,1.6.4,2,.2.4.5.6.8.6s.9-.2,1.3-.6c.4-.4,1-1,1.8-1.9.2-.2.4-.3.6-.3.4-.1.6,0,.7.2ZM264.4,557c.3-.2.7-.7,1.2-1.4-.2-.9-.2-1.8-.2-2.9v-1.9c-.9.3-1.6.9-2.2,1.8-.6.9-.9,1.9-.9,3s.4,1.8,1.2,1.8c.3,0,.6,0,.9-.4ZM269.5,541.1c-.3,1.1-.6,2.5-.8,4.2-.2,1.7-.4,3.6-.5,5.5,1.8-3.9,2.7-7,2.7-9.4s-.1-1.1-.2-1.4c-.1-.3-.2-.5-.4-.5-.2,0-.5.5-.8,1.6Z"/>
    <path class="cls-6" d="M284.7,554.7c.1.2.2.5.2.8s-.1.7-.2.9-.3.4-.5.6l-4.6,3.1c-.6,3.3-1.4,5.9-2.4,7.8-1,1.9-2.2,2.8-3.8,2.8s-1.5-.3-2-.8-.8-1.2-.8-2,.2-1.5.5-2.3,1-1.7,1.9-2.7,2.3-2.2,4-3.5v-.6c.2-.6.3-1.4.5-2.5-.3,1.2-.8,2-1.3,2.6-.6.6-1.2.9-1.8.9s-1.3-.3-1.8-1-.7-1.5-.7-2.5.1-2.3.2-3.3c.2-1,.4-2.1.8-3.2.2-.5.4-.8.7-1s.7-.3,1.4-.3.6,0,.7.2c.1,0,.2.3.2.5s-.1.6-.3,1.3c-.2.6-.3,1.1-.4,1.6-.1.7-.2,1.3-.3,1.9-.1.6-.1,1.1-.1,1.5,0,.6.2.9.5.9s.5-.2.9-.7.7-1.2,1.2-2.2c.4-1,.8-2.2,1.2-3.6.1-.5.3-.8.6-1,.3-.2.7-.3,1.2-.3s.6,0,.8,0,.2.3.2.5c0,.4-.2,1.8-.6,4.1l-.6,3.9c1.2-.9,2.4-1.8,3.6-2.5.2,0,.4-.2.6-.2,0,0,.2,0,.3.2ZM275.1,566.9c.5-.9,1-2.5,1.5-4.6-1.2,1-2.1,2-2.7,2.8-.6.9-.8,1.6-.8,2.2s.1.5.2.7.3.3.5.3c.3,0,.8-.5,1.3-1.4Z"/>
  </g>
  <g>
    <path class="cls-6" d="M542.1,557.3c0,0,.2,0,.3,0s0,.2,0,.4c0,.3,0,.5-.2.7,0,.2-.3.3-.5.4-.4,0-.9.2-1.4.2s-.8,0-1.2-.2c-.3.4-.6.9-.9,1.4-.4.5-.7.9-1,1.1-.3.2-.6.3-.9.3s-.7,0-.9-.4c-.2-.3-.4-.8-.4-1.4,0-1.3-.2-2.5-.2-3.4v-.5c0-.3,0-.5.3-.6s.4-.2.7-.2.4,0,.5.2c0,0,.2.3.2.5,0,1.1,0,2.5.2,4.2.6-.8,1-1.5,1.3-2,0-.3-.2-.6-.2-1s0-.6.2-.9c0-.3.3-.5.6-.7.2-.2.5-.3.8-.3s.5,0,.7.3.3.5.3.8,0,.9-.3,1.4c.4,0,.8,0,1.4-.2h.4q0-.2.1-.2Z"/>
    <path class="cls-6" d="M548.7,557.5c0,0,0,.3,0,.5,0,.4,0,.7-.4.8-.6.2-1.2.3-1.8.3-.2.8-.5,1.4-1,1.9s-1.1.7-1.8.7-1,0-1.4-.4c-.4-.3-.7-.6-.9-1.1-.2-.4-.3-.9-.3-1.5s0-1.3.4-1.9c.3-.6.6-1,1.1-1.3s1-.5,1.6-.5,1.3.2,1.7.7.7,1.1.8,1.8c.4,0,1,0,1.6-.3h.2c0,0,.1.2.1.3ZM544.6,559.8c.2-.2.4-.6.4-1-.3-.2-.5-.5-.7-.8s-.2-.7-.2-1v-.4h0c-.4,0-.7.2-.9.5s-.4.9-.4,1.5,0,.9.3,1.2.4.4.7.4.7-.1.9-.4Z"/>
    <path class="cls-6" d="M555.8,558.6c0,0,0,.3,0,.5,0,.4,0,.7-.3.9-.4.5-.8.9-1.3,1.2s-.9.5-1.4.5-1.3-.4-1.6-1.2c-.4.5-.7.8-1,1s-.6.3-1,.3c-.6,0-1-.2-1.4-.6-.4-.4-.6-1-.6-1.7s.2-1.4.5-2.1c.3-.6.8-1.2,1.3-1.6.6-.4,1.2-.6,1.9-.7.2-1.8.5-3.4,1-4.6.5-1.3,1.2-1.9,2-1.9s.7.2,1,.5c.3.4.4.9.4,1.7s-.3,2.3-.8,3.7-1.2,2.8-2.1,4.3c0,.5,0,.9.2,1.2,0,.2.3.4.5.4.3,0,.5,0,.8-.3s.6-.6,1.1-1.1.2-.2.4-.2c.2-.3.3-.3.3-.2ZM550.4,560c.2,0,.4-.4.7-.8,0-.5,0-1.1,0-1.7v-1.1c-.5.2-.9.5-1.3,1s-.5,1.1-.5,1.8.2,1,.7,1c.2,0,.3,0,.5-.2ZM553.4,550.8c-.2.6-.3,1.5-.5,2.5s-.2,2.1-.3,3.2c1-2.3,1.6-4.1,1.6-5.5s0-.6,0-.8,0-.3-.2-.3c-.2-.1-.3.2-.5.9Z"/>
    <path class="cls-6" d="M562.3,558.7c0,0,0,.3,0,.4,0,.2,0,.4,0,.5l-.3.3-2.7,1.8c-.4,1.9-.8,3.5-1.4,4.6-.6,1.1-1.3,1.7-2.2,1.7s-.9,0-1.2-.4-.4-.7-.4-1.2,0-.9.3-1.3c.2-.5.6-1,1.1-1.6s1.3-1.3,2.3-2v-.3c0-.3,0-.8.2-1.5-.2.7-.4,1.2-.8,1.5s-.7.5-1.1.5-.8-.2-1-.6c-.3-.4-.4-.9-.4-1.4s0-1.3,0-1.9c0-.6.2-1.2.5-1.9,0-.3.2-.5.4-.6s.4-.2.8-.2.3,0,.4,0,0,.2,0,.3,0,.3-.2.8c0,.3-.2.7-.2.9,0,.4,0,.7-.2,1.1,0,.3,0,.6,0,.9s0,.5.3.5.3,0,.5-.4.4-.7.7-1.3.5-1.3.7-2.1c0-.3.2-.5.3-.6s.4-.2.7-.2.4,0,.4,0q0,0,0,.3c0,.2,0,1-.4,2.4l-.4,2.3c.7-.5,1.4-1,2.1-1.5,0,0,.2,0,.3,0,.5,0,.6,0,.7.1ZM556.6,565.8c.3-.5.6-1.4.9-2.7-.7.6-1.2,1.2-1.6,1.7-.3.5-.5.9-.5,1.3s0,.3,0,.4c0,0,.2.2.3.2.3-.1.6-.4.8-.9Z"/>
  </g>
  <path class="cls-1" d="M70,531.8s56.7,7.1,65.5-16.9,8.6-86.6-1.4-77.7-57.6,35.2-57.4,14.3c.3-21-6.7,80.3-6.7,80.3Z"/>
  <path class="cls-1" d="M121.4,299.2s-72.8,15.2-63.7,22.8c19.6,16.4,13.7,65,8.5,77.3-9.5,22.7,76.4,19.2,62.1.6-12.7-16.5-6.9-100.7-6.9-100.7Z"/>
</svg>